<mxfile host="app.diagrams.net" agent="Mozilla/5.0 (Windows NT 10.0; Win64; x64) AppleWebKit/537.36 (KHTML, like Gecko) Chrome/133.0.0.0 Safari/537.36" version="26.0.16">
  <diagram name="PÃ¡gina-1" id="yq03WD9gN9lbURD_GJE9">
    <mxGraphModel dx="1750" dy="948" grid="1" gridSize="10" guides="1" tooltips="1" connect="1" arrows="1" fold="1" page="1" pageScale="1" pageWidth="827" pageHeight="1169" math="0" shadow="0">
      <root>
        <mxCell id="0" />
        <mxCell id="1" parent="0" />
        <mxCell id="UG6f5bHq-V13YJxruOO--42" value="" style="group" vertex="1" connectable="0" parent="1">
          <mxGeometry x="206" y="575" width="80" height="110" as="geometry" />
        </mxCell>
        <mxCell id="UG6f5bHq-V13YJxruOO--7" value="" style="group" vertex="1" connectable="0" parent="UG6f5bHq-V13YJxruOO--42">
          <mxGeometry y="30" width="80" height="80" as="geometry" />
        </mxCell>
        <mxCell id="UG6f5bHq-V13YJxruOO--5" value="" style="ellipse;whiteSpace=wrap;html=1;aspect=fixed;" vertex="1" parent="UG6f5bHq-V13YJxruOO--7">
          <mxGeometry width="80" height="80" as="geometry" />
        </mxCell>
        <mxCell id="UG6f5bHq-V13YJxruOO--6" value="" style="ellipse;whiteSpace=wrap;html=1;aspect=fixed;" vertex="1" parent="UG6f5bHq-V13YJxruOO--7">
          <mxGeometry x="10" y="10" width="60" height="60" as="geometry" />
        </mxCell>
        <mxCell id="UG6f5bHq-V13YJxruOO--34" value="JoyStick" style="text;html=1;align=center;verticalAlign=middle;whiteSpace=wrap;rounded=0;" vertex="1" parent="UG6f5bHq-V13YJxruOO--42">
          <mxGeometry x="10" width="60" height="30" as="geometry" />
        </mxCell>
        <mxCell id="UG6f5bHq-V13YJxruOO--43" value="" style="group" vertex="1" connectable="0" parent="1">
          <mxGeometry x="196" y="390" width="60" height="70" as="geometry" />
        </mxCell>
        <mxCell id="UG6f5bHq-V13YJxruOO--13" value="" style="ellipse;shape=doubleEllipse;whiteSpace=wrap;html=1;aspect=fixed;" vertex="1" parent="UG6f5bHq-V13YJxruOO--43">
          <mxGeometry x="10" y="30" width="40" height="40" as="geometry" />
        </mxCell>
        <mxCell id="UG6f5bHq-V13YJxruOO--35" value="Button A" style="text;html=1;align=center;verticalAlign=middle;whiteSpace=wrap;rounded=0;" vertex="1" parent="UG6f5bHq-V13YJxruOO--43">
          <mxGeometry width="60" height="30" as="geometry" />
        </mxCell>
        <mxCell id="UG6f5bHq-V13YJxruOO--44" value="" style="group" vertex="1" connectable="0" parent="1">
          <mxGeometry x="196" y="280" width="60" height="60" as="geometry" />
        </mxCell>
        <mxCell id="UG6f5bHq-V13YJxruOO--33" value="" style="verticalLabelPosition=bottom;verticalAlign=top;html=1;shape=mxgraph.basic.patternFillRect;fillStyle=diag;step=5;fillStrokeWidth=0.2;fillStrokeColor=#dddddd;" vertex="1" parent="UG6f5bHq-V13YJxruOO--44">
          <mxGeometry x="10" y="30" width="40" height="30" as="geometry" />
        </mxCell>
        <mxCell id="UG6f5bHq-V13YJxruOO--39" value="buzzer" style="text;html=1;align=center;verticalAlign=middle;whiteSpace=wrap;rounded=0;" vertex="1" parent="UG6f5bHq-V13YJxruOO--44">
          <mxGeometry width="60" height="30" as="geometry" />
        </mxCell>
        <mxCell id="UG6f5bHq-V13YJxruOO--45" value="" style="group" vertex="1" connectable="0" parent="1">
          <mxGeometry x="570" y="280" width="60" height="60" as="geometry" />
        </mxCell>
        <mxCell id="UG6f5bHq-V13YJxruOO--32" value="" style="verticalLabelPosition=bottom;verticalAlign=top;html=1;shape=mxgraph.basic.patternFillRect;fillStyle=diag;step=5;fillStrokeWidth=0.2;fillStrokeColor=#dddddd;" vertex="1" parent="UG6f5bHq-V13YJxruOO--45">
          <mxGeometry x="10" y="30" width="40" height="30" as="geometry" />
        </mxCell>
        <mxCell id="UG6f5bHq-V13YJxruOO--40" value="buzzer" style="text;html=1;align=center;verticalAlign=middle;whiteSpace=wrap;rounded=0;" vertex="1" parent="UG6f5bHq-V13YJxruOO--45">
          <mxGeometry width="60" height="30" as="geometry" />
        </mxCell>
        <mxCell id="UG6f5bHq-V13YJxruOO--46" value="" style="group" vertex="1" connectable="0" parent="1">
          <mxGeometry x="196" y="470" width="60" height="70" as="geometry" />
        </mxCell>
        <mxCell id="UG6f5bHq-V13YJxruOO--15" value="" style="ellipse;shape=doubleEllipse;whiteSpace=wrap;html=1;aspect=fixed;" vertex="1" parent="UG6f5bHq-V13YJxruOO--46">
          <mxGeometry x="10" y="30" width="40" height="40" as="geometry" />
        </mxCell>
        <mxCell id="UG6f5bHq-V13YJxruOO--36" value="Button B" style="text;html=1;align=center;verticalAlign=middle;whiteSpace=wrap;rounded=0;" vertex="1" parent="UG6f5bHq-V13YJxruOO--46">
          <mxGeometry width="60" height="30" as="geometry" />
        </mxCell>
        <mxCell id="UG6f5bHq-V13YJxruOO--47" value="" style="group" vertex="1" connectable="0" parent="1">
          <mxGeometry x="540" y="565" width="120" height="120" as="geometry" />
        </mxCell>
        <mxCell id="UG6f5bHq-V13YJxruOO--12" value="" style="group" vertex="1" connectable="0" parent="UG6f5bHq-V13YJxruOO--47">
          <mxGeometry y="30" width="120" height="90" as="geometry" />
        </mxCell>
        <mxCell id="UG6f5bHq-V13YJxruOO--10" value="" style="shape=ext;double=1;rounded=0;whiteSpace=wrap;html=1;" vertex="1" parent="UG6f5bHq-V13YJxruOO--12">
          <mxGeometry width="120" height="90" as="geometry" />
        </mxCell>
        <mxCell id="UG6f5bHq-V13YJxruOO--11" value="" style="rounded=1;whiteSpace=wrap;html=1;strokeWidth=2;fillWeight=4;hachureGap=8;hachureAngle=45;fillColor=#1ba1e2;sketch=1;" vertex="1" parent="UG6f5bHq-V13YJxruOO--12">
          <mxGeometry x="15" y="10" width="90" height="50" as="geometry" />
        </mxCell>
        <mxCell id="UG6f5bHq-V13YJxruOO--37" value="Display Oled" style="text;html=1;align=center;verticalAlign=middle;whiteSpace=wrap;rounded=0;" vertex="1" parent="UG6f5bHq-V13YJxruOO--47">
          <mxGeometry x="30" width="60" height="30" as="geometry" />
        </mxCell>
        <mxCell id="UG6f5bHq-V13YJxruOO--48" value="" style="group" vertex="1" connectable="0" parent="1">
          <mxGeometry x="384" y="700" width="60" height="65" as="geometry" />
        </mxCell>
        <mxCell id="UG6f5bHq-V13YJxruOO--16" value="" style="verticalLabelPosition=bottom;verticalAlign=top;html=1;shape=mxgraph.basic.sun;container=1;" vertex="1" collapsed="1" parent="UG6f5bHq-V13YJxruOO--48">
          <mxGeometry x="5" y="25" width="50" height="40" as="geometry">
            <mxRectangle x="395" y="510" width="36" height="30" as="alternateBounds" />
          </mxGeometry>
        </mxCell>
        <mxCell id="UG6f5bHq-V13YJxruOO--38" value="RGB Light" style="text;html=1;align=center;verticalAlign=middle;whiteSpace=wrap;rounded=0;" vertex="1" parent="UG6f5bHq-V13YJxruOO--48">
          <mxGeometry width="60" height="30" as="geometry" />
        </mxCell>
        <mxCell id="UG6f5bHq-V13YJxruOO--49" value="" style="group" vertex="1" connectable="0" parent="1">
          <mxGeometry x="356.88" y="330" width="127.12" height="284.12" as="geometry" />
        </mxCell>
        <mxCell id="UG6f5bHq-V13YJxruOO--2" value="" style="shape=image;verticalLabelPosition=bottom;labelBackgroundColor=default;verticalAlign=top;aspect=fixed;imageAspect=0;image=data:image/png,iVBORw0KGgoAAAANSUhEUgAABTYAAAJYCAYAAABYc7mcAAAACXBIWXMAAAsTAAALEwEAmpwYAAHXpUlEQVR4nOz9a5Qb13nnC/+rCvcGGugr2Td2i9SFkiiZkqhElPxalBJZ9njGorzG0njGmVDJJGclH0bSkmPPyXsUyeNk1sSxl6Sc9SZzPJOIWcnYkTQTUjnWyLJii/JYl0Q3WiYlijSpbnaTINmNbqCBxh1V74dCoQuFAlAF7EIVgOe3FhcbQGHXLjy1d+39389+Hk6SJBAEQRAEQRAEQRAEQRAEQXQTvN0VIAiCIAiCIAiCIAiCIAiCMAsJmwRBEARBEARBEARBEARBdB0kbBIEQRAEQRAEQRAEQRAE0XWQsEkQBEEQBEEQBEEQBEEQRNdBwiZBEARBEARBEARBEARBEF0HCZsEQRAEQRAEQRAEQRAEQXQdJGwSBEEQBEEQBEEQBEEQBNF1kLBJEARBEARBEARBEARBEETXQcImQRAEQRAEQRAEQRAEQRBdBwmbBEEQBEEQBEEQBEEQBEF0HSRsEgRBEARBEARBEARBEATRdZCwSRAEQRAEQRAEQRAEQRBE10HCJkEQBEEQBEEQBEEQBEEQXQcJmwRBEARBEARBEARBEARBdB0kbBIEQRAEQRAEQRAEQRAE0XWQsEkQBEEQBEEQBEEQBEEQRNdBwiZBEARBEARBEARBEARBEF0HCZsEQRAEQRAEQRAEQRAEQXQdJGwSBEEQBEEQBEEQBEEQBNF1kLBJEARBEARBEARBEARBEETXQcImQRAEQRAEQRAEQRAEQRBdBwmbBEEQBEEQBEEQBEEQBEF0HSRsEgRBEARBEARBEARBEATRdZCwSRAEQRAEQRAEQRAEQRBE10HCJkEQBEEQBEEQBEEQBEEQXQcJmwRBEARBEARBEARBEARBdB0kbBIEQRAEQRAEQRAEQRAE0XWQsEkQBEEQBEEQBEEQBEEQRNdBwiZBEARBEARBEARBEARBEF0HCZsEQRAEQRAEQRAEQRAEQXQdJGwSBEEQBEEQBEEQBEEQBNF1kLBJEARBEARBEARBEARBEETXQcImQRAEQRAEQRAEQRAEQRBdBwmbBEEQBEEQBEEQBEEQBEF0HSRsEgRBEARBEARBEARBEATRdZCwSRAEQRAEQRAEQRAEQRBE10HCJkEQBEEQBEEQBEEQBEEQXQcJmwRBEARBEARBEARBEARBdB0kbBIEQRAEQRAEQRAEQRAE0XWQsEkQBEEQBEEQBEEQBEEQRNdBwiZBEARBEARBEARBEARBEF0HCZsEQRAEQRAEQRAEQRAEQXQdJGwSBEEQBEEQBEEQBEEQBNF1kLBJEARBEARBEARBEARBEETXQcImQRAEQRAEQRAEQRAEQRBdBwmbBEEQBEEQBEEQBEEQBEF0HSRsEgRBEARBEARBEARBEATRdZCwSRAEQRAEQRAEQRAEQRBE10HCJkEQBEEQBEEQBEEQBEEQXQcJmwRBEARBEARBEARBEARBdB0kbBIEQRAEQRAEQRAEQRAE0XW47K6AXXAcZ3cVOo5w9/X7AdwOYDeAfQa/Fi+99P4Qwzq8YuLcneLh0kvvP8miIOHu6/cBeIVFWQzpBxs+UHrp/YMsCnKoDVF66X1mnZZDbfj10kvvP86iILKhbfR6X9oPNqR2aAKH2pDaoQkcakNqhyboAxvuBvAei7JYQjY0DrVD27CrHcYBHAXwKoCDpZfenzfyJUmSWqgZoUAem32AcPf1B4S7r/8YwCEAD8Fcp3OUcXXmGZfHgqMMy5pnWBYrjjIub55xeSyYZ1jWUYZlseII4/KOMi6PBUcYlnWUYVmsOMK4vKOMy2PBUVYFlV56/wirshhyhHF5RxmXx4IjDMs6yrAsVhxhXN5RxuWx4Cirgqgd2sYRhmUdZVgWK44wLu8o4/JYcIRVQaWX3j/KqiyGHGFc3lHG5bHgCMOyjjIsixVHHV4eC46wKshkO4xA1lseA/CxcPf1r5TFbcJC+tZjsx8oryw8DdlDcxMXB87NAby8SDMZKOGe2WzVIc9/5MG5pCW694Lyx+/uqT7n28tuvLXiseKcuGc2g8mAWHl9Psnj8Efsz1V66f154e7rAQA3TxZx82Sx6vM//3CA+TkBsiFLSi+9H+8DGyaUP8iG7CAbWgPZkC3UDpnS0zZUQzZkC7VDpvS0DdWQDdnS5+0wzvh0PW1DNU1tWJQgFSWgVPHA3Adgn3D39Ych7zKMW1rBPoWEzR5FuPv6A5BFTRkO4AICOC8HCNVe59NjJfzunkzVe2+dd1n14JpV/tCe888/5PF22hon4v1XF7BnLF95/dZ5lyWdnnD39XPK3zdPFmuu8b8shJifE2hqwwjj0znRhhFW51Hb8M7L8vi163JVn5MNW8cOG1I7ZEsTG86xOg/ZkNphq5ANqR2aJKz84SAbRlidR7j7+kpZZEO2UDtkihNtGGF1HmqH/dcOOUAWODMipGxFeN0PYLdw9/X3OtQTu6uhreg9iFbU5Pw8+BE3uABfI2rWY+doSflzH+Pq7QZQs8rRaVTXB7C9xt3KHzdPFhgWax7VNe5mXPRuwHE2vJ1h0fsq5xgpNTjMevrMhrsZFl0pi9qhtWjO/wmGRe/bPAfZ0Er6rR2qJ5gM2A3Yb0ML2+HuzXP0rA33AfbbsBNjGrKhtVA7bIt9gP02pHbYFvs05duCo9qhiwMXEsAPuQBXRYOZA/BKeWctwRASNnuMcoKgTVEzJIALCuVlA+PsHNnsFMplsqjbHMqdgt2dXsgjYSpUWT25h2HRlbIMXaNLAAYHgKGQ7j9pJAxpYrT635ZhIBhoWnQ/2FBVh/0MizZnQwvpBxs6oh1aSK/bUFOH/QyLrUwo7L7GXrdhv7VDMLpPnWRDTR32MyyWbNghNO1wP8OiKzZUlW8LVtvQ7usDqB22ArXDzmK5DW12CgEc2A5dHPghFzhfRXqLQBY3I4zqRoCEzZ6i3DiqRU1faya+87KqlYgH26qYTjl3zuUbHdcRVNe4m0VA3/Lvvx+QV4tCniaZzQI+SDNbZPEyEtL9h8EBwOep/hfwQRqLNBU3LbLhgUr5TrDhXOUa58qeym1RfjDvB+Tfr6kNLaYvbGh3O7SYfrDhPVdVwjWwbIcHgP5oh3Z7bwDWtsOdoyWn2fDXGRV7QPnDCTbss3bYkzZUXeOcFe1w0mZBxWob3nkZPQ+thtqheagddh6ntkONNhOBnNiZYAQJm73FEyjHy+AGWhc1AXnFav9VlY5pX7teKuUO4SFAXqmye6sBAPzadVWBjZ9gUGTl999/Va7xkQCkUHOvy3a+b5ENHwOcY0PN7/wYg5WvysKA5v6wBYts+CDgHBta0A4fg4l2aDX9YMP9V+UR8lYGeSzaYeU+6Id2qFqgsQ0r2yHZsDNQOzSHE21I7dAcTrQhtUNzONGGjmmHPm/dHX1V/wI+U5XpBxs6uR1yIUFO4iyzj4XwSsiQsNkjqFcSODcnx9NsE01Q3KfVQXPNUO5MKisSX7st3Va9WDEZEtUd+27h7utbfniVO6UDgLwad89VBlareOubXz/YUJV5bw5tDECEu69/CKoYP04QjABLbBgBnGVDxu3wIcBEO+wAvW7DkEdSJ9magzpxnUnK7XA/0B/tUBt83i502mE7NjyA7miHu1sph9qhffS6DakdGsepfSm1Q+P0WzucConG2+FQCNLESN0dfVX/tgxDGgk3L1MFtUPjWNEOuVBVmMDH2i6QAEDCZi9RaRTcgMCkQI1oFAFwyGzHV+7wXkE57sadlxUcsZKj8LXb0uoVnYeEu69/3GwZ2mRNf3jHBpO6saAfbPhr12fVsU4OCHdf/7TZlbnyQ+sJAAh5JfwR2bCjUDtsjtNt+Lt7MlUxjfqkHc6ZKUMVLmY3INvQKWIDUNMOD/RBOzQ9maN2aC+TIVEtfkTQQgIGp9vwa7el1TH4DrQiqji9HVphQyf1pdQOm9OP7fCpz6QMf1caHDB3MpPHUzs0hmXtUODABSp6zVy7XrOEDAmbvcN+AHLGLbfJTEEN+N09mapVK8gd3wEj3y3HJXkPqoDQTnowA/KKztOfT2rd1Q1NWIW7r4+UvcsqD60/umPDEUGT1fSDDf/07lTVhBzyNe5r9l3h7uvnhLuvfwWqh9bTn0/aHv9GSz/YkNphfbrBhgCYtUOlrC5oh+8ZHYyWf4dXoIqz5TQbUjtsDLVDZ/Br1+XUNoygx2wY8kh46jMp7SJDT7XDOjZ8yMh3u8GGALR96QHIz4t9zb5XboeHoGqHf3THBrXDergESGOR2kSryr+xiJyo1SR12uErHWuHHdjVR+2wPp1oh5y3Sq+5h1nBfYzL7goQ7VNeYYkAaCuuZj2Uld7DH3mATS+HxwA8BeBw6aX351V1mYO8nffXy/8DkDu8pz+ftD3otR47R+S6PfD3ISRzHCBPPPcLd19/EMDzpZfeP6w+vtwh3gO5g4wo7//RHRuOWqlSY9KGEci/QdfYcDIk4unPJ/F/vTKAEysCsDlhPQrgrwAcLb30/hGg0l52Q7bhfqUMRdR02gRAoddt2EI73A35+g6A2qEjYNUO//TulGO23GnRseGh8vU9BeCIjg33QY49tU9538k2pHbYG+3wf/7Ldfz7l4L91A57yoZ92g6fEO6+/kF00obBQPN496IILrEBZM3F7A55JG07nAO1w/1gbENpyzDgcTc4wgPJ5wW3eNF02TrtcB+Aj6kddk9f6uh2KHDg3BykggSofk+idUjY7A12K39wLnbemmr+8I4NXDVaxJ+97Vc69znIqxhPCHdf3/C7v3Z9Dl+71RlxU+qxc6SE//kv1/H/fWUAb52vNIsDkFfoGn53KiTiqc+kHCuIKfSDDZ/+fBJ/9rYff/2+V3l7d/kfGl3jzZNFR66Ia2nXhr+7J+PIgYdCu+3wD+/YcOwEQKEfbNiH7XA3yp4Z5es7CtVzWU232JDaYX26wYbKIkOftcM59JANqR1abMNgQPbmM4AU8MnCWNHcON8R7dDnbfy5KAL51reA22pDn7eJqFnGJcjHmhSnAWqHvdCXOqId1sPDA4USIG9HjwCIW3Oi/oCEzd5grvIXw23oWn7tuhx+Za6Av/65D4c/8iidX132X5XH7+7JOH5wrKB0fM9/5MHhj7zqB5guUyERv7sn49hVOD1ssWHAB3gNDDwUCiUg1ZqIGvJI+NqtafzadVn82dt+/Gje3fAa77ysgF+7Luv4QYcaZevIn73tt68dDoUgNRssF4vgYuvyoNkESjv88bwbf/2+r2fboe02tJB+aYe/Mleod327tcd32zVSO6yFWTv0uCENhZpvNRRFcGvJlkWHfmmH+6/K46/f9+Gvf+7tbF8aDMh2bLTNVRSBdLalZyGw2Q7fOu/Cn73t7+l22GkbNvXU1BIKAGtJ0+exrR3yPKSJEWPCXyoNbjne8qlsbYcdgNphLd1mQ8c+D6sfH7sBHLH2hL0NCZuEKSZDIr52axpfuzWNt8678Nb52gfmzZMF7BwtsVm98bhbizOSL7Q0iASAe67K456r8jif5PHWeRfOJat7nalQCVeNlhzvoVmPTtpQmhozNqjSEh4Ad2655fNOlldJ/xDAiZiAj1aEih2nQiVMhkTrH1Za4a+Ne1KL8oBuZMOdo3LmPuarqENyFsbmeCC5XOCiKy2d5s45OZB8vXYY8so2tKwdNut72rSnrTbsEI5sh2ratKH6+hQbJvMcTqwIlf6z223Y8XboEgCXgaFpsWjae0oPO9qhtGXYcMw3yecBt3ChrfPZ1g6bLX6paaMthjwSfndPBr+7J9O5vtTnNebtx/OyAMrz4C6utny6myeLePrzyc4/D3m++RiuBS84LbbYsMNo2+H5JI8TK3JfZ0k7DA8YH38Hy6JtG31qP9jQtnbYIfrBhh1vh03geA7d+Us6ExI2iZa5ebJoaeOXxiLyw7YV8gVw0Vjbk9ZuWm1rBUttGPC1JmoC8vda3DaiZedIh0Vol6Af80cU5XuyjS0/eljdDrU09dRU4/O0fT472qE0Em6eYZKhPTttQzvoeDuEgYUVUZQXUBgIZL1uw460Q49b9jAyspgpiuAurjF5Rih0xIYet7lEFjzP7FkIdK4dSluG5TGAURj1px1rh36TzzYzv0UDOvo85HlIM+PN22O+0NZCtJZe70uBzXbopCzgcLmYPAuB3rchzQ97A0e2Q6ItSNgknIlLaF3UBOTJQ9APrDsvQ1vfYGb7eQ8hDYX0xRSehzQUastrg+gQzURNoHfs6XHLQm49EVoUgWweXCzBbNLTEYwsrPB8y9sLCQsY8BnfoaG0vyg7YbMjdCDTre143OaFPJ6HFB5oazsswZjwgLH7VbF3Omt9nQiCIAiiDn0wwiK6EiNb0Zoh0O1N2ECje7cfJrX9RLfbU4nB1cizlueBgE/2wOom+nRhhSBsp9V+kcW4z6kw3qnhOKi/JQiCIGymy2dlBEEQBEG0hJkYxq2GlSAIguh3RIqiRhAEQRBWQsImQRAEQRAEQRAEYZ5cj3ukEgRBEI6HhE2CIAiCIAiCIAjCPOSRShAEQdhMDwe0ITpFLFGqhA+aGDWR7bNLyBckxBJydvWRMA+Pm7O5RuxRbOhxAyNhsmE3El2RE7v0qg1TaRHJtDx5IhsywtPZIUA/2TAU4BAM9N7asdqGvfi8B3rfhv00ZiMbdif9ZMNeHbPRuLv76acxW6/asN8gYZMwTSxRwqnFAqIrJcQStVlyQwEeE6MCrpjxdOWAK1+QsBAtYv6CfI35Qu1K9MSoC1fOuDE74erKjl6x4UK0iGRarPk8FOAxO+HCFTPuruzo8wUJJ88WsHChiOhKseZzj5vDxKiAua3da8PoSgmnFvOIrpR0bTgSFsrtsPdteMW27oz/aNSGu7Z7rJnYWZxgLZUWMR8t9rQNF6JFLFwoYD5a1H1WjITlNjg34erKybliw1OLBd3nvcfNYW7ChdlyX9qNnDpbaPq8n93q6mobHjuT79kxG2Dchlduc3fl857G3b1jw14edy9Eizi5WKBxdxfbkMbdFo+7CUvpzlEoYQuptIhX38vqdnZqkmkRybMiTp4tYGLUhRuv8nbNQOvdj3I4djqvO6hSE12RO33PMQ67dnhw41XeDtWwPWKJEt48ljNkw2On8zh2Oo+JURdu2eXtmoe0ERsqA7CFqGzDG6/yYteOBpmhHUR0pYR3P2puw1hCngApNrz9Bl9XPKTzBQnHzuRN2fCNY1ns3eXrmoFWdKWEn7yX0R1UqVHb8Mptbtx4lbdrbKi0w2bHKTZ896Mcbtnl6xpxbCFaxJvHsoZt+OYx4Mptbtyyy9cVE7p8QcKbx7I4ebZx7DxlInTybAGhAN+TNlSe928eQ+V53w02TKVFvPtRrqkN1WO2UIDHp27wd82Y7dTZAt44ljU8Znv3oxx27fBg13ZP19iw18fdx07n8e5HOdM2pHG3c2hl3N1NNqRx9+Zx3TzufvNYVndhSE23jrsJme4YfRK2Y3TwqCW6UsQLK0XcuNPr6AdYviDhhdfSTTs8ve+9eyKHhWgRn7rB5+hByLHTebx5LGv6e9GVIg4dKeKWXT5Hi3+xRAk/ea/5Q0uLMoE/tVjA524LOHqy8+5HObx7Imf6e9GVIv7uyIbjByGxRAn/8E/NBT8t+YKEV9/L4ORiAXf9kt/RNnzzWLap4KfHybOyV+DtN/gdLRzFEiW88Fra9LMimRbx8j+lMTvhwu03ONeGRgU/PRQb3vVLAUeLDtGVEl7+p9Zt6HQBV+kvFqKNJ6l6HDudx8mz8rPCyc/7hWgRr76XacmGL7y2gV07PLhll8+i2rVPviDh5X/KNBUa9L737okcTp0t4Fd/ye9oG9K4u/73aNztDNoZdys2pHG3vdC4uz7KmM3pNiQ2ce7siHAMDTr1eQCHASwAOApgDsAnAOwDsLuqjBM5pNIiPnWD37J6tkqTifhhAD+DfH1xyNf2CQD79cpw6mTnJ+9l6k3E57F5jfOQ7TYL+frm1Ae+eSyL1fVSN9vwCIAI5GvUteHfvpzqRhsehXxtDW2oDEIAOPIB3cCGcWxe3xE0sGF0pVhph04cZDWx4fOQ7TePzevbB40NX/6nNG6/wc/EhpKH7X1w6myhco9piGPzWXEEmza8B5pnxUK0iBfSzrRhk4n4UejbcD/k61WVscHMhqwxYEPleThX/ldjw5NnC4glxG624VFsPu+VvjSiLuPQka604Tw2+9KjaGBDxXPHic/7JjY8DP0x2z6obCgLuM4dszWx4WE4bdztcQFZ4+IPjburxt1z2Ly+OfWBNO62F1bj7vNxCbdf7zyBmuW4+1M3D2BkwNLqtgSLcfer72Wwnudw0+UkmzkdshDRkFNnC3qi5jyAh799MHG43vceORDeB+AxyB0EAHmy43FzjvICyBck/MM/6Xo1fB3Ak98+mIhr3j8CAI8cCEcAPAT5GitlvfBaGv/qrqCjJnN1tqIdhWzDI5r3ldcPl234BFSD5ZNnCwgGeEd5AaTKExQTNjwM1LfhP/xTBvfuG3CUDet4iB0B8PUmNtwP2YZzyodOFDfrDK7iAJ5CYxvOQbbfAW1ZThNV6gyujqCxDfHIgfAByNc4p7zHzIY8u+01sUQJb9R6psQhX9+TOl85DODxRja8d5+zRsmvvpfRE1MOQ+5L5zXvHyn//0DZhk9AJay8+l4GwXJcPKcQXSnpiSlxyNd3sM7XFBs+AdWEJ5aQy7rrlwLsK6rQQvKrOoLYQcj36bzm/SPl/x945ED4Icj3aUT58I1jWQyHeUdNyOsIYvOQr+9gna89Xm/MBsBRokoDUfMgGthQ9bx/EGUbKmU5TVRpYEPnjrtNxGu2Ytz9hX0DjtouanLcrdA1427ld6dxd9X7QJ1x96mPs5iMcD097v7JWxs9Pe5+73gagx5nLmYSmzjnKUA4DmViouEggBsaDa4A4NsHE0e+fTBxB+SHXIVjp/Mtbf+yildr49zFIV/f4zqdeoVvH0zEv30w8TiAGyAPOAFsbo9yCtGVkp4wffDbBxM3NBhcAajY8AbINq/w7olcJYucE3j1vZqtWvMwb8PKccm0WM9TwhYWokW9LRRf//bBxB0GbHgY8vUdVL9fR6CxjZ/U2vAojNlw/tsHEw8AuAMqG8YScjwkp6BsX9XwsEEbHoRsw8Pq9984lkXK5NYhq6gzUT0K4LI6omYFlQ0fgINt+O5HOb1n1wPfPpi4V0dMqaJsw8sg/yYVWtnubRWKN7CGo5BteLDRd8s2vBeyDSsosVMtw6Qw/+5HOW2/F4dswwcM2PBJaGzYQKCxhVRa1FtcOAy5Lz3Y6LuqMdvD6vdPni20tIXPKurY8I5mNtQ8748q7+cLEn7ynvmtwlZB4+7Wxt2vOsiGXTvuFo2PJ16u7ffm0ea4+/tvOseGVo2755edMWYD6o6772hn3P3d15zTzyxEi8zH3T98J4ePLjKsJMEcEjaJurx5TPfB/ECjDk9L+QFWNVBuJd6MFURXStrBXhxyp37UaBnlY6s69+hKEadaiL9mBT/RGSCXH0iGKR9/UP2eU2x46mxN9sU45MHVUaNl6NlwIVp0jHir81s/XG5XhigPJHVs6AzRSGeiehRyO5w3WkZ5kFJlw2On846woZJIR8MDzQQ/NWUb3gvVIKtOuebwsdkadexMXjtRPQrZhnGjZZQHkveq31O2UtpNqpzUQcMDzcQiNeXf4g5oRBWn9KVv1sbyO4rWbFj1fDl2Ou8YG+qIDfe2a8NkOeO4E9BJwHK4LLzHjZZR7peqbGgksUsniK6UtO0wDvkePWK0jPJzpcqGTlpEoXF3c8rHVgljThp36/zWTMbdOuN5dqTSQN7Y71dn3N323Gl1tYB3Pra/nwFqbbhecn2dxbj75Xec8aw4djpfNe5OlFxxmLfhEWhsWExkHGFDdegthaW8r97uIV1U4+6DynteXnSMDQl9SNgkdImulLQPrqNmH8wK5Y7ksPI6mRYdMQCpIzYcNVtOeaBcPSF3wCD51NmCVmw40oYNH4DKTT+WqBmc2oLO72xqEqdQtnvNZM5udGx42MyDWU3ZhkeV13KGUfuFvzqCUdxsOWUbVnuqnLHfhsfO1GSZPGhGTNHwAFSeKifPFmwXjfIFSU9saLUdHoHGhk5ohzo2bLStty4qYSyuvOcEG6bSotazIQ6ToqZC+Xep2FDJtmo3OveR3la0ppR/k3uhWUSxW/jTseE8NM80o5RteFB57RQb6vTnX29xzBaHjgBvNzTuNo6qHTYqu+MsRIvahVpm427LbJhKg1uOGz68zrh73uxpu2XcnRGFI//1r2OPt1KWdtzN5fKOEP6Oa/rzZMnVztypasz2xofW9DOCwGN0IqL7z+2pDiVy8myh6pmcEYUjz3z34uMtnvphqMbdvkIWr/zCOaFLiGpI2CR0ObVYM8h7WO84E1R93+5BcixRM4A80mybTyPKE6SDyutkWrR9q+/8hZqHS0uDKxXVW9Rq75GOEkuUtKLfwVYmqgpl+1e+H10p2i446LQTpu1Qp513lIVoUU8wOtpqeeXJ3BF1+Xbb8FStYNSyDcsDT41426INGSUO0rHhU61MchTKXhGV72sHqHagI/o92WpZZRtW3QPzNi8S6Zz/4VYmOSqehEa8tZN8QaoR/cx432gp399Pqcu3e6FPpx/4eps2fBgqG9otiqXSovY3PtLqIh9QOyF3gg17fdydSouWj7t/vtRqaWzQjouX8r6v1znUKFXj9tdPMR7PmBQ1tePuWNF9hOW4m8vlbbehtp38LB1q14ZV7fCdX9jbly5EizU2fOa7F4+0Wp523O0rZPH2Its4mz6/BzuuncLo1rDuP7e3Ot62WrjNiTxeWBtt2Yb64277BXhCHxI2CV00E52j7Ty4gMpE4KDyOpYo2TpZ1fFUe0rvOJNUlbFwwd5Bss4kYL6d8soTgSN1yu84pxZrBgfMbWin4JAvSFpx/CADGx6BavXYbkFloVZ8P8ig2L9Sv7DTKzWVFvXE93g7ZZa9qeaV1y1fH6PEQToLKE8yKLaqHdppw+hKzbPqKUY2rJRh+7Oi+vzxNjyKAVQmAlXCn9021MDiWfGk+oVOO+gommucZ2TDShnJtGjrIpGODf9K7ziTHFS/0HkedZROjLtjG+2U2B464w0Lxt32i0YKGZE/2o5gBFRsWCmjkMrhfJLR1N2kqAnUPqvO573MbXjyvH3PCu24+3zee/S1/7FwpJ0ytePuQirPzoYtoG0jRzcGWdiwqj8+eY7ds8Ln92DbFVvAG0xQph13x4ruowv/78kj7dRBO+6224ZEfcgqRA2ptKidyD3PqOhX1S9iCRsHybGaidzhdsssC3/zlXM4ayLHyoZV5dh5jZr7Z74dTz8F7X2guU86ik77YG7DfEGydbKaTFfH9GtXuC1zWP0itt6T7fCw8kfLnuEtZJTWYzVRE+4izqDYw+oXdtqwThZ0FlTK0XgxdRzN+Q8zKraqHDt3MOjcP4fbLbN8nx9RXq/aOJ4Ban7fw4yKreqv7ByzWWTDeVTFS7Vwsb1Jf2vhuLuqnHzGxuehZjxlxbiby9knbGqf9wWJt8SGTK6xBVETqL7G9ZILP3z23OF2q1K+DyqV4XL2eRZr+zgRHHMbenkR5+P2Ofao+7nlggdHD505zKDYqjJYjdlC4UCVqJlYTeHEews1/9LJTQ9KrQ3jJTfzcfegUMSJGG1HdyIkbBI16AzujjAq+qj6hZ0THU2M7KMMi57fPIf9cVRUHHVYOW2jEeTmGRZ9RPnDYCx1S9BpH/OMij6ifmHpZK4J2nhiLMosCw6VsuycjCczNec+yqjon6lftLTAYHD1uxkaj9RX6x1nBq3Abaf4ni9Wtw8WCyhlFhiVwxom9dL+TtrfsZNo7x9GCyiA6n5POsub8Wd6x7XAUfULexcYqpOTMVpAATRxpy2jiYe89jl8qeA5yujM81UvbMzKrB5PZUT+KMOi55U/3o86Z1qbZXeNVeW8db7NRUkToiYvVG8pVs9r3Jx4FOyolPX+BfsEI+24e63oOsqo6CPqF+fXGJXaAup+riBxR1mUacW4OzwcxNT2sYqouba8juhCrOn3tM+poxuho/pHmqbquZpatz/PBFGLc54ARM/jpImOhRxV/mgq3LpotachfOMYLVYIKk7CQkHFqbAUeuIMy2IGw8n4fLsFSD4vg2pYyhHlDzvFdwuZV7+wy/td57zzNlTDUjT3zxGbqtFJ5lkUwrC/Yk2cYVmOXGAYd+fjLMrRjhu8vHHBwcpnhJ8X4wyLq4z/xtz2J4FSYGVDlnDxpGFR0+f3YGLbaNV76nlNrOgxVpCVMJ5HacfdP0qMxJmewGFsiEKcYXHMygoPBzExO1J5HV2I4eJSa2rwpQKz+3SeUTmEhZCwSXSMRw6E5+yuQweYU/7wuJsETyZhszHexslNNL/vJyytiwN45EA4YncdADQVnGuPp8eMBUTaLsGsHTvPnN0VsJg59YtQwB57jIRr2uecDdXoJHN2V6ADRGw9O6MwF0T7tDVuMGFHyd7nfGX8lxNpvFEhmQbETSGbW44Da0lDX1W2AAuu6t8zFNh8PeKyN54pAEihgKXlT3uylpZP1LJleqhG1EyspmysEdFN0BOAMMJuRuXMqV9MjDhm8DtnRVkjYUcJlxGHldM2mt93jmHRLMtqmZHBmvtnN6Oiq8oxnRzb7BcaHK8eJAO43WRNGrFv8xz2CbEeV/W5HzkQ3s2o6KpydMSp5jDKiq5hlmFZc8ofE6PW9aVmJ+QMF+jC6hfBgD3DMZ0FuLDecWZx0kKm5v6ZY1g0y/u9ZXTa/24W5Wr7K21/VhdGYS7UaPrxfQyLrjx3Qla3wQZ9jU53vJvRWavK8fgMjrt9XnPPQpPPk5zI7zb1hcbMVarhNzGvMOlcYNaDdT7n323qC/WJqF9MhQx63RZL4BYvgVuOgzu3DKTShr6m3QKsRv2cykvcbmMVMcSc8ofh6wOYL6Jo56WX+9K7GRVdVY6hayya3MUhGvvd1P1cWCjuNneShlTKGh1orYCJ2REMjQ0CAMSSiLOnLpoWNbXPqd0Dyd36R5pmn/qF5c8LoiXIKgTWC9WdgM4kkpXgcI/6hVZweHvZw+g0tTS5xjkWk7Dyyvhu5XUnr0+LzkTnHr3jWqCqnJYEFYNImoHyubR25bjq993NwqOxfB/MKa+1baFtG/rqf//cRvX1BWsFOVY2rGrPWgHeyvtUa8Ph6vtnN4tzaCfjWsGo6fWZmaBp7Km1oc7ixj7jhTekci943FyNOMX0GpswMVo1EdjHosxHDoT3q1+H/BYOVbT9jNaGtQsM+xideb/yh94A+aO4dQt/tX1p1ev9jE6zT/1C+ztaen0aG2rvH+391Qb7lD807QBA52yo0wewelbsU7/Q9mdWXp8WbT9uxSLRsIXjGQC1fY3KhjrPCkvG3ROR6g/r2VAa8Jk7i45IqG2H6vGUlxcjn/9XE7vNnaQW7bhbe31Ag/uUwa6pahtWX++4O2+JDbX3acN2KIqyoGkwYLx2C/AHi5mqz9Xj7rBQjOy85/LdhgpugHbcPRAy2Jd63Mx3BGnnbdOeHCsbVpUzMNi87+RiCcNipXz8uu772naovn/G3XlWNtwNlQCv15c2uk8FgcfE7AjCw0EAm6JmOmXMY7ZRX7rFzcyGlXaYE3lMDFV/2MnnIVEfEjYJ3caoGaTvZ7QNdr/yRyjA1wxUteIjSz5KVF+jzmT1AIPTPKR+oV35q7o+a7ylVMVz2s69bRuWv79feT0SFppvt28HzaDzfLr6tY7H70MMznpA/UJ7n1h5j2qvbyQsMBccygPISjmzE7Vtv+E1tnLfqlbUm9gw8siB8AHzJ6jhQfWL2a2dG2zUXN9oTRupqlsrlG24W30O0zAMg6GzSLSfQbG/3uAcbNFsydezoYZf175hlkcOhPehiUdqsmDd8KzJNc6V69cuDW2od32sYvp1yIb74Vwb7mbkMVvprzxuzpANgdpFSRbo9OMs+tIDUE3GLd9FpPEuq7Vhzbh7jsFZ9yt/SIJQM+mve48GWhA2NSJTzZhGM56acOfabofQjrt1Fhh0r7GVvkZnYVp9jdpxtwCJ+bg7y7tx2XB1HEhW/YxeXMMPNcKmto3cPrjKwoYH1C/mxmqvR9+G7BfhgwG+atzt4cX9wt3XR9opU2vDBLzYOWLAGzOdlT1uo7Hm/xYv1vXIbTZ3utK/wcKGVf3x8HCtberdp4LAY9sVW2pEzWzGeLxc9TVqx91TnhwLG85BNe5OcLU2tPJ5TxiHrEAAqBU3r5ypGZg+0U75jxwIPw7VJEBPUGG92qGeJGnLnp1w1QgO7Qwiyw+uqkmA9hqrxNUOxCO6otqGEbQv/D0E1STgitp7hC2ayZFBG0ZaPV3Z/sZt2CoNbK93jSrmHjkQfqjNsz9WVeDWWhs2bIctTFgl92Z52rLnavuBx9q04W6oBsmhAF8zkXtrpck1mN3apBEJtd6Sc7U2PID2qOqLr5ypHUC+tdzkGpvErzWDzrPiMb3jjFIW1fYrr0fCgrXbtHXuabUNdfqBfQyEv6rf6IpWbNgG2ntU5/wsbLhPea3TVzdvh22ivsZgbT+wn7UNddqBvg3zBVNeOACAYm32Va0NdfqBdsdsB6Aas+n01fVtaMH4Rmeh70A7Xpvl50z181DnGlkiDfirXtfakHlf+hBUNrxurlZ817Whz9va4peO0KS+Rm0/EBRKB1iOu3Mij+tmda5Rrx22uoVZ87yo7Us3Py8nanqotRNVeAiqcbduP8OgL52YHakb19CADSv1M4t23J0Tef37VMeGVsXXVD/vB4UiHppYeKjNIqvHbNtM2EsUgWyu+b8m29bVNtT2c9s82QO3/cvZOeOVqqZswwPK6/WSC7ftqE34qGdDRdT0+uX65TJ5nD5+rqGoGQoHsOPaKey8Ybby71JkpuqYOY0NPze03FZfCo0NdfsZi8c0hDFI2CQAAG+tVD+cdSYiB1r1xCkPPqtWc3Ztrz7fj89bkH1RNTB7S2dr5q4dVe9FADzdxtmehmrwsWuHp2YiV3WNHUgcdOU2t7YOj7U6EShPAisPBo+bM/dwbhWVOK21oU4dImBsQy1M7tMG4qC2HWrbCdqz4QGoBh96wm2z65NaEcRU16u1YTDAa204hxYn5OXBdZX9b7yq9nqYX6Or+jc8oRG/derwRJs23K+8DgV40zYE2HpUBQO81ktm9yMHwsxsqNMG2KPx3tHacNf2mt/0UKuTubLYsE95PTHqqvGEs+R5qOKEZoFhYlSoCSnQ6iJK+Xc5pH5P5/fTv8ZWPHDqeF7V2rCm7KfbsOETqPKadtWI73VtKIrylkGD4ia3HNedtGonibMTrhoP/1YXUcr9U1UbNtWXWuBJVacOLdsQ8vXNKS+u3Oa2Ps6tz1Ml+urZUGfcfaCVU5VtWDWZ1+tL9Wwohfw17xlBb/u6drJv5bhbZ8xb9x6V/C32sZp7W2vDOuPufa2cSjvuzok8brqiVpBt93mh3QI8fyJaFddQbUOPm7PUhrMzXoQ81aKY7vV53JbtfNO2k5zItzPu3g/VuDsn8rj1ys5LL2obasfdXl6MXB9ItjNmq3reb53019hQLzySz++pETXPnrqIUqn+s1GJ/+rWLEwcz4SqXmufFds82YdYjbvXSy7cdHltO+xkuDmiPiRsEgCA5xeqByQeN4e9u2oGKU+bfUCXO5JXoHpw3bjTWzOAfMUqYbM8iEwWuJqH467tHu1EYN8jB8KmH9Dl7+xXXnvcXM2D8XxaqPZWc1svbOoMQADgFbOde/n46omqjnBrCaqHl54Nb7zKq63HfrM2fORAOFL+zj7lvVCAb27DVmngKaBth8EArzeIbMWG+6GZqO7d5auxYdN2aHZ7GlA1ETBowwOt2BByP7NbeW8kLOAKjfhuyIZmr9FffZ/o2VBPgG/BhgegmUDcUttHG+tLGU8IbtlVc86HzApjKhvOKe9NjLpqbGgF2gm51oYTo4JWQI5AbocRM+cp27CpYGTJ81BFvXao4QmzoorKhhHlvdmJWuFWtx22ek/WWSTU2vCKbW6teDuH1mz4EDReWDr3f2MbptLgFi403164cKFhwg+tDXX6g6dbsOFu6AhG2jFb3b7UwjA7V2xzaz1vd6M1Gz4NzSKfXju0hGC1aKi2YZ1x9xNmnQr0xt27dniM2ZDnW3vOA7rfMzrubtGG+5XXHjeH26+vFRZ022Eb16jnJai1oc64+xCLcffea9wY0SRlaXdcqhfXUOstp2fDdsfdQMWG+5TXkiDg05+ovRY9G0rhFrPTGCAY4HHjzs1zlj1vWxl374NmzHbtlf4aG3aC5+er73ftuDvAl1qaO0Ez7s7ybvyLG2ulJe3zWCtqplPZpqLm8NhglVfx2vI6Vi4kKv/+VzRY+UxHvAVas+EB6NhwUpP86XxasHSXDWEcEjYJAPIW0ZotFdvc9SZzjxsZhJQnAFWDq5GwUCMY6U2ytHHPWkY1ePnvv6gekHjcHD51Q83K9IFHDoTfM9L5PXIgPPfIgfAr0MSHuf0Gf41gpO3UrYhBpceNV3m1E4EIgPeMig7lEALvQR2HatTVsUmAdhCpZ8Pb9W34ipEtTqoJwAH1+58yYMNWaeQRqNcO69jwFSM2LIu2j0MeIEeU92cnagUj3XaoxiW07mncoB0GA7zeZM6MDfdBM7iS23atvZraMOAzvY1SGxdQz4a37PJpJ3O7IdvwQLPyyzZ8AprB1ZW1/TM2RAGvXmzibcPzzD3GR8JC1USgzBOPHAgb8mws2/A9aGx4u44NLUEjNujZUKdf3w3gYyOig2rxpNobdYenRvTbEAUc57eaqHxraNvhxKigNyF/2qjoUP4dPkaNDWvvR9122KKXn+TX/56+DWsWc3ZDfh7ua3aesg0PQStM76zpn5v3pQrNthc28erU2nB2wqW3k+LpRw6EnzBowwPQ9KWhAK+7gFK3L7XIW1PhU/o2fMWgDXXHbHt3+az31iwjhYNVr7U2rDPuPtTuuFtvzKZrw6C/9VACOoKhth3WG3fDoOhgZtxdtx22KtwCsnCveX5qbXjjVV7tIkoEcj/zuJFTlG1YNe42ZUMDmIlrqGfDdsfdjxwIvwetDW80aEOXAASt2YausGu7h8W4u6oduoNe7LvWeqcWPc6nhZrwLKzH3YDcDrXemlobKqImL8j9TGI11VTUnJgdwfi0nK1HLIk4d2YZF5fWsBKNV/79z1PVzz6dcXcEbY67xYAPd++q1SdYzQ+J9uEkqTYOQj/AcR3wNusQwt3XP47ydgV+rHXB7OaxAv7iU2tV7+ULEl54LY1YomYr1DyAwwCe//bBxBHlzfLAZB/kredz6i943By+sG+gZgD55x8O4M8/qF7CkkbCwCCDZa1UWt7KVeYvPxXHnrHqB/epswW8+l4GOhwG8FcAjnz7YCIOVFao9kHOjnZA+4Xbb/DrCkafeXEUSVVSFmlmS/viQjYPLroCQN92Ck1s+BTk6zuqvNnIhiNhAZ+7LVDXW7PKlkMhSJGQ7nFm4BYvVm3FM2nDgwCeh74Nfx06CXmM2rAe0sRo48ldsSRfUx30bJlKi/i7IxvIF2r663no23Af5Ht0PwzaUK8dVtGOPQ20w5+8l8HJs7qZOw+i1oZz2LThPu0XWrWhNBZpacDMLVyoEiH0bBhLlPDCa+lWbHgAqsExINvw3n21tnpubQp/c3608SDR54U0MaL/WRO4j8/r2k6hjg3jKPelmmfFHBrY8HO3DTRMGnT9/xxvXFmT9yu3HK/yjjNpw6PYtOG88mYjG165za03wcdza1N4bm3S0LasdjHRDuMot8M6NnwQmgmOx83hc7cFdEU/vXYobRluTXAQRbn96aBnw+hKCS+8tqF3+BFsPu/nlTfLNlSeFRH1F+rZsGlfyhA9Gx46sqH3vI9D34a70WDMZsaGACBNjbXutWlwTNPgeX8EGhs2G7PVs6FCXVu28TzU9jVaG3Zi3F23HbY7NlXZUEHPllaPu4H6tmvrHgVqxjOAaRsyGXebGZeq0YtruHRmGYV8bSxfBZM2PAgG426gzvyw1XFaNCYvGGmoN6bpxLhbTdMxTZvo2dDqcTdQbcPwcBBbpoeqRM3oQqxhvY14FStobcl63M2yHVYoSBDjlbZ3R/EHPzvSWkEEQMJmT8BK2AT0O/h8QcLL/5RBdKX+Q68ZI2EBd/2SX3crzBf/YZj94EqFWnSoN1hu8IA2TL1O/Zs/C+Jv1Cu6LkG+vnYxOAkAGg6yDGPkwWyJsBlPAmvJymtH2LABTYVN1Iq1WvTaYSot4uV/yrRlw4lRF+76pdpV8XrtUE1bbVIUwS1eatoO3/0oh3dP1A48jaJs5WvJhm20S+1EFdC3YSxRwj/8UwbJdOti1eyES9c7ZbnoxVeXrsWGKDQWxVyCPLFrwSunmbAJNBwoG6KemKKFtbCpt+BQz4Z1BsqGqSemnE8LeGThapS88me5TB7RhZip7KBmqNcOrbShbjvkeUizrXup6rU/BTts2KwvZUm9BelX38tgIdr6mC0U4PGrv+Q3bkOg/bGNiTHNqbMFvHEs25YNb9zpbbr7xAphU9vXXBUp4rlfWa06xMpxN1DHhsGALBq1iZ6A9OTeBO6crH7PyjFb3XbYxsKeGu0Yrp4NrRx3mxmXKuiJmkYX0Bxhw3bGaSaFTcDacbcWo8KmIPAIhgNwe82FIHB7BPzh1Rdw80B1v2rluFttw/BwsGor+aWlNawurzcs24yoCei3QyvH3UBr7bAKEjaZIjz++ON218EWvv71r9tdBWbwl2/Zh/LqCTfQnhj41rIb98xl4VUVIwjlJC2c7O1gll07PLj9Bj/8vtrB1UNvRPBxUlPngI+Nt2YZDhKQlTvC82kBIY+E64erJ20jYTmG2vKaiEzO3EA5FOBx1y8FdDO9v73swTfe0wx+A35AJ8i6aYolcOXJ3NSAiHtms3UPFQQOV895WrbhjTu9uHOPH4LQ+MH89opnc7uD31s3sYMpPG5wic1A5o1sODHqwoVYyfRkZyQs4DN7A5jeYtCGjQgFmgqAXLEE5OoLB3rt0OPmsGPKjZIIXFozZ0OPm8MnrvTi9hv0bajbDtUEA/J1tQrHgSsU5YzAqG9DOZFKazacGHXhzj3+lm0ojYRb9+LwusGtV3uB6dkw4JPj/mRyEmIJc4Msj5vDzdf4sPc6n64N//1PB3Gu4IPP74HLLSA46EdyLY2axUtRAlcSW+qDuHgS98xmMTlQ//6bnZDj4C1dKsKss+HEqAuf3RtAJNT8OfbnHzZ5Rpjtf3genChWtct6Nrx6zoN4SkQiZd6Gn/yEX2/bPgC5Hf58KY/goB8utwCXW8Dg0AAyG/mG3jStUq8dzk64EQrwiMZKpm04O+HCP79tQLsFDECDdjjQ5jNRp/0p/Pi8F/dtz9TYcMeUG7F1ESmTkx2Pm8OdewL4xBX1bdiwL2XM+bQAX8CDGyKbz39BkJ8VHjeHS2vmbXjlNjfu+qWAORuizT4UMDWmGQkLmB53IZGSTNtQGbMZSYBYNaZR0874hufBcaiMS2NZHuBkMVdBPe6OJUTTNmw07ta1Ic9D2joMsHD6cLsqdlR47WJtO7Rq3A3Ub4fS2BAbpwmvp+oa69nQqnG36XEpALfHhZnLx1sSNYH6NrRi3A3UsSHPA5pwDkbh4klArK1jozFNO+NuQLZhvXG3lqZjGsjbuC/bOYHBoQEEgj5T/3x+D36WCeOuwUvwcJu/g1XjbmDThsNjg9i6bbjyfnQhhngsqfsdQBZvt24bNiVqAvrt0Mpxt6F26HEDbnd9ZxYRkLKVev3VH3z5d+ZNVZKogjw2ewCWHptA45XyVFrEsTN5nDxbaNgBetwc5ibkWIz1Yhc9+vagblwKlt6aAGq8xYDGK3SnzhZwcrHQdKVciRdaL7nFR3EXfuMnQ+y23Gkx4d2gJpUW8e5HOcxHi23bUIsVHptArdcm0NyGx87km66yToy6cOWM27QNG2HEY7PZdnSgeTs0asMrt7mxa3tt4gCFeu1QDZM2adAjTsGoDWcnXNi13Vt327IhGzLw4uAurgLp6ol4IxtGV0o4tZhv6hkXCvC4omzDeiv+ahuqV7gbTlxa8M4x4rGpkC9IOHm2gONn8k1XypvZUA/mHpuA/KyIxioCPNDchsfO5Jp6xhmxoXbVX21HQJ4IqDPVsqSeTfMFCcfO5HHqbKFtGzbyZGTRvzTy2mRlw2u3e3QzLyuY9dxwe1wYnQjXZHg1gyDw8Po9eHzyBK7x1U4Uzdjwym1uXDFTG/dVoaE3KoudKC2OaYzasNmYTQ9LPDYBua85t9w0zA7Adtxd14YMx2uA+echq3E30KAdDg7I4jsjuFgC0CyoNLIhq3F3K17h2riGqUQa0YWY6VAnzWzIYtwNNO5LW9qKrhM+QMHomIbluFuPZmMarQ1boZAvYiJ5Dn928yXdz83YcNd2T92FBWDThmbHMnpexWZ3rtSzKctxt6F2yPOQJkbAxdZ1vYUBkMcmY0jY7AFYC5uAvIL1jT2NXcRjiRKiKyXki5v3kMfFlVfwGk9Snl/w4dG3B2s/YDy4qqB5qIXcEv7yU2u4KlJ/EJUvSIiulBBbr+7gRwYFjIT5hg+sZIHDb/xkSDdboSHhywgtTgLURFdKiCVas6EeVgmbeuK0ERum0iJiCVHXhhOjQsOtIY1s2Aij9q23LUaNkXZYz4YTo0LT7bx126EaRtvTgFqB2hE25Hl5a7YFwi1g3IbRWPVvEPLzGA7zpm1oaquZSduaETbVpNIioislJDPVdZgYcWEkzDfdoqWHJcImAOQLcttU9TXNbJgvyJ4ArGyoMDw2WAmYD8hZQC8ume/nmzG9NYA/u/kS5jz1M3DHEiWsJsSWbNiwHbLqX3SeEWraseHEqNB0gmqoL1UhCDx2XDvV1iRVjU8q4NEtH+CKYP222ciGzZ73zfpSJuOaNsc07YzZ6mGZsAnUxKM08jxsZ9xd14Yet/wMZEmd9mikHbZjw7rtsI0QLI3gzi1XLYQZsWE74+5WxqV6yVqaxTVsRDMbNhqztWVDNR63cVuKYpWNtLQypmln3F2PRmMaJ9mw2bgb2LSh2a3k7YRKUGO0HbY6ZjPaDhVHpobzPRI2mULCZg9ghbAJAHdO5vCNPesIudneI3U9xKwYXKnQriCH3BK+sWe9JmZMuzTzEHOSsMkay4RNAEhnZRuqsMuGjTBsX50g+3p0vB2q4XlIM+PsJgM6HnF225CZBzUArG/IXhwaOm1Dq8TNVoVNK7BM2AR0+xqrbNjMy08v2P6lpTVmSYWUuFcDfAm/PnIW+0LN+yQzfBR34cE3wjif1pkosO5fmvSpN48V8OTeeMdtqEWvfbZjz1wmj5VoAgG+hK9+ItlwC3crNLQhwM4TzuljGjUWxRAPuaWO27DtZDr1qNMe7WiHTJ/zanQWNO2wYT1YC2IKTulLWeD0MU032vB7H8vjimBYtqVloqbPC/g9QDJds9Xb7nao9iwmYbNzUIzNHoBljE01Hydd+MGiDzsjpYYx1YxyPi3goTci+PF5nbhEHre8FdRKwTngBZfJQQlWlBc5/GDJh2SBw/Ujhaq4Ma3yN78I4NG3BxuLKV434GUgbJqIR9UpLImxqeB21cTAs82GjTAQYxMA4BLAZfMNkwgBHW6HGqTxIbYTHo4DfB5wG1mgvKhmqw2HQkCIYfZirwdcvgAUqleBO21DSZKQXEtXxWqsG3MzX5BjvhqIcWgkxmanYB5jU43bBbjL7bP8e1llwx8sNf7dc5k8NtazGBwaAMdzlRiqqUR7CRsAVAXzzxWB//FeDmtpkXk7jOX0hUtpNMzmWajgEmS7pfWfhefTgi02VKOdvCVWU1g8fQmJ1Y2W/22sZyFJEvIih1fOey3pS+vZEB63LBqxIF8AtyHf144c06hhNb7xeeX7VTUu7aQNpZGwNYIfII9xVLFEFWxph4MDbENcKfC8LE6rsKUd6hAeDmLm8nFwvDwOYiWIAc7oS1nh5DGN1oZry+u4sLhac1wrWGXDl6MBbLtiCwJB2ZaFfBFLpy81FDVbiv8aDMjPHp8XCAdr5lN2tkNtuAQulaEYmx2ChM0ewCphEwCSBR7PL/hwPi1gZ6TY0spOssDhL08O4KF6KxyKqMl4i0gNHAcE/VXiJgC8v+rGDxZ9CHkk7Gzgtt6It5c9ePDNMP5+wYe82FhM4SS0l4hFod+ETUB26S+WaraVdNqGDTEqbAKA3ys/8Jp4znekHWoJBoBIa0HaGyII8iKDStwEbLBhMMA03lYFzQKKQqdtaFrcFMWmE9y+ETYBWdBXbFlOOGBLOwRQLJawvpbGQMgHl1uAz+/ByoVaz2AzqEVNtTdFx9phMCAvLLDG424obtplQ4W5q7ZWTd4WT+vHOmsHVjZ89J1BPHfGX9+GShgPRgvS3Op6ZVHIkWMaNQzHN5wo1oh/HbPh1vYzhDeGq0kkBLBth4++Pdg0YRfnFtiPRwF5l0ZG3xOrYzbUQZuBOroQa/uZoaXTNrQKp45p9GwYu9g4rJFZWNvwbNpd43W5cPJCw+SHPr8Hc1dtrcSaTqeyWDp9qbmoqd1p5HXXzCuAzrdDvRiwJGx2DtqK3gNYtRVdjzsnc7hjMoc7J3MNO8BkgcNbyx68ct7beLtrwCd3AlaLmmpEEdxasiboNwBMBkq4czKHe2azDWNzALI7+lsrHvzNKb/pyY0T4lFZgaVb0VU0ShTRKRvWw7RtGwQ1r4fSDm8eK2AyUH9AZrgdaunEYoNOLEMFxYZ3TuabbhFqyYYW3psA5D5mOV6TPEGN5TYsY2Z7T7Og/NzCBfzlJ1cdvW2rAisbN7Blp2yoMDoRwehWWYw/8d5Cy+VoJ0xnT11EOlV7fZa1Q4Zxe+uSzsp2qxNzU6GTNjSc2IshltmwnBTBlEe/KAL54uZCippMvmqrniPHNGoYJJxTaDSeAax9HjILjVQPg+ObjrTDgE/eMcWKQqmh3dRYPqZRoSeIWZV4Tk2nn4escOJWdLtsePNYAZ+fzbRkQ5/fg6ntYxWB0sgzrqVt9o3GDw3mFYC8Pf2e2Yw17ZDn5XrpOAjQVvTOQcJmD9BJYVPNZKCEqQG589gzlsdHcReSBR7rBc5YYGurxYVmZPOywNkggcvNY7Jn4GSghJBbxEcJ+fc9EXe1vlUZYBNPVCVsTgZKuGfOAd4Nyx68tVy+By22r15GSj0ss2EdWpkoNJvYNKLtdqilUx7UgCEBENi04eXjbkyM+bCQD+DsqYvmbcjzkEYGzWfUbBFt/LR6MLehBlbiJrccxz0jq87wbtATG1Qwn7A3eV5YbUOAjbDZzoSJSV/aCVFToViS+5cmSdoUrLShHaKmHkxs6PNC2jJk7hmRSsuZYZsIzQqOHNNoGQpBGhxo/VkpikAqoxuXuRFMxzQet7xzwQpxM5uXYxUbtLlCJ/pSu7FqXKp+RgCdE8S0dJMNHeOxWR7TmH1G+/weZkno1EwOlDBVFjf3jBXKNuSwXuBrbCgIPCZmR0zFAmcuairoxPKvB7N2qIRkqbNbj4TNzkHCZg9gl7DZMh633DFZEay8FbJ5cMm0LK6YHIC1RbsB9w0mn7GNTgjX2Ty45bWmcSo7SauCSjviJjNcgvxw7nTbNLDIALQp7NjV7+QL8oTeoLhiFUzETVEEt74he1c5GCk8YF3cuHwBXGJDtmeH+512hU27vEAANPRmsByD/YtVaDPDnj5+zhZRs21cAqShkPmFoRZ2JRAEYQ5tP7N0ZlnXE59wLmaEaUHgMT49VLG5UzAiUFomaqow6ljQFjwPhAeaznVJ2Owczlo2IXofngcGfHL8KyVger4IeFyAasVJ4nlZgOA564UInweSIkTlC4AogVN3QOpJfLFYO5n1ectbrJqvDlWxviFvi2nVe8yKQOgMkTrh8efzQJrZIk+c1pKOEjjNIo1F5ADhBrxQLaGTnppafB753Erc2MQGu0UGgwMPy1B+12weXCLV1DvVKkrlOIqKuOktDyz1xE1uOQ4JqO2beF7+HSOdqrUDUQRyQO7zleRLhVJ7/Y9LqJRnBbaJmkr7a8ezrV2U/iVfkBcxs3nLfmct4eFgldhgl6dmS3jcss38Hkged2uidDZPoiZBWIxW1GyWgVqLVV5/hHHCIwOGhWnttm+nsLa8jotLjUOIaMciRr7Tyk4PKSIvwnGxhDXj7mBAXuhz+Fy833BWiyB6H1HUX0HRrGTU+NO6BHmQ7XVD8nmtiwlUFlEldfkRg99twSuhroBgBJcgJ1+wekWqFTxuIOjv3PmCAUjBgBxXbSNrizcVC6SRsJxQyEBsOKYEA/IWbbuEBwWXIA9GXAKzybBtXmJafB5IvmH5vkxn5YQD2XzrdlYWfxTRQYkd3OC+ZyJuEpt43LLQybLM9Q3TW1ObEQj6zImayvM2X2itH+V5+X4f8Mltz+5+RUHZdqtQXsg0A5fNGX7m1kvQVBejE6UsQ49pl2DdxCxfkLciEwRhCVqvPbOipiDwmNo+VslgTdhPMxtqvTpzmTxWognbF8xymXzTOrS0wNpO+BplF1qxJI+P292ZyfNA0A8pHCRB06GQsEl0B8XSpiCA8qTC592cODmhgwkGIAEdFTeVFSnHiXhWBqNvRMAHSRGxRFHeAmz39m6zBHyQZsY7U3c7t4c2IhgAWHn5OO3aXIIchmKwHCNS6dv0EmpokJSsrnXal+Tzgju33HDgVk/c/PhEtOZYbjkOSZSAwSYZyAl2DA4ADIVNn9+D6e2b8ZybTiT0kqIoQpoogtPxdKzssACsFcpY08JuEMnjkidITdBL0NRIbGiWuKsKu56vZlDiJ+v0RW6PC6FwALzLIYI3QXQpobC/El6mkC/i3Jllw6Kmz+/BxOxI5fuE/TQSNd0eFyZmR6pE6LXldUeImkbouKipxiVslqN2LDCyc8PnBTwuSH6v8+YTRA0kbBLdSzYne0/EErInRihgv8hpg7jZVRPJTlIW7bhu9N5UBMehEJtVRp3ybd8eSsgo7dfnad/zzyVAmhhpmBUS0Bc3J2ZHdGMccbEEU6Gt5wn45LbrgHaljWNlZCIhDemEbFAJaVKfD+y5i80zdet5yDbz1Ow1z2huOa47adTekwRBtI/ZhGSBoA/T28cq7TCXyTffDkxYTr2t56FwoCo5j1gSEV2IIZnoDscNW0VNLWoHGGDTuUCLx+WIcRxhDhI2id4gX9icgAd8spu4XV4NdoibRH1cru4TNhWUVUZRLK8y5tsTOZUFgKCfHti9Sjk7Y7PEYlpxU9nK1jSAO9GYdBZcNGZfvNoyrYiasDLMSw9gJMO6aQ9ZdczWHqFeTDMSNQmCPalEGtGFmGFRUysyGUrcQtiCXoKgdCqLc2eWu8JLE6iN/3pxac0+UVMPcg7qKUjYJHqPdFZOTuRxy9lx7RAKSdwkWMLzm3FEgc2ty/lC86QlHhckr1sWLejh3R/4PLK3cpP+h8RNi8gXbBU3tQLSyoWEoURBut6ahEwq3TQ0iGkxmedrt/13O6m0bgK8lrLgEgTBFLXIBACXltawurxuY42IeuglCOo2e7WU1KqToibRc5CwSfQu+YI8sU9syAkDOu2JosS+NJnch8RNoinlFcZ+3xZKNCAYgCRKTRPRkLhpETaJm3oC0ko0buCL5K1ZF2Us0QC3x1Xzuzfd9m+zVy9z8gU5NrQGEjUJwl60SYIabWUWBB7BcABuL0kEdiEIHIbGBiuvc5l885AmZXx+D4bGQ7ZnTBcEvhK/lURNolNQr0X0PvmCvC3T55U7zA56rUmRELhCyXQSGBI3CYJom8EBIFdo2v+QuGkR+QK4i2sd88prR0CSQn4rq9a9FEtyzNoGCAJfFa/OyO8ujUVaSl5UQzYPLpm2LtyKx2UsA6wo6sb2JVGTIOzF7XFhevuYIZFJz0uQsBczCYKGxwYxPj3UgVoZh0RNopNQz0X0D9kcuMWLwFBIzibeIaSxCDiAxM0+gUukIPmG7a4GQQAw3v8o4ubczgm4PS6Eh4Pw+T1dE8fJbsSSiGQ8U+ull83JfbnFA/a2BSSx7dRVvYcogru42jCmsSDwlQUBwODvzihZELccNz2uME02By6VgTQy2LDOJGoShPPQtsFGSYYoBq6zKOSLiC7E6iYUUqP1yAXqJyLqJIV8ESvRBAr5YuMDSdQkGEHCJtF/rCXBbWTZeUwYgMTNPqKcPAT+3t7WKQUDFLOzS5BGBuV4rDpZitWUSiLOnVmuTG68PX4PsyYYDiAQ8taKN6k0OMDSgfuUSY9BLdxaEpLP07FnYjdQL7O3glbUTKeyzX93RsmCOiJqKoiifL5cQQ7ro1cXze9EoiZB2ItekqBLS2u6omZ4OIgt00PUXrsQbYb7bsuYTqImwRISNon+JF8Ad265o96bJG72Edlc0+y53Q63loS0ZRigOJ/Op5ykhIvGmoqb2UweH5+IYnQiTNvRTODze8ALfP1t/BaKm4Ggr2IrIxNSQeARCPrgDXggFkUkE2kU8kX5mejzykn3+r1d5wu6mb3VjE8PVUTNXCaPc2eWG5fJKFmQFaKm9p5Ip7K1WwfXN8Dli5C2DG3GBl3fqKkLiZoEYS9bpoeqYjSuXEjUjbWsFUAbHUs4i9GJCEa3bi42KYtrTT0knQKJmgRjaNZC9DdrSXC5gtyxdiCIfzviJoqljm6hJ4hmcIkNSmDkIKRmcf2KErjl5snM8gCiqRzgIY9co6jFnIbipluwtB9PxGozUqsZHhvE6ES4arvh+PQQUok0ogsxlLI5cNmcnJxsKNS/C2pNtuars7022t6phkWyICtETa23lkI6lcW5M8vV15XNgVu8BAT9QL5Ys4BHoiZB2Icg8JiYHUEwLPfbYknExaW1uonMtMJYdCHWNOkZYT96W8+7TpAmUZOwABI2CaK8dbhTW9NbFTexlgRXKNGDgHAOPe6V2k2IPzkJ8dWPmJXHz0Qg3L6DWXm9TrYsbmnFzZqtf2tJOYSDDYJho8QCwXAA265w4eMTUfmNYokW1OoQHg5W7FvIF42JmgzGF1aJmmpvLTWBoA/brthSe32iKHtqajAjaobCAQyN031FECxxe1wV7/1mSVvUizPNBFDCOehtPV86s9w4pqZLAFwMJR9RbLr7pyGDA7phTQiiXUjYJAignDk9JntUOFnc7ECsNoIwRb7Q/XH5snnZS60JEs8DDo1DKM2vsC0vb1GW5R4mm8nj9PFzVdnlfX5PjTBkR3gRt8dVETXVk1if34OJ2RF4/R54/R4Mjw1idXl984uZPBDpWDW7gvDIAAD5d6zxaNTD427b1lZtP9+iuidWogkkVlOVeyUQ9MHr92BofLCpJ5AZUbORmEoQRPvkMnksnVnW3ZKs59VpKGs1YTt6W8+bPYOkkTAwONCJ6hGE7ZCwSRAKoiiLm02yf7KCxE2iJ+hyYVMrGPj8HgQjcvvPpfNIp7KVQSNXPkYaizh2i25gIIDZ2W0tf39h4SzSG10SdN6BKNnlFXHTWxZ87BY3Q+HN86g9cxRP0x3XToEXeAQj/mphk6hLNpM3Jga0u/08nmw6TgiFA/AGzCX7cnuEihC5Ek1U7F4qxwud2zkBt8eF8PBAQ2GzHVHTCZl7CaKXSMUzSKymdMUubcKzQr6Ic2eWSdR0OG6PC9Pbx6oSOjbdes7zchx8HyWBJPoHEjYJQk05+2enJpzSWARcsWR+Sy+Jm4RD4DJ5OUN6N1IsVQQDvZhFgP4WLS62LscW7UBcXrO4BAGDg61v8XQJFFezXUyJmy5XRyYevGvzXtVuNyyVRCRWUxgaG6y5/wkGZHOtLwCl0nL4gjpova9aRStmy/fEBka3Nk4i1o6oSfH8CKJzaMWxZrGBhXJIlWDE38lqEjooyQkBg1vPPW5Z1HTReI7oL0jYJDpG2Cvh2jE5JsetM/VXB19flB+6ry/Zt8rUUXFzy5ChbMU1kLhJOIF24uzYTVHebq31YlDDl4UDQCUIiSK49Y2ejj04ILmwvTRs6jsFlPALIWFRjboLw+LmxdWqECjcctzyugkCXzOZVXvwEOzhzi0DAR+kAZ/xcUUq3fB+aNRvmcXtcdXY3t0keRiJmgTRHWjbqhFRk1XfQrCjkuSvUfiTgK9jCXHtIuwu4dpwBmF3EbvCGd1jEgUBxxIBrBcEHEuQON8vkLBJWMausSJunc7j1pk8rh0rYGbQYMy2Wzb/XFwX8PqSB68vevD6kgeL651bfeKW45A8buu32fI8pIkREjeJ7qSbhc0yQ+ODlQF8KpHGxaU1iCUR4eFgJS7hlnLm6MqAMrEhCxQ9uiIegBtXl/QTzTRimc8iwVFSKcCguCmKsujl8wLFYkVsZ00uvbmYOD49VCVAhYeDFU9N2hpsIeksuHQWWEvKcc8CDbxjTYqaRjOzq/H5PZjbOQFA7t+WzixXfaYkFkklarfBK+cnUZMgnI022Uyjtgrob1enBS/7ScUzzcPEDIV6csF9VziDz07EcW04g1tHkwi7zY+TjiX8OJ4I4LWVIF5fCWExTaJ9L0LCJsGUXWNF3H9tBp/ZkTUuZDZgZrCE+6/J4P5r5BWZ48tuPHPcjxdPezsicnYsoRALcTPUpduBAYoB0+1k811tw/CwHFi9kC9WTe6VQeT49BB4gUcg6ENSmeSLIri1JC0qaPCgd70EWkERN5UwB4q4GV2IVcc1MxuOxCTJRBq5TL4qqVEykYHbI1QELABIxGqzXROto47ZW8gV5cWRYgncxVUgGJBjems9azogagJyjNB0KotA0IdgOIAd104hsbpRc0+sXqreCk+iJkF0B9r2Z1bUbLVvIToMz8tj0UaLZV3GrnAGv73jEj4zEW9JyNQrb1c4g/u3yff/sYQfz5wdwYvRCImcPQQJmwQT7r8mg9++MV3Zam4V144V8B/3FfAf98lb1b/1RtDaLeuiKG8VnBqz3q2/XXGTccbUjtMH2yd6lnyhq4VNJYZcYrVW1Emspipem96AZ1PYBOT4d0OhnvTavOKKK/Bnf/7nho49dfIknnjiCYtr1L0o4ubE7AjCw8Eqz81OJm2ILsQqgpTiQar9vMZj02LB1bEU2/NQqh+zd2gzZm8qDS5fkBdPledeE1HT5/dgavtYpc9qV3hQ7gm3xwW3x1WVcVf5XH1PaIUPEjUJwpmYbX8kanYpLkGOp9nFSTwVwu4SPjMRx+/tjGImYO3YaFc4g13XLeEb1y3hxWgE3zk9jtdXgs2/SDgaEjaJtrj/mgy+sjfFxDvTLLdO5/F3X1y1XuAslsBdXJMnH1bTjrjZ7aSzsofs1JjdNSFMwuUKckzaLkcvppw6cYZYrB3gc8vxzvQNXcK2y7dgZNC6u6GQL2IlmuhKgUQRgMLDQfDlSWQnxc1sJo/Tx89hfHoIoXCg4nGXSqSxeilJ29AVRBFconXPVVMxe/OFzeeeAVHTqKekUQr5IuZPRDE0Pojw8EClv9O7J6wUNcPDQbi9NCUhCBb4/O6qhGLN2p/ZxEKEQ/B5IW0Z6gmHkN/bGcVv7bjExDvTLJ+diOOzE3G8vhLCn5yYIIGzi6FRBNESt07n8dTdCVsETb26KALngy+Frdmins2Biyc7E7uE52UPsH4TNgH5mlPpjiRtIhjS5fdqKpFGMBxAeDiItUvJKqFJ8dYEoC9AZXN0z3YQt8dVm8ypi7Bb3CyVREQXYihMlCreeerwCx0la/Caea5z3iii2HRhURAaTyL1YvYW8kWEh4PYUg5rURWzN1+Q46w2OKcVoqZCqSRiJRrHSjRe9xgrRU3Fk5kgCLYYyaCt17dcWlojUdPpDA7IsZq7nM9OxPGN65Ys99A0wq2jSRz6ZBIvRiN49OfTtEW9CyFhkzBF2CvhqbsT+MwO53l23Dqdx1u/uYxvvRnEt96wYJC8lpQTPHRiy6246fEkraUhLfZ2pmFuxwi4Afl35YqlnvD+6yu6XNhcvZSseDfM7ZxAYjWFQr5U5cEEyAk2amIjopzJOpMH3PUXVaQuSzR06tQp/O7v/I7p7yVWU4inrUk0IAgchsYGAchiSC6T7+hWblbYLW7aTtlLEaKJibPP2xHPaC623rA/m5gdqYh7Yp2Jf72YvYq4NzE7Al7gEQwHNgW/Buc0m/xDQR3fUyyKSCbSLSUBIVGTILqPVCKNlWii4XPF8IIJz8vxgF0kGzgCj6vrvTTD7hKeunEBn52I212VGj47Eceto0l868QEvnN63O7qECagHoowjJO8NBvxlVtS+OyOHA78fYS59ya3vNaZeJsqSm8vQbqYbH5gF8OvpSHcvsPuahDt0MUJhNKpLFYuJCoebPUm2kpsRF0PiCYxbrnEBqSZ8a4fjDZjeTVpaVb0bLpQEU66WRDsZ3GTu7hqTtQEOuIZzS3HG7ZjtQgnlkSsRPUXHJvF7FXuXyNbr7VC4dryOi4urTX8jlDe7q7eigrI3udGvq8tqxOiplgScfr4OfISI4gOYUrU7EQSVaJv+OxEHE/duGDLtnOjhN0lfOO6JXx2IoED/7gdiUL3OCb0MyRsEob47RvS+I/71u2uhmGuHSvgR1+O4cGXwnjxtJddwcWSnAm5B9z/nYSUd+7DzSjSRh7SYhzSxWRXXg835Ae3JQR+JtJaAV2eQGglGkc6mcXweKgiCBTyRSRWN7B2aR3j00NVIpTpRBiiCKQywOCARVfAljQK+FAwLoAAQAElS0VNQJ58CQJfyVS/7Yot+PhEtCVPNLuJLsRQyMtbwpVrqSSW6WWKrfWPVnrzmxU1jYjQzWL2NqPV5Dt6SYsUhsYGwQu8IY/PToqaFM+PIDoHiZqEXfzezii+sjNqdzUMc+toEm99+hi+8NMrcSzht7s6RBNI2CSa8tTdCdx/Tcbuaphm0Cvi6c+v4cGXwnjmA4ad0foGMODvuIgzOBjC1dfs7Og5rebDD05gfb27vVGljTzE989DPM0m3pldSBeTwIlLEIMe8DfNmBY4eyGBUDqVrRuLKroQQy5dqMTcnJgdQSDkNRXnjhPFrvmNNrgiPhRW7a6GLqvL6/AG3BWheXr7WNcKIyvROAq5YmV78sTsCNKpbFcKte0gbeSBVGNRXNooAQl9MZHbMgj4Wpt8c7EEc1ETkMW+VDyDZEIuW1AlDgKAVLz+OVsVNcPDwYqomcvkK6EzAkEftkwPwev3IDwcRCK20TDunpWi5vDYYEu/J0EQ7UOiJmEXf3rjAu7f1n1zpbC7hB/d8SH+/buzeOYsJQt1MiRsEg3pVlFTzVN3JzATLjGNu8nFEpS9m4B4JobS24uAykNTcAkYCHRXIpliqYT0hjzJllJ5lF49DWnHCISbZgAdryNdnBpns8H2VS5rzrtwdXkdhbwsQuUvJuHKFDDCCw2TbnBbOpBwrA9Rb+VWQgR0q7ipjr0IAOGRYMN7qhcpvvBBVT9qFu6qrRDuu9n8F1NpebGyDq2KmgpT28eQKse2DIYDFY/NdCpbt5zRiUglLAZgXNQEgFDEX1VXpT2kU1lEF2KY2zlROa6esGl19nNlcYhETYLoLKFwoLKIBjQIbUGiJsGQsLuEv/vkSewKd7ee8Kc3LgAAiZsOhoRNoi69IGoqfOWWFMJeCY8eYSQyUPbuvkc8E0Pp9fnK68HBEKampzA42J1CVi6Xw8pyDNELF1AqliCejkFazcD1uauNFdABYVMsbopWoXCg4gnVCC62DhRLkHzVISm4ZLppXEw9kok0Mm/EkTn0c0PHC3tmwO8sBx/P5IGI6VMSdYguxODze+At/xsvJ3fqRtSxF/uSdsN3ZFvof1JpeQt6HdoVNRW0sS5zmTzO1clErz1ndCFmqJ9TUASLbCZfI/JnM3nkMvlKe9HDjKipiCQKRkRN5XgSNQmisxhehCBRk2BIr4iaCiRuOhsSNgldeknUVPitGzZw7JKL2bZ0bi0pZzom+g7pYrJK1Ny+4zKMjY3aVyEGeL1eTE1PYmg4gtOnP0Z6Iw1pLY3SG/MQ9s4ZK8TiBELJRLpqK3j6eLa5h54oAmtJcGAX8qDQZMtsFWrBJpsDF082zZB++ZoLkylzgcrfy/EwFxGzNzh76mJFiFEEoW4VNwngS1/6Er70pS/ha//hqw2Pu+tX78Kv/upd+P3f/30cO3bM/Ik6IGqmyoJkIOgDL/DIZfJIJjJYu7Su22+xElIB/ViegsBX3tcLdWBG1PT5PRWR5Hf23o/f2XtfS/V0Mm8vHcdvPPsHdleDIJhDoibRKZ66caFnRE0FEjedCwmbRA1f2ZvqOVFT4am7E1jP8WwSChVL5LXZp5TemK/83QuipppAIIBrrtmJDz44gfRGGuLpGPjtI8a2VFucQKiQL+LS0lolccxUObainfzRH/0Rrrvuupr3P//5z+t/YS0Jbq2xyPqJ/A7T9XCLnOnv9AKlsgC049op8AKP8HAQhXzJ8FbuQNCH0YlwVbKVxGoKK9FE38W5dALbtm3Dbbfd1tTz/fIrLsdtt92GcLiFRH7prGFRs5Av4tyZ5ZYExmymYPg+ZCVqplM5BII+uD0uDI8NYnV5M+mj0m8CQDpZvTijFTWVret6aGP05cjrkiC6BhI1iU7xpzcu4LMTcburYQl/euMCjicClFDIYZCwSVTx2R05fOWW3s7I+tTdCSw+N4xjy+3f/uS12X+IZ2KQUvJEbnp6qqdETQVBELBjx2X4+fvHAQCl96Nw3dVc2OxEAqHV5XUEI34Egr6yKBWxNR7hddddh9tuu82SskdGRjAyYmxF+M1//EdL6tANKOKmIraMbg2jkCs2jUuo3Zqnfj8UDtBWWQVRBHieXVl2ki/UFTWV5D7K1vFcJm953FahvECjCOvtemquXVrH8FgIvMBjfHoI4ZEBJBMZhML+imhZyBcr3qRKHdSiZqOt8lpRM7oQQ/KyzbK+ceg7Ncert+KvLet7qzqJf/v/+ReYHZ1AIVfEyoWE3dUhCGakk3USJJKoSTDm/m2xrkwUZIa/++RJ3PzDXUgUzO2wIqyDhE2iwsxgCU/d3fuDuEGviKfuTuALzw0jkWvTy4m8NvsO8cNLAOQkQVsntthcG+sIBAIYGxvF8vIKpItJSBt5cANNvDE7lEDo3Jll7Lh2CrOn3ZgrDSNdZNf+3hYuIc0Z99T72n/4qmVxVW/Zuxef+9znDB3741dewcLCgiX1cDqltxeRWsvglOdE1RbcomYCx89EKvFO1VtpAdlLs5AvIRD0VrYOT20fw+nj5zpzEQ6Gi61DGoswK8s28gVw0ZiuuKon7nVC1GR9Tq3Ir42nKZZEnDuzXDmHmTroiZraxYNv/N13TB3vRG7feZMsbOaLfZfEi+hDSNQkGLMrnKls1+5lwu4SDv7yGdz70yvsrgpRhoRNosJTdycw6HX2Sjorrh0r4Ct7U0ySCXHJDHlt9hHSmuydMjw0BEHo7VW6rRNbsLy8AgCQFuPglCQ49cgX2Hp31aFUErF0Zhm71qYAAAGw2woyyQ3gF4L1Czx6W6Ar9K/zZUuIJ+TFhnz5Xz1Ka+mKsDk0vtn3awUXZVuw2+NCeDjYFWKMpaTS4LI5wNXmkLFYlBcD7aAPRE2FbCaPj09EK/2L2+OqeGmuRBOWiZrtHE8QhA2QqElYwFM3zttdhY5x62gSv7czij85MWF3VQiQsEmU+e0b0rh1uiNb7o4COAJgofy3lt0APgFgH4A5KyvyWzds4MVfePH6UpsxAbM5WdChgUHPI13cjI04NByxryIdIhDYFOwlowlz8kVL42wqqLdTXXnllbjiyivbKu+F738fAOCGtWK1oGwRLcfTI9ixbds2zMzM1Ly/uLiIs2fPAvkSdt4wW/VZLpOvEVwuLa1V7OP29t4wqfTqacTAYb3s3ar1bG0Gv3Mc/EzEgppZhCiyFTU9bnnxJmsiiZiGqe1jLYmabo8LoXAAvEsWDAs5WbDUfreQLzZMotVJUXPlQoJETYJwGiRqEhbwezujnUoWdBSynvAzAPM6n+8DMIsO6Alf2RnF354dwWLa+rkP0ZjeG7ETpgl7JXxlr6WDznkATwE4PHLTufkmxx5R/oi9MzUH4EEABwBErKjYN/Yl8St/035WMy6ZhjTSQhIDomsRhP7oPgMDgXKGdGMDFS6bg9QBYVPNFVdeaXjLdj0UYdNKhscGMToRrkz4gc0t0NWMVOpktF6nTp1iVc2u5Utf+hK++tXabNrf/OY38cd//Me639ETcpweA7AdpItJiIvxpt6tjRABy4TN733ve/jpT3+KDz840fC4//tP/28887fPNs+IzljUlMYim6Fn8gVw5/RjUTZD8dQ2I2qGh4PYokoApFDIh00lOOqkqCkn4oobqpeWyUAJd07msGesgJ2RIiYDm/1kssDho7gbJxIuvL3sxo/Pt5gQ0iXUeCJL5R0HEs8DPgaJJgnCafg9kAYHLN9dQ/QXM4E8vrIzauUp5gF8HbKeEG9y7BHlj9g7U7sB/Dos1BP+9MYF2pLuAPpjZk405Ct7U1ZtQZ8H8PWRm84dbOXLZRH04dg7U18H8BBkkTPCpmoy144VcP81GTzzQZtbWVMZgIRNogdxmd1un+tMnM1uIhD0YWJ2pCr+YzqVxaWltTpiRPuLLf3I+++/j//+3b/RfV9BSQaiJFPx+T0QBL5K1FGHBxCLvSty7tq1C+FwGD//+fsNj9uyZQvGx7fg2LFjSCSsDdNw9uxZ2bu2CevrSZw69YvGBymipk7s37ZFTUD2dPJ52/LcTCYyhkVNvURXgOzFue2KLfj4RBSFfOP4wO2ImpeW1pp6Xk5tH6sSNRt5jdbjntksvnx5GldF6l9LyC1hz1gee8by+PLlwPm0gOcXfPibUwEkCwZjpwcD+rFjve7K/9IE9cUEQRBG+D3rRM15AA+M3HTuSCtfHrnp3FEAR63UE24dTeLW0RReX6HdWHZCwmafMzNYwm/dsGFF0V8H8KSBFZWmlMt4PPbO1JMAngawv90y1Xxlb6p9YVMUgXQWCOjEyyOIfqJDCYS6haGxECau2EwyJZZEXGwiEPxv93mMiub6pDTod//5z9/H6tpKzfvnls5X/la8xwq5IiZmR8CXhZ6VaALpVBbBcABbpocqxydV2aN7jf/0n/4TbrvtNvyzz32m4XH/5t98Gf/mX38Zn//85/Haa69ZUhfh+kmIqlAfbo+rshBQCTvhEuR/OvC/vL36DatFzQ6j3JPq/kMQeAyND2J0q+wFvmV6CEt1spkD7YmaidUUVpebJ35SbNaKqHlVpIivXZ/CnjHzvsSTgRJ+5+oNfPnyNB59e9CQB6c0ZE3SN4IgiH5jJpC3Kgv610duOvc4i4JUesJByHrCPhblKvzezih5bdoMCZt9jgVb0OMA7m11VaUR5Q7p3tg7Uwcgd0hMmBksMfHa5DI5SCRsEv1OsdSRBELdguDa/B3WlterknfUY5nLYFkwF6OoaCKTe7cQCPoQCG32qal42vB222YkVlMIjwwgEPTB6/dgavtYzTGXltaaesARbOCvnwCPzeD7IxMRjG6Vd0GceK+cXXUoBCliTIziLq71jKgZCPo241VGN+NVlkoiVqJxBIJeBII+BMP169iuqGlGpGxF1LxnNouvfiKJkFsy9T0tIbeEJ/cm8PyCD9/8Wci49yZBEATRMhZ4a8YB3FH2tmRKeUfoHbF3ph4H8Bircslr035I2Oxjwl4Jn93R+hYqHeKwqBNSM3LTuYOxd6bmARwCI1dyJl6b6SxtRycIoGMJhLqFxtvOCS2CwGNq+1hNxvjRrWGkEmlEF2JM4mCeO7OM0YkwhsYGq94XSyJWoglDHmr9iCDwNbZpBbEkWtImuOW47vbwbhQ1tej9XulUrqE9rBQ1BYFHSCWoplPZlkTNb+xh29bumc1iZ7iI3/jJUF1xk4slIG0ZZnpegiCIfsMCb82jkPWEOMtCtYzcdO7xsp7AzFmKvDbthYTNPub+azIsY2vG0QFRU2HkpnNHYu9M3QHgPRblzQyWcOt0vr0M6cWS/K/OVjmC6Bc6nUDolY9X8I8/bpxsxCr+j9/+P7B79+6a9/ftuwMAkIilsHrqYodr1d2oRRgtwXAAE7NouOXWKKXytt7VS0nsuHYKgCzkXFpa6+kEQu3iLYtfLEinspUwAE3J5JsuZXLLcSBVGz5AK+4ZsvPggKNETUC+jtr36nslWi1qatvqOZPt0gpRU+GqSBFP7U3gN34S0T8gnaUQQgRBEG3yr7pQ1FQoO0sBjMTNW0eTmAnkKUO6TZCw2cfcf625rY5N6JioqTBy07mjsXemHgCjzuj+azPtCZuA7CXisIkQQXScPkogtH37Dlx33fV1Py/kS+jGTfkRyYMbi5OmvpOHiDddF9o6b3g4WCXCLJ1ZRiFfhNvjwvT2MXj9HgTDAQSCPmNimAG0281J1OwcgaAP267wVQTOXCaP8ekhhIc3t3LtuHaqsgWbW47LsRG1C4j5ArjEhq6o2dLW6mAAkkN2YORUXprj00PIZvKVezYQ9FU8jnMab06rt59PldujGjNt56pI0YioOQ/gKQBHrr538ajy5oeHZiKQ463/OhrESdszlsfvXLOBP/9gQPdzLpaQF+E6HDolkuMxmxAQzvEYS3fjE4IgOs9yQETCK2IhXELcmqS3RAsw9NaMQ04SFGdVoBHK4mYEwBMsyvvtHZfw6M+nWRRFmISEzT5lZrCEa8eYiQ8Pd1rUVCh3RrcDONBuWZ/dkcODbZbBZfKQSNgk+p0+SiD0+7//+wiHnSGAsMQNwXQCIwC4fGgUcV/rcSlDYfmcYkmsEmEK+SKWzixXPCtDET8zYROQPQcDQR/Cw0Gkk7mm2Z97ge9973t47bXXqpIr6fHi//oBzi2dx+LiIoBNgaxdwiMDFQFTETj1cHtcmJgdQSDkRXQhBk5HvKxHy6KmXrZsLdl8WxnRjVIqiUgl0giGA3B7XLhs50RlS7p6C/pKdDNjvdWi5sTsSNvhCJ7am2j0cRzA16++d/FJvQ+vvncxDuAggIMfHprZB3lCulvv2N+5egNvL3vw1rK79sNiCdz6huHYre0ymxBwTcyNAMX+JAjTjKXlhYDL11xIuyV8MFLAQrhkd7X6ml3hDGYCzELKPGCjnvBkWU/Y325Zn52Ik7BpEyRs9ikMY2seGbnp3JOsCmuRhyGv2M+1U8igV2x/O3ofCTpEn8GbmIj1UQKhY8eO2V0FS/D7/bjyyisNHZtOp7G0tARA9rh0DbaXAASQYwlqRZhCvohcJg+v31N3q3qrrEQTFWFtYnYEAHpe3Pze975n6LilpXN48cUXK69LJZGJqKx4aY5OhKs8NJXP0qkcBIFDeDgIXuBNi86Wipr5AriLq4bq0S7h4WBVYiBeJ8ZpdCGGZEIWfDshair2ymXyWGshFu3vXLOByUBdQSIO4A61h2Yjrr538ciHh2bugCxuHtA939UbeGs5ol9AMg1YLGxGcjxuiroRyVU/E8fGxjA2NobBwcE63yQIAgDW19exvLyM5WU53EWgwGHPBQ9m10W8P14gD06bYOiteXjkpnOHWRXWIg9A1hMi7RQyE8hjVziDY4k2c3cQpiFhs0/5zOXMPF0eZlVQq4zcdC4ee2fq62CwJf2zl+dI2CQIPTxueftn0eDqeA8nEOKGAuB3jkNaaxzOgwt6wM10pzfn9PQ0HnrYWPd+6uRJPPEEkx08Fdye2uGJIPAVsUYvW/n4li24XicsQKFQwtLSuYbnU5KeKKJmr4qb3FAA8AhAvnUvF26I3WC9kC8iuhBDKp6pZKZPJdJVMVQTsY2K+DY8HjJkE8tFzWhMXrzRoBVo2yU8HKzciwCwtrwOt8cFt8eFUklEIV9EIrZREZo7KWpWvKqvMS8o3DNbdwwahwlRU6HswfnAh4dm5qCzNX3PWB43jxXqem1aGWtzNiHgE5fccIvy4qDX68U111yD3TfcQIImQZhkfX0dR997Dx988AFyuRzG0jw+ddaDtycKOB8k781Oc+toklVRTtETngKDTOm3jiZJ2LQBEjb7lFunmbiNH7TLZVxLeUv6Y2jTa5PJ9vx8QRaBCKLX8Hl1Y9jp0ekEQh3FI0DYM2N3LRzJ2V9cxDLXevzm4bFBjE8PVbYfq4WW8emhyt/pZO2ug7t+9S589atfrXn/m9/8Jt59592m51YEs54WNz0C3PfttrsWNXgDm33FxaW1qs+ymTwSqykMjQ0a8tS1U9RU7hmxJCIRa+++0Yqa0YVYw3vRFlGzhXi0d07mGnlrPmBW1NRwL4CPoeNx8/nZjL6wCYDL5CBZIGzOJgTsubB5z+7YsQN3ffrT8Hq9zM9FEP3A4OAgPnX77fjlW27Byz/8IU6fPg23yGHvOQ/e3pqnrekdJOwuYVeYSb6OgyM3nZtnURADngTwINr02rx1NIXvnB5nUR/CBCRs9iG7xlqPf6bhr1gVxIi2vTaZCL5i+9swCcKJSH6P8fh2fZRAqBfJZDI4dfKkoWMXy9vQWZBYTWF0IlzZehwI+irJgxQvzlxZ6NLy05/+VLfMeu/XOz/Q4+KmwxF1xLJSydhz1Smi5tlTF3W9igH9zOZaAkGfo0TN0YlIjaiZzbQ2Xrpjsm4opCNX37t4uKVCy1x972L8w0MzD0NnLHjnZA6P1vtiHVu1w1iarxI17/r0p3HNNdcwPw9B9CNerxf//F/8C3zwwQd4+Yc/BADsueBB2p3DcoC2pXeCa9mImoA8f3cErLw2GXqyEiYgYbMPYZQ0aH7kpnNHWBTEkMNgsB1911gRx5Zbbxo97alG9DdmPFooLENXs7S0xHx7uRFKZdFEEV7UgiawuXVZj9deew2vvfZa23XQEzdzmXzLQg7RnHQyC2yVwzYMjQ9iJRqvfCYIPMLDclbremIh0KKo6fNaImrWu1cUAVKhkKu9Hp/fg+nytnzAflEzPBzEaNk27YqaAHBz/THoUy0XquLqexcPfnho5gloPG5Cbqn+dnTGSaAUDzIFEjUJwhqUdqWIm3vPefDijhwKPDmZWM1tbMS7ow7y1lQ4iDaFzbC7hLC7hERBYFMjwhAkbPYhM2zc9A+zKIQl5VWWI9CJr2SGmcFSW8ImQfQsPC+HWTAiWnZrAqGgH1Jk1O5amMfzsd01AABsoH1BO5vJ4/TxcxgaH0QguLllMxXPILGaqhFsuKEApLXmnsTcFuMJQrTi5rYrtrQt6BD1SaeyFc9cRURLJ7MQBB6jE+GKuJ1Y3dD9fkuipscNactQ42MA5qKmWoDUCpba63CCqGn0+oxSbxt6u96aGo5AJ7utfG7rQwWpY2recsstJGoShIVcc801SK6v480334Rb5PCJS268vZWe1VbDKBu603Z/YuSmc/Oxd6aOAtjdTjnXhjN4fYVt3G2iMaTe9CGMtqK/yqIQC3gVbQqb144X8OLpNuIf0RZcopfxeYx7Y2bzliVksAy3C/B14Uq/maz1BohzOfxv93lT38lDRJpjs6WzVBKrvPYa4frc1UzOqUUtbvJlAYnETeuILsQq3oyjW8MVD06FXCaPtUu1Gbi1gt3KhUTze8fjhjQx0nzhpYGouWV6CENjcvKXVkTNs6cuNrwOJ4maALB0Zrnte7+Bt+aRtgqu5WfQEzYHGizsZ/NMEt4FChxmE7KXzvT0NH75llvaLpMgiMb88i234PTp01heXsZsQsAHIxzS7i4cy3URjITNIywKsYAjaFPYnAnkAATlxKtERyBhsw8Z9DKJPXKERSEWcAQMspm1BcXYJHoYacAPbl3fa0oLly9YkpCBsJ4CxLaSAPUKJG52jnQqi7OnLmJidqQq/AAg2+HS0lqNaBceDmLL9JBhMRAAE1FTL5GOWVFTfS1OFzWjC7FK5vUu4ahdJ74mtukRSqImQXSOT91+O/7n//gfAIC9SS/Ob++NREIlCTibKiJrMNZ0pxh0t7+Q7ZQkxDr8rN0CtinCr5uEzU5BwibREiM3nYvbXYc6zLdbAMPkSgTRe5jxaMnk28wrSJgll8vj3JI5T0vt94lqEqspuL3yFmkSN60lncri9PFz8Pk9FSGukC/qxtY0mzUcQN+JmsqxZkRNU4mLPG5gcGDztUuQw5DYT8SuE08m5d96enoa09PTdlWDIPqO6elpjI2NYXl5GaFVDthud43YIHDAZSEXzqdLSOSdkxiJQUb0owyqYRXzdleAMA8Jm30IA+HuCINqWEI5LkZbZTDyaCWI3iXgA9IGvHcogVDHyeVyWFo6Z3c1eo6VaBxuj4DwcJDEzQ7Q7HclUdMaUdNU4iK939PjbihsrhfqhsyINKyYeeZMf4PBNvSxNF+JrXk1xdUkiI5z9TXXYPnVVyGUgIF1DhuDzvJybIfJgOz55yRxs03idlegAfN2V4AwT5dldSBYQMIdQRDtIPkNxqAVRad47xinUJRjrXX6X5u/E3fVVkY/QLm8yQjT8noBtcijiJs+f/tiCGGObhQ1lW32nRY1lWONipqG61Pn92z2bPgoXtefYveHh2YiDb9sjk/ovXl+w9otgWOZzfLJW5MgOo+63XnTbGOPO4HJgIAxH21tthoHZmonDEAemwRBEIQ5zHi25AvdFTg7lQGXWe38eXleFgo8rWXs5X95O/hfZrvvSsoXwK0lW48bXCx2n7DdBEUcIs9Ne2hJ1HQJxkRNUQS3HGcuauqJiloR8dLSmqNEzZULCdOiplxQ82fDR3EXroro7hzaD+Bg0wKaUBZI9+t9diJRZ9rT7N4wiFvV3Q0ODjIpkyAI44yNbXqcC701/Kgw6uPh5oHz6R69QIJoERI2+5Djy25cWz8zpRHmGFWFIIhuxOM2HEuNEggZRBTBRWNtiZvM8bghbRlur4wGHnDdComb9tCSqMnz8j1sRNSMxnTDZ1gtaiZWU1hdrs32rq1Dp0TNxGqqflb5Zp6vBp4Nb6146gmbj4GBsAngIb03z6eF+h6jjPrccG4zviZBEPYwODiI9fV1DKxzWG4vOpljCXvkvuZipgSH5RTqCWLvTO2zuw6EeUjY7EMSubZd8+cYVMMSWHREx5cdIioQhJPxeYFUuvlxlEDIOE4UN9vF44Y0Mih7wvUQWnFzYnakrthEtE/LoqaRtmSzqNlMeJyYHUEwHADAXtQ0FYfT6Hb+gA9Y36j78fMLPnz5ct1nx9yHh2YeuvrexScbn6A+Hx6a2Q1ZIK3hx+cbbJP3OGs65PF4EIlE4BK6aLeDjZREEZJE6k4vUCgUsLGxgXy+9YVCRdjsdcIeHl6Bw9lU0RZxM1EQEHa35TW6m1FVCAIACZtEi8Temdo9ctO5o3bXQ4e5dgtgIPxawvp6Ev/45lt2V4MgAACS3wPOiLBJCYTMoYibI4NAMGB3bdjg6s2hhlrc9JYFKxI32dMNoqbP78HU9jG4ywIZS1FTqUNXiJoApHAQXANh86O4C+fTAiYDuhPiJz48NHP06nsXjzQ9kYbyFvSn633+N6f8db9rOG50B5icmMDExITd1eg6isUiSj20M6DfuXTpEi5dumR3NRyPT+CwLeiyRdw8ngjg1tFkO0VEYu9MRUZuOhdnVCWW7LO7AoR5KHlQH8LII3E3i0IsQDdgvBnWs202C4et/HcDnIe8EroOo9vLuyyB0PBYCMNjNsdGU2L9GRGOCVtRi2yKuCkINLRiRbeImtuu2NKVoqah75gQNQHIW9GbPB+++bNgo48PfXho5oCxk8l8eGhmDsArqDM2fX7Bh/PpBuMMBhnRWTA+Pk6iZou4XC64e3QRrR8ZHx/HyMhI8wMJ+AQOOwbd8AnOdMxpwj67K1CHtvWE11ZCLOpBmICeAH0II4/Ee8AmFhJr9rdbwLHlNpsFi0ktv2kjYc80pMVE+2U6GG7H5uBF6qZEM/0Mz8vCgRGPTIsTCF0WCeCay0bbKuO58v+8i8f41BACIS+iCzFbve+45TgkoHc8N3sU8ty0htGJCEa3hgE0Fxcr2CRqNhIsOylqphJp06Jmw++YFTXLSEMhcOls3c9/fN6Lt5c92DOm+7tGADz94aGZ2wF8/ep7F+cbnevDQzMPQd5+HtH7PFng8OcfDNQvIOBjljyoXSZJ1GwLnufhcbtRLJUgkvdm1zM6OopYrHF/RsgIHCqem9kOuW6+vhJs12MTkPWEw+3Xhjn72i1gvUDz2U5DwmYf8vqiB7il7WL2O819PPbO1G4w2IrerkcrC2FOCgcrkwJuKABuqE+EDZ437glI2I/PY0jYtDqB0NxQAHcwEjYVguEA5nZ6EF2IIZ2qP0G3GhI3u4PoQgw+vwfe8j8SN9vDjLhYoc9FzVwmb1rUbPidFkVN5bsIBhp6nf9fb4fw3K+uIuSuOwk/AODAh4dmDgJ4FcA8gKOQvTIjAG6HvJg916gq3/xZqKG3phRyRt8a8PshUEzNtuE4Dm6XC6VSCcVS9+wWIWpxu93weDxtxdvsJxRxM5ouIVmwfuxxNs3E030/gAdYFMSK2DtT+8EgO8CxRP3wJ4Q1OGOJkugoDJPj7GdVECMebLeAxXWhfY9WFlthfB5IYxHHeBF0BJfQ+iSKsAVpwOBDu4uyRSdiKeTK9XV7XNh2xRaMTkRsrRO3HG+YjINwBmdPXazcO72+LV0QeASCPgSCPvj8bLfxkqjZmqhpREif2j5m7DsBX9vPY2lksKGn/vm0gN/4yZCRog5Ajp35CoC18v+HIGc/n2v0xecXfHh+ocGimoFt851CoG3UTBEEAR63GxzXldtziTJud48kUuwQAgdMDwiVrOlWcjzBZFEoEntn6gCLghjy6+0WQKKmPdBTtA9J5DgsrguYGWx7JfMxOGQ7euydqTnIg9+2YCL6soqxGQzIXm75IpvympEvgIvV3/IuTbTnEdcUh8S4Ikxg1GZdlECokC/h4xPLVdtgR7eGEQjKW9MLnWqPGrhYAsgV5AUPwpGUymKYIjj1qufm6EQEw2OhimAHAIV8kYl3c0uiJsoiGomaTcsPBH3NvxMMsOlneB7SlmH5N6+zLfijuAsPvRHGN/asN/LcbInnF3x49O3G8ZKlkTDTcxLOguM4eNxuFIpF2ppO9BWTAQECB6zmrLvvjyX8LDKjA7KQeLD9GrVPWU/Y3245r1N8TVvoTVcCoimvLzERkeZi70w9xKIgBjzGopDXF9v8XXiercchz8viUSf+NZsUWn1+onfpsgRCALASjePsqYsQyxP/QNCHy3ZOIBS2cdtiKi17bxKORRE3e9Vzc3r7GEa3hqtETWDTu7md9tGyqDkWaR6qgURNQ+UzEzUVPG5IQ40neD8+78Vv/GQIF3LsPLMefXuwqaiJgM8x3pqEtbhdLrjII5boM7b4BUwGrA1vwUjA2+cgr82nWRTy+krDBHmERfTGSJswzQ9+wWww91h5dcM2Yu9M7QMDb00AePG0t70CmomDBNGvdJmwCQDpVBanj59DKiHHieMFHlPbx7Blesg+oSqVbuhZTdhPr4qb4eEggmXhUvHQPHvqYlWWcnUGczOQqNkZUbOQL3ZO1FQwsHB5gY/g/4xeh/+V2NLWqd5e9uCLPxpuvP0ckEPfkPd7XyGUEwvR1nSinwh7eEvFzRejzLzeH4u9MxVhVVgrlGNr7mNRFnls2gMtX/UpL572Yj3HY9Dbtot6BPLqxh1tV6oFyp0gk9WV48tuLK632fkzjjVGEHazvi5nPOQizkiwoMebb7yBUydPWlJ2qSRi6cwyhscGMT4tx4MbGhtEIOhDdCFmSHxhTioD0BZKR6O3LX18eqipyOVkhsflgbpYEjF/IloRx9KpLAr5UsWTMxQOIJmonzRGi1FxcbgkYFXYXCAxJGoChkRNJYlOL4uaYknEuTPLnRU1gaahSMLDQUzMjmBDBA7GtuHpDzz48uQy7pzMGd6e/uPzXvz3XwTwlpFwQuUt8hTPu/9QtqZTYiGinwh7eHgFDmdTRbBOmP6DaATAAoui5iDP5+9lUZhZyk5aTPSEF6MRJCgjui2QsNnHvHjai/uvybAoal/snamnR246Z0dWs0NgkAkdAJ453n6gX8nXpscn4WjU2enX1tYwONjbK3K5XG7zhYOFzVgshliMjWBUgP5kZ3V5HelUFlPbx+D2uCpeeCvRBFaX15mc2zAUK6wr0Iqb4eEgCvkSVqJxW+ojCDzGp4cQCgcq4lsuk8dKNGFIiFREtcRqqkYcW7u0XolJ6w14DAubRkXN2zJ+7Ch4sCqU8MPABnLjYWOi5nLckKjZSCTsVlFzdCJizBvVYlGTi9XvH31+T5WXb3QhhsRqDo+eH8SjAG4eK2DPWB5XhYsY1Iicb6248VHchbeWPUgWDHrhGU0yRfQ0giCA43kUi0VIEmOlhyAciE/gsC3oYi5uJgoCXoxG8NmJOIvi9sfemXpo5KZzT7IozChlJ6lDYJAJHWDqxUqYhITNPuaZ435WwiYAHIi9M/XqyE3nDrIqsBmxd6aeBiOXcQB45gMGGcwoVmRv4xHABT2QUnmsrcYxO7vN7hpZysry5sScu2qrjTXR5xdCAhGJXZvLQ8SCkKz7eTaTx/yJKManhxAeDoIvC0WBkJxYKFh0Y1IcYFYfhfP8BhJcrvmBhONQxM25nRNwe1wIBO1Z/NIKbwpevwdT28dwaWnNsECvLaNVzIqagOy1+en8IF7y+9HMV5pbjgOpWoHVaaKmWPYKZylqhoeDFaHZVlGzQeIg5XdTkEXNVNUxby27jXlhGsHjlj01G2RqJ/oHnhILEX2GIm5G0yVkGaqbL0bDrIRNAHgi9s5UvFN6QlnUfAXAbhblJQoCnjnbWkgeon1I2OxjXl/y4PiyG9eOMctY/HTsnalPjNx07mFWBeqh2n6+n1WZz3zgRyLXZtwdCkLfF/DbR1F6/zxyuRwuXLiIrVvbiwnmVEqlEqIXLgCQt6FzW5okYrCB94WVjp+zVBLl7M/JHLZMD4EXeATDAczt9OCKoy4EJPaP1ctLYfy/no+Zl0t0hlJJRCFfhNtj35BrYnakIrylU1mkUzm4PUJFXBufHkI2k2+Y1TydyiIQ9CEUDmDNn6wSykYnNj0Ucunm4Rm04uLSmWUU8sWa49SipsJwDrj7dBYv7fAhL+g/t7tJ1Dx76qLutbcjaipekE4XNZXfTU/UZAbPA+EBSJHe3mFBtIbb5UJJFFEs1rZBgug11J6brMTNZ86O4Pd2RjETYBaa6enYO1MRqz03WYuaAPBfT4+zKopoAQow0+d8513m20sfir0zdciqAMCxd6Z2Q+6E9rMs91tvtJ+9TPLTNvR+gN85Dnhkj4+lpXNIp43HkusmTn50CqVywh/+U1faXBvnkVhN4eMT0UqCGLfHGlETANz0qO4oW0sufCLna/ovKHaHXULhQNU28rOnLmIlGkd0IYb5E9HKcUoMzXokYhsAZI/NbVdswfDYIELhAKa3j2FoTF74KOSLDbehCwKPy3ZO1IiLzUTNyW1z+D//5M8wuW1OrmtGxN2ns/DoTMz0RM1653WCqKknOrIQNQF0hai5ciFhnagZDECaGiNRk2gIJRYi+gmBA7YFXQi42N3vFngpPhF7Z+ppi/WE98BQ1ASAvyVvTVshj80+55kP/PjK3hRmBpkG0d4POe7mwyxdyWPvTD0O4EEwioGh8MwH/vaTBgHksdkveAQI10+i9PYiSsUSPvjgBK65ZicCAefGoDRDqVTCwvzZzaRBsyPgPjFjc62cSSFfxMcnotgyPVQRdgDgc//8n+Nzn/scAOCVj1fwysfGPUvvuGwUd1w2CgB44YUX8ML3v8+20hZy8/k8rlmutwOg9ZhDF11FvBTYaPn7ZtmXDsAjNR/w7yi48XfB+qELnII3sOnxuBJNVH2WzeSRSqQRDAcQCBp/hilhGNQoyWnqYUasU4uakSEv/tn+X8LQ6Bj+j689jv/njx/H+bPzFXFT7blZT9Q0IxIaESwFga/ygnWiqFk3GZKDRM3Eaop9zFmPG1IoAAT9lCCIMIySWKhYKqFEiYWIHkfggNmgC+fTJSTy7Ydi+M7pcfzWjksIu5m2nQPY1BMOsyiwLJQ+BOAxFuWpeebsCBbTFJLOTkjYJPAHRwbx9OfXWBcbgexK/usA/qpVgbPcAe2H3AHNsalaNSy8NeHzUtymPoLfOQ5pLQ3xdAylYgk/f/84pqensHViCwShe++D9fUkzpz+eDNpkM8N4b6b7anM4ACw3jkxqx0uLq0hGc/gGkx17Jxc3LigJrkEwGXh474cW3g4Y02csi3Fzg5VjIiaALrGY1ONnmek8l6j2JnqJC9iSUSpJFZtrU+nsri0tFY3q3g7oua+X9mGxMrP8PFxAZdd+4W64mZhNdExUVNdphNEzUDQp5OER8cL0kpRE2goaro9LmMeroMDsjDpEoBsHly+ACi/VbEIlHcSwOOWhUueA7xuSB633BeRmEm0gUsQwPM8CgVmYboIwrFMBuQ5S7viZqIg4NGfT+NPb2SSIV3NHIBDsXemjgD4+shN5460UohK0GTuIAVsXj9hLyRsEnjxtBevL3lw6zSz2Bhq9kFebXkMwGEAzzfrlMqdzz4A90AWNSNWVAwAvvVmkIm3phRikHiI6CqEvXMAAPG0PDFbWjqH6IULGBwcxECXeW8WS0WsrcarsqBzWwZlUdNnT/ZYaSQMuF3gNnRi/uULjssM3ig2oSWsGRc2O7W5jssOAHBhaHQMez55BwAgufoxkmvG44OGhi5DaPgyAMCZE8dx+sRxK6pqiLv234e77vlizfsvP/8cXj78rA01ao1CblPMHB4brEoSJAh81fZsPRRBSuHi0hoSqyn4/B7wAo9cJt9QeGtX1HR7yluWz78LALri5i+dWsdr3v4UNX1+D6a3j1Ve2yVqAqjbLwsCj+ntY01FTWksUp3tPuCDFPBZOAokiFp4joPX46HEQkRfMBkQ4BM4XMy05235zNkR/PaOS9gVZpaYWM0+yHrCPMzpCfsB3A7Z+9My/uvpcSQK3evY0iuQsEkAAB58KYwffTmGQa9lD/A5yCslD8XemQKAowDi5c+OYjPGxRws8szUsrgu4L++yyCDMc/TNnSnki8AWeuySQt758BNRyC+swgplUepWMLa6hrWVpl7QHcU/pe3y3E1bRI1KwwOQBrUaaPFErhzy8bEzYAP8JavoyQC6eymxw9hCcOj4xVB8PyZH+PcaWPZtgFgasceTG6/EwDwMrApbA61ESOvUNJNJNMvpBJpiCU50ZWS5CexmoLX76kkwAI2Y2iq0QpS6niI9bwztd9nIWoqKOLm1svurnpfG2uzXVFz5UKiZou0U0VNQ0l4Aj7rRc06GP3dakRNgrAZt8uFUqmEIm1NJ3qcYS8PgQPOp9u71x/9+QwOffIko1rpMof6esI8NjWE3ejQktixhB9/cmKiE6cimkDCJgFAFvm+9UYQ/3Gf8Qlom+xW/b2vUydV8+BL4fYzoQMUx4kFxRKQzoJjuTJeEoGUJauGVfAzEfAzEYhnYpAW4xAvJoF89w2CuS2D4HZOgL9+Gog4fHLpEoDwQFOvRWlqTN6uqGYkXDdjMuFc2k7+4XWDiyWaH6fi/Okf462Xf6bzfmMxy2mUSiIuLq1VYkKOTw/VxMfMZfJVnpwKE7MjVYKU2XiI49NDzERNhej823j2r15EbFmuy6pQwmv+zb6+XVFTTxy0UtQEgKntY22LmpfKnrR6SGEGIXf0yBcahgwhUZPodgRla3qxCElik0WaIJxI2MOD54BouoRWE6a/vhLEt05M4Cs7o80PZsPuTp2oHg++O2d3FYgyJGwSFb7zXgCfuTxr1ZZ0R/GtN4N4fYlNgF/LJgz9ghnvOwfDbx8Bto/A6RsRpInRSkzEnsbnrRU1y0hDIXAkbPYXgwOASWGzl1AEL7WHpvqzS0u1XuZbpocQDMtiUy6T1z2mGUaykJsRNQt5EUd+dBbxNdkTf1Uo4YeBDeQ5eRbWjaLmlumhSuKmVkXNxGpKV5iuUCwCYNzvN0kUpGcLvXuIRE3C6VBiIaJfCLl5uIMczqaKLYubf3JiAp+ZiFu1Jd1RPPrzaRxLUDg6p0DCJlHFA38/hH/48grrLOmO4vUlD5uEQYA8GKekQW3BpdJdL2oSXUYXttmdN8zaXYWmBH6WAuK1yWlYcHXEfFiEkgRczLDJ+NkLJFZTKOSLlXiZKxcSSMRSugmFwsNBDI0NAtgU5pqJbY1IJjK6378566uImpPb5vDvHvkPWPjgb5FO1np79KKoCaDyOxsVNZU6mcnIziUzkFiKhy2ImnrXRqIm0U24BAE8x6FQtOY5RxBOwCdw2DnowtJGEYkWb/UD/7gDP7rjQ9ZZ0h3FM2dH8J3T43ZXg1BB+2eJKhI5Dg/8/RDWc715axxfduOBvx9qfqBBpHbivhEEYR8UPqLnETg5KL6b71T6pO4inczqipraDOjtipqNmCluCtZ7btuH4OAIdu75TQRC1fGqWIua4eEg5nZO2C5qqqkn/urVyYyoCUCONZ1nlOW5iagJVIcw0LUFz0PaMkyiJtF18DwPr8cDnsYQRA8z5AIObOEx3mKo/cW0B1/46ZVsK+UgjiX8lAXdgZDHJlHDsWUXvvDcMP7ui6tWJhPqOOs5Hgf+PsImriZA3poE0cVIW4bBXVztGm/hlQvO30ZdyFsXf2wla85Obl6OF6X8XegOM9uO4sWocHFpzbAw1wpv+bK4Iy2LW3//vYPwBQaw55P7sHPPb+LE23+BdDJqiaipCLeAMVEzncpaKmoaoRWhVQ2X2Gg/gVCxZEjUVIcw0BU1J0bqhgohiG6AEgsRvY6XB740zuN7l0RcamFd7FjCj3//7iz+9MYF9pWzkWMJP77w0yspC7oDIWGT0OXYsguPHgnhqbudP5k2wnqOxxeeG8biOrtOiLw1CaKL8XkgzW419x0lydVasuHE/tTJk3ih/Pf8WhrpuPF4nh+cDyD9QaBSjoLZpC12UMgPwKphxXLW3OQx4OIqwiZhnHFVDE51BnSrWHQV8Jo/g9sycoyqZ//i/wcAFXHz569/By+/+E+2ipq5TB7nziw3vA6rRU0AVXVKJdKmRE35S2lgKNT6gqwoNl0MUv8OJGoSvQ4lFiJ6HUXc/FFcwrEN8/f4M2fl522viJskajobEjaJujzzgR/Hl91d77m5uC7ggb8fwrFlhrd7O5ODPkb66AJKf38UyLa2JY4LeiDcdRW4Af0kCOHhIAIhL9weFwr5IlLxDJIJShJDMMIlyEloRLFhRvaTJ0/ipEqUNMPx8j+CsAMliU0qke6YmH7aLQuAWnHz2htvxpEfLdouajbbit8JUTMQ9FXVybSoWYZLpSFFWliUFUXZU7PJdnbt70CiJtHrUGIhotfx8sA/G5Z3O/azuEmipvMhYZNoSLdvSz++7MYXnhtmt/0cAFwCpMEBduX1EdLF9ZZFTQCQUnkglQM0wqbb48L09rHKxE8hPBxEOpXFuTPLlsWII/oPyecFh1ph80NhDVeX2MXwVZfbTWTSGzhzQpZnV86fx8ol44sLknAe2bz83bWVS5X3uagBIcclQBoZpPipDMhm6vfTgaAPw+OhynZjsSQimUjj0tJay/2snrg59PwY1lZkT8l+FjW1XGzjd0ZiAzArbBoUNSuHk6hJ9CGUWIjodf7ZMIewC3gt0Zq4eTwRwN998mRXJhR6fSWEA/+4nURNh0PCJtGUY8su3PwXY3j682u4ddraATtLnvnAjz84MshW1AQgjQ3RxJkBX/va1/D+++/j5z9/v+Fx/+bffBlnz57F9773Pd3PBYGvEjXFkohsJl/xPAoEfZjaPoazpy6yvQCC0PChsIoPhVW7q2E758/O47/88eMtfnsRwPO1b2dzhr7NAe3HESwzMnkDdu65q+b9i7GXgZ+/zOQc3YZWIAQAXuARHg4iFA60JexpxU0SNS1AFOUt6UaT9hgQNd2ezamE7u9AoibRJyiJhQrFIsQuid9NEGa4bZBDWAD+16p5cfNYwo9feeVqHPzl09gVzlhQO2v4zulxShTUJZCwSRgikePwheeG8ZW9KXzlFmtjbrXLeo7Hgy+F8eJpL/vCBwcAn/42aMIcX/3qV/Hfv/s3WF1baXrca6+9VlfYDA8Hq5IpKF5D6olqIOhDKBygbekE0YWkeBMTxFQaYCRsev1DCA1dpvt+PxII+qoEwsRqCoV8CeHhAbg9LvACj4nZEXx8ItryObTiJoma7OE2spCMCJsGRM3wcLDyOwAgUZMgQImFiN5m14DsMPSjuIScSf1+Me3Br7xyNb5x3RJ+e8el5l+wkURBwIPvzuLFaMTuqhAGIWGTMMW33gjiB7/w4am7E7h2rPUtxVbxg9M+PHokxDRJUAWPmxIGOYDx6WH454Yrr30qT031VshSScTSmWXsuHYKABAIeUnY7Ccs3A7GGfQe7Dde82UQlNh7s6c4ezxfXj78LF4+/Kwt53Yiw+Obz7/5E9GKgLUSjWN6+xiC4QC8fg98fk9bIt9pdx4bvIgtRRc+9ORI1GSNaMDTxqCoqfXeZSpqFktyFnalv80VNutetpfkccuxj0k4JRwGJRYiepldAxxEnsfLsRJKLdzej/58Gi9GI/jTG+cxE3De8/OZsyN49OfTtPW8yyBhkzDNsWUXfuVvRnD/NRl8Y1/SEbE3F9cFPPhSGK8vWeRNyfPy9kbagm47vrIHppZsJl8zGS3ki0inslWJF4g+oVgCd3EVUjjY/Fgz5AsNEwf1MyleRAr2Pw86hSK49QtKTM1UIl0j5F1cWqt8HowE2hb6LghFXBA2Fye0AqSSFZxETQtoUdSsolVRM18Al0wD6awsbNajLHZWAg3xPBDwQRrwAYHa8QFB2EElsVCxiBJtTSd6DJ/AYVvQhbOpYkvi5usrQez54S783s4ofmvHJUfE3nx9JYQ/OTGB11cYzx2IjkDCJtEyz3zgxw9O+/BbN27g/msymBnsfIe0uC7gW28E8cwHfkvPI40MkkeAQ8hm8uBS2cprn98DXuCr4nwpCAJfEUELeQro3neks+DS2ebHOZmAT/YU79f+J50FtxyXYwN2iB8ObGBLsf7waHgsBN7FY23EjXBMrBHMeh29vtTK/lUrQCZWUw2zgpOo2SapjClRM6f9DVoRNbN5cGtJw7F0ayjHDuVSaTmJ2FDIeBxRgrAYl8sFXhQpsRDRc/gEDpeFXFjaKCHbiroJ4E9OTOA7p8fx2zsu2SZwkqDZG5CwSbRFIsfhW28E8a03grj/mgzuvzbTkQRDz3zgxzPH/dZ5aKrheXDJDJB0UKBjnoMUCvSlZ8KlpVVwhc1J1/DYIManh+D2uDAxO1KZ8AoCj6ntY5Xj0knaPkx0GcEAs0Q4XUvAB2nLMLho41i8LNF6C2rxFUTM7ZgAAEwEZYGnH8TNXCYPr9+DYDiAlWiiSgQcHhus/F3IsZ28T8yOkKjZQbiN+otBer9v8jJViBezoma+AC623rqgqUexJC+GrCUhjYT7cpxEOA+e52XvzVKJEgsRPYWb3/TcbFXcTBQE/MmJCfzJiQncvy2G395xyfIEQ4mCgB9EI/jbsyMkaPYIJGwSzHjmAz+e+cCPmcESPrsjh1tn8vjMDjbeUus5Hq8vefDiL7z4wWkf80znDRFFtoNuRnDpLKQtw107aP/mN7+J999/H+eWzjc97uzZs3U/T6ymMDQegtvjqmTmzWbyFU9OQJ649oPwQPQQJGpu4rCEbdlMHtGFWEXgUf7v9T4mmcjA6/fA7XFh2xVbEF2IoZAvIjwcxOhEGIAs+qUYxzJWvO7TqSyJmjbi83ua/r5mRE0unrQ2rEc5HAkCPgolRDgCjuMosRDRkwgcsC3oQjRdQrLQnnD/zNkRPHN2BDOBPD47EcdnJxK4dZTNs0IRM19bCeIH0QjF0OwxSNg0wP333RcB8BiA3QCOAnjqmWefnbevRs5mcV3Ad94L4DvvyduAbp3OY9dYEdeOFzAzWKr8q8fxZTcSOQ7Hl904dskl/79Mt6oeXGIDUpcKm3/8x3/M5LhSScS5M8uY2j5WycyrjsGpTFwJomsYHJA9jQjHogg6anEzncr2dMiLtUvrCIX98Po98Po9mNs5UXPMRVUCN1YoC1TpVP0FRiOiG4marePze7Dtii2V13q/LwBjoqYoyh6VnQoTks6Ci8ZkcbNfQ3oQjoISCxG9iMAB0wMCzqeBRL79ccBi2oPvnB7Hd06PAwBuHU3httEkZgL58r9cw8RDxxJ+rBdcOJbw41jCj+OJAI4lrA1dR9gLqUVNKIuaHwOIlN/aB+DA/ffd99Qzzz77uD216i5eX/J0Zss44Xi4LYPND2qERwCC3pq3s5k85k9EER4OIhiRH1piSUQynrHEi0pcjEM6E4OU78IVd8/HAN/Y45mLBMD98vb27UWYRhqLUGy4LkErbobCAawur9tZJUsplYW9qe1jNQncxJKIi0trtnmtBiObbaae6Kbe0k6ipjmmto9VBOa6oqYRDCQm0uOqSBGD7moB6K1lEyJlviCLm+1kaScIhiiJhQrFIm1NJ3qKyYDsBclC3FTz+kqQtowTDSFhszlPoyxqBgIBpNNplF8/dv999/06gAeeefbZI3ZVjiC6Ce6qrXA9+i+q32O0Ha1UErG6vN4RYaH0xjzQjaKmQaSFGPhIwNHCpuQS0MGAFB2BRM3uI7GaqgibvKv3t7oq4qZP5bGZWE3hkgWemq1ST3RTsraTqGkeJTnf2vJ6R0TNyUAJd07mcOdkHnvG6v/u59MCfnzei+cXfPgo3mRKUz4/iZuEk3C7XCiJIoqUWIjoISYDAgZcHM6ne3euRDgPEjYbcP999+0HsB8Atm3bhq//x/+Id999F9/77nexsrICAHMAXrn/vvsOA3iYtqcThHm6UqAqi5perxdeb295I6+vWxjzjCUBnxwzrUc8HUjUJLoJtchXyJccI2oaIZnINKxveDhIomYdSi0mhgAA7uJaU1FzMlDC71yzgXtmjW1TnwyU8OXL0/jy5Wm8vezBn3840NiTUxE3Z8Yp5ibhGASeB1/23qSt6USvEPbIfSyJm0SnIGGzDuUt6E8rr3/z3/07AMCNN96InTt34uUf/hCHDx9WPt4PYB9tTyeIFggGgGIJSKbl/20mILkwgMbeHEq6o7GxUUxNT1pfqQ7yj2++BQAIFDiE0o0nfnGfBNt8DHge0tQYuBTbRCV2IAV85EFEEA5AnYCIRE12cPFk0ySMX748jd+5ZgMhd2vCzp6xPP5iLI8fn/fi0bcHkSzUWTIVRXAX12TPTYJwCMrWdEosRPQSYQ8PN89haaOINtbFCMIQJGzW5wmUt6Dv378f27Ztq3wQCARwz/79uOHGG/G9734XJ06cADa3pz9mQ103ofG3JRQgYpnPIMpvYIHvEo+2LkKKhIBIiG2h5cmL2Yz2v1KYgRuNBb1n2qlXlzCXEHDtYm08UzUL4RLe6VB9dHEJ8r1DEATRJuoERCRqMiRfaBhuJuSW8NVPJA17aTbjzskcdv7qKh58I1x/e3o2B6xvAIMDTM5JEKwQBAEcz6NI3ptEjxBwcdgWdOFsisRNwlpI2KzPfkDegn7P/v26B2zbtg1f+w//AT/96U/xve9+V4m/SfQgbvCYFAcwKQ7gci6Mt13LSHDmBDOiw/A8pLEIuEVzGdGbiZrEJoF6HjEE0cVcXxpFRKoNMRHn8nhfWKm8nhQHcLkYRuBDOVD+VH4QhaIcTuBt4RLSnOzP7AaP7fNe+AQBpZIfc8VNL+8FPlm1WDZ2jsfUymY5CnmI+AU2hZ+w5MUnSuXYnkkevnIdtmZG8R6qn0+3FLfCU+7X1Me6sgM4pipzVgxhTuda8hDxjusSCpC3bwckF/aUxnWv+xd8Auf5jUqZWxd4+NJc1TGNfks91nIcCl6p8lveVByvXI+C+6ILGwKP+NjmFvOrS8MYkzaTHCn1HcsH8b8Rr/kt3TkX3OVjCnkJW/Oj+JkQq/tbqlnmsvhQWNWtf7/DLccbfv6Xn1rDVRG2vv+TgRL+8lNr+I2fDNUVN7m1pOwt7xKYnpsg2oWnxEJEj+ETZHEzmi4hS+omYREkbDZhZWUFJ06cwM6dO+se88lPfhI33ngjfvrTnyLTI+JmqVSCSCuFFZYWF3Hy5ElkMhmEJS8+VZjET9znSdx0Om1MWG7Zuxd7b7lF97Nnnn225XK7hVv27sW/+83f1P3sueeew9LSUodrRBCd4fKSvsA2Cn+VGHe5GMao6Acq+crc5X/ALDdYEboikhfDG0qoAQEh+KvKrRI2l3gAfKUcNQkRUJ7Kk+KAfG4AEAGUQxcG4MWkMICEID+bxiQ/JkWVV5rq2CsRwTFPrPLRrBhCYF1ZrNi8FgA4LXmxzGXKxw3WvW4AVcLm8AVe95i6v6UO0oqI5Sn5yiOSt/p6FLKAe0VCfGzzratLQ9XHlOsbgBdjbn/leiq/ZVYuR13fSa7Bb6liFH4SNvVIpRvG1fzGnnWjouZ8+d9RyPHt5wDsbvSFkFvCX35qDZ95cVR/W7ooyuLmWMTI+Qmi41BiIaKXUMTNs6kiiZuEJZCwWZ+nADyWTqfxx//5P+PGG2/El/71v8bo6KjuwYFAAJ/+9Kc7W0MLkSQJhUIBJYrzUiGTyeC5557Dm2+8ATd47CmO4UduEnd6lZGREVxx5ZV2V8M2Gl1/IEBJbojeZ2RkBCMjI4jFYojFYnWP8/v9mJmZAQCcPHmyYZnT09MIBAJYXFxEJpNpeu50Ot10EeHKcjs1em6j12Pm3Eavp99+y36Ha7AF/cuXp41sP38SwFNX37s4r/3gw0MzEci7qx6DLHTWEHJLeGpvAr/xk4h+6ak0MBQir03CsVBiIaKXEDiQuElYBu25rEM5CdCTyut3330Xv/eVr+D5w4f7Yss5x3HweDxwuymhhYLf78e//bf/Frfs3QtA3r42K1J8P4IgiF7klr178dDDD1f6/HrMzMzgoYcfxkMPP9y0zC9+8Yt46OGHK+Jds3N/8YtfbFqm2XMbvR4z5zZ6Pf32W/Y12XzdhIBK9vMGHAVw2dX3Lj6sJ2oCwNX3LsavvnfxIIAboBqva9kzlm8ooPZCAjqit1ESCwkCCfBE9yNwwGUhVyVrOkGwgu6oBjzz7LMPQx4wHVHeO3z4MB77gz/AT3/6U9vq1UlcLhe8Xi84jmLpKagnRxN1tqURBEF0NcWSLEy0+4/igxFEX8Il6wuGTbKfH7z63sUb6gmaWsoC58MAHmh0vro0qGcnIW88ohkuQSCHE6JnmAwIJG4STKGt6E145tlnjwK44/777tsPOVP63MrKCv7iv/03vPbTn+Ke/fsbxt/sBXieh9frRT6fpyDWkD03r7zySpw8eRIDEjWhXuWF738fL3z/+3ZXwzZe+P73Mf/xx3ZXg7ABbjkub9FkAc9DGhkEghS+gCD6irS+l2TILTXyoDwKoLnLrA5X37t48MNDM3OQt6ZXMRko4Z7ZLJ5f8NV+sViS44B67BWMJElCLp+H2+UCz9Nkn9CH5zh4PR5KLET0BJMBAT6Bw8UMhb4j2oeenAZ55tlnDz/z7LOXAfg6IKfTPHHiBP74P//nvvDe5DgOXq+XtkGUUWIPhiWvzTUhWKNk/iWak67vcUN0K/kCO1ETkBN0xNbJc5Mg+ol8oW6bv2e2fjxUAPdefe9ivNXTXn3v4uOQxdEa7phskOwxm2/1lMwpFIsoUnx7oglulwsumpMRPcCwl8dkgO5lon3I3cwkzzz77OP333ffk5C9Nw8AwPe++1188pOftLNaHcPj8aBUKiGfd84gkCBY8qb7Qt3svP3EckDEh6ONM3GeGioCCx2qENERuDpeVm1RFjedlH1YXIwDa/oCy/GS/BvkCwUcP34cJ0+exKlyMhlRWKscd0ZM4aLkQvTCBeQLcubn48ePAwCW+QxETi4nKblwXJS/99/+4i8wMjKCN954A6uxGDa4IsRyVvRLy2lIS3zVuWOx2GaZSwUgVB78n89BLPdT3/zmN02d2+j1qM+d5JMQObk/uCit1Zxb73pY/ZYbixLSgxLSySyQLNX9LfNeILEoQowmdM9t5nra/S2rGPKDn4nof9arNBAK94zVzZJ+0Oj28yY8DOAV7Zt3TuYQcku6GdK5XAFOWqYrlUoQRRFul4tCQRF1EQQBPM9TYiGi6wl7ePAcEE2XQDmFiFYhYbMFnnn22TiAB+6/776fAXginU7jxIkTPb8lXUEQhMrWdHqQEr3GMpfBstDQo6QvWA6IiI0Uyp43qnYuiuDy5Ynpuj11I7qQVBoIBQCfx+6aAABKr56u+9kxnJf/L4tb9VAHavjJT35S97gkgGNK2Q3KvPj+eVw0cFzleAPHGj03YPx6Lho8N8D+t5TLZHtuo9dj5reswiOAn9lt/PgegGvgoX3zWF3R8ykW57763sUjHx6amYdOpvSdkSLeWtbZcl4nyZGdSJKEfKEAlyDQbimiLkpioWKphBJ5+hJdTMjNwx3kcDZVJHGTaAkSNttjVvkjEOiv+GEUd5PoVdzgEWkSYuB8h+piJwOrGYTO1PFAKrPMkQBMGIeLJSBNjZn/Yr6uhxdBOJ98H4oNGX3xMuSW6iUNil997+JRhjU4DOAh7Zt7xvL6wma2wTZ1mymWShAlCW4XTdmI+rgEATzHoVBsvNOGIJyMT+CwLegicZNoCXpKtsj99903h/JW9NHRUWzbts3W+tiBEnezUCigSA9Sokf4lcIMAk2SQj3TobrYyawYwrWFyYbHfCis4UNhtUM1IrqefAFY3wAGB4x/p1iSkxlZxPT0FKamG9/nBNEK55bOY2npnN3VcBQ7I3XHikcZnyrBuDxbEUWREgsRTeF5nhILEV2PT+CwY9CNs6kisqRuEiYgYbN1HgMQAYAv/et/bW9NbMbtdssxXgoF2ppOdD3NRE1ikzHJhw/trgTRVXCxBLCRBfzlLemFkv42UFEkT02CIFrlCHSyo3c7hWIRgiBQ0hiiIW6XC6VSiZJQEV2LwKHiuUniJmEUmsG3wP333bcPZW/NnTt34sYbb7S1Pk5AEARwHIdCoUCrhD2CR+IwLG4OnqVU5wZIeYHDqt9er4Rb9u7F3ltu0f3smWef7XBtOs8te/fi3/3mb+p+9txzz2FpaanDNSJ6hmzO0Vs/CYLoenbbXQGroMRChBEosRDR7Sji5sVMCYk8aQtEc0jYbI3KKvA9+/fbWA1nwfM8PB4PCoWC5QGsT508aUhcGRkZwR133ok777zT0vr0Il9IheCRVIPm0xZkS27AazNe/GLYvi5qZGQEV1x5pW3nt5tG199vMYUJY3wi58PWUnueRLzAw+f3IJvJQyzJA9kLQgk/83a2/yEIgj3nNuouWM4xPtVs80O6F0osRBiBEgsR3Y7AAZMBuY8jcZNoBgmbJrn/vvsOANgHAJ/85Cf7JhO6UTiOg8fjQbFYRKFgzTbCn/3sZ/h//st/MXRsLBbD/3juOWQyGXzuc5+zpD69SpWoaQPBAq0wE0Q3sbUkYEuxzWFFEUCuiBB4ALIIsqXoaknYHDvHY2Cdw9YSj5IEcMXNWJo/wjvt1ZMgTPCpon4c1/PcRodr0iFc+mLb+XRdEW7uw0Mzc1ffuzjPqAb79N58e9mjf3Sd+jodSixEGIESCxHdzmRAgMABqzkSN4n60JPQBPffd18EZW/NQCBA3poNcJUDnOfzeeZbIF74/vdb+s6dd94Jv9/PtC79wJ5P7sOe2/Z17Hz/5Y8f79i5CILQUNj06hAEHkPjgwiF/fD6Pchl8kinsli9lEQhX3+CNDQ6hj2fvAMAkFz9GMm1jw2fPjR0GULDlwEAzpw4jtMnjrd0GQPrHMaWZGE0AGWRhvp/wh5GRf17bxR+fIAeFBvc9YXCt5c92DOmmzX9AIDH2z31h4dmdqPOVvQT8TrTni4WBiuJhdxu8LQ1nagDJRYiup0tfgE+gcP5dHd5H0s8D+qZO0P3PskZUxYt9wO4B+WkQDrMlf/h05/+NEZHR62vWBfD8zy8Xi/y+TzTh2irsf2WFhf7emtxqwyNjmP7zmvtrkbHeeH7329JRO8VXvj+9zH/sXFBiuhy8gVw6SyQSgMAfH4Ptl2xBbywuXXU6/fA6/cgPBzE2VMXkc3oihMYHh3HXfd8EQBw/syPce70uuFqTO3Yg8ntcuiQl4HWhE1RhOLtCQDT09MUPoGwlSs1Y49YLIZYLFb1XiHXOwKn5POCQ1L3sx+frytsPvjhoZknr753Md7m6XWTBn0UdyFZqDO99Nfx5OwiCoUCJRYimkKJhYhuJuyRx3ZdJW563HbXoG8gYRPA/ffd9xBUWc6bsW3bNtz16U9bWaWegeO4irhpd3yXk6dOkbBJEAzJw+CCBc8Dvu6fOPYk6aycqbxY7ak5tX2sImoW8kWkU1n4ysImL/DYdsUWnD5+DqVSZzw/lLibRuBi68DAcOX1F7/4xZq+/xt/+IdM60cQjfj/s/fvQY7c93kv/PQVQAMDYAZz3Z3LXrjDJSlRIkMlpLixZNlS4lDHplwmWVL8yvKx4kSuOrFY0aFcx7EjXyol6qRCxamK7Ng+klVO+HLp15SOubYj2ZJsk17KpCiRFLnLWe4u57IzO4PB4N4A+vr+gekeXLpxv+P7qWJxAfy6+wcM0Jenv9/n+fSjj5Y9vnDhQtmNs0JOQSYp93pa3UN0v7z41rYHj70r4/RSGMCXAXyk1c1eembpEygWKVTx9XWv63LmiFx4UrAQ0QgULEQMMyGRhYdjsJHRQIHpRCljL2w+8vDDX8ZhwjlQbDFfXl52HX/X3Xfj3LlzHan+2N/fx/7+flPLDKunpyiK0HUditLYhWk3qKyOIMYEUQCUxv1eX+BvImR6ujih4SDK5nCJi9ccs842UInHczBnJjs0qyNE3cT9mwWIfbpfshvg8IM594vh+YyOd+12x2e4ES5NC9gI1ancychgoomqpwMhCcKhMJE8yGBn/WjfubASQWgqAJZjEZoK4CDaeDVmOyyfmatZJVpGRgZMHwD6HRODTyGnYOPKbs9uEqBeB00nfPhY1vXYuy1z+Na2Bx84VnBa8sFLzyx9+baPbP58s5s8bEF/wum1tMrg6+s1rChG6MabHSzE8+BY17AmYsyxg4U0DTq1phNDhpdjsBzgSdwkyhhrYfORhx/+HA5FTUmS8NGPfQznzp3r+nZlWcYf/sEf4OWXX2562enpafwf//bf1hRfBxWO4+zqzX7cIdza3Oz5Non+Y86EwewelFWk1WKbzWIbIxro0ATRKQGxW9wrXIrUe7173L6vYTnZvyrw+YyOjSCHA5/zheO7dlXMZ/pbpV5T2FRUR1ETACbCRQHA0A3sbZWL2zvrMUgBLwSRx+ziJGYXj0Rr6ZUMkOhOOy3LsVhYiTQsADEZGVYTxhNPOGodBNEzfulTn3J97frlnR7OBEWxMa84i3kZueFjZT3MCalYDe7AF14JuAmbAPCJS88sAcCjjbalH1ZqPgGXzqs/fktyb0OXvEUhdsTQNA0Gy1KwEFETnufBGgYFCxFDh5djcHKCx1ZWR57UTQJjLGw+8vDDJ1ASBPTZX/mVnomFj3/+89jY2Ghp2f39ffzhH/wBPvsrvzKUnmHd8t1shFa9OYkhRxRgLs21vx7DAPKKqxhE9I/TPfSAzclZbG+8DaBYNVoPn+THseUT3Z1UCdsbbyMn1xfmmbiz/x0AuwU9n1McRURV0eyKzl7iOfT9bETcbNgmgSDGEGZnHwhI5SE/qm577JYSmgrY/za0Jn5XAR/gImxuyxz++C0JP3uLa/v9JwC8/9IzS79x20c2v+I26NIzS+9H8Vz+/W5j3kzw+NIbftdpmhPDdy7dKIZh2NWbFCxEuMGybLF689DKgCCGBYE9qtwkcZMYW2ETwC9b//iFT36yZ6Lmyy+/3LKoabGxsYHHP//5oRU3Ld9NVVWh9fgO4dbWFhYXF3u6TWK4+LG3PQgX3Ko3/AAm8RRe7OWU+sLt+zzueLN2ivSlaQ1vRPrXbm3xrz/7uZ5t69rl1/G7jze+vWPLJ3o6v997/HP1A3cMA5Dzri8XcgqkgNeuzCxNQOc4FlLAa49LJ3P2a6rSvZPKQk6xw4sWViLYuhatOT7JFPA9fg8SIwKhI2Fm0sOCo+t7osdsTeXhkY4qJJOxDFRFR5JxrVq04TgWcyWV0UanWtYdRMxKQlMBLKxE7MfpZnxAWbYonrps5wuvBPCeaQW3hl3PA08A+PKlZ5aeAPAdAK+UvLaCoph5otYU0iqDf/+9oPsAnitWbI4wpmlCVVXwHAeOgoUIFxiGoWAhYijhGGA5wGMrq0HWSNwcZ8ZZ2Hw3UGztvvvuu3u20c02RU0LS9z8qQcfxNmzZ4dS4BQEoWherao9a03f2twkYZOoibuoSVQyLbNApP44YsCoIWoCQDqRw+RMUQxYPDWD3a045Ewegshj8dSMPe5gL43kwVEIiKr40a3Tio0ru1g+MwePT0QgJGFhJVLm/enEOntYlcopMMMTAI58mQiil6TO8MBhFfHOegxJPQM0oDFxh0FdnsPU7kxSbjhEq10qRc2d9VjZTY5GMCcnwMh5V1/P//1vJ/H//Ei8lrgJFNvLH4RLKFAtfu2lIN5MuP/ezUio2VUOLZquQ6dgIaIOFCxEDCMcA6wEeGzLOpIKVR2PK+N8dv9+AHjXu98N0zSH8iC/sbGB//o7v9PSsnfffTd+4ZOf7LsgynEcGIaBqqo9aX+IHRx0fRvEaLC6ulqVpGzx1PnzPZ5N7zmzuooHPvxhx9deuHiRwriGGKZQu8pWzuSRScoIhCS7/dtpTKmo2W103cDGlV2cvuO4HVykKjr2dxL1F46nAa8H8IrI6yY2MuQlRvSHnfVYU7+b2cVJW9Qs5JS6Yn6ncBI1W/q98xwQ8hd/gw6kVaZRcbMp0iqDX3spiG9t1wgQ83pGvlqzEgoWIhrBChZSNY1a04mh4phUvGNI4uZ4Ms7CJgDA6/VCURS7enBcePnll7H/+c/jN37zN/s9laK3iyhCVVXoXW5/uLK2BjzwQFe3MWqkD65j+9q3+j2NnnNmdRUPjPF3ZbXG+7+ytkbC5jDTQNXVznoMs4tGmb+eRSYp90xgKcUSN5fPzIHlWEzPh6AWNFfBJWR6IKJ4XDdvysDskYjRO0mWIAB/isFBNAUxqWMGRxYfWaiQGeff48JKxP799TI5vWOi5iFmeAJMNu+YkA4ciZuPvSuNn1qpXU3eCG8mePz779Wu1ATLwpwJt72tYYWChYhGEHgeumH03DaMINrhmMTBzzPYlslSYdygIxoOzbUPxc1x8p/Z2NjAc88915Mk+HowDANRFKFpGlS1e559m5SM3jTp+HXcuJrq9zQIgughum5gZz2G+F4agfBRZX8mUb8V9url1/HYzz/U4pbfBPAl11fzhwKPJW4urERg6EaV959k8vgxtcJ2pGT3/1SLsyOIVli5xGEFkwAmy55XYeDPxOtV40tFTVXRBlfUtHw062DOhMHsxFxb0q0Ky/933YffuieFY1LzF6RplcEfvyXVDAqy5xMJFqtJxxgrWIha04lacCwL9rB6k1rTiWEhJBZvapO4OV6QsHmIaZpQFAU8z0MQhH5Pp2fE9vf7PYUyeJ4Hy7JQFKUrB9BcLodYLIZIhIwBCaLfmOsxmA1U/rF3LgLh4fMRHgXyOaVnnn5uKEz5sSCfU7C7FbcFmIWVCNQrWtk8/Rif4zgxvAio7hSamgnaoqahG7hxLdoTUdN7GMxl0YioaS5EGhMIRaEobu7WtgN6MSrgn/9FBO+ZUfGTKzl84FgBE0Ltc8E3Ezz++C0J39r2IK02INAF/Q2JseOA3ZpOwUJEDazWdAoWIoaJkMiCZYAdWQcFpo8HJGxWoB36iYiiSHcw+wTLsvB4PFAUpSveLlfW1hC5776Or5cYLV64eLFoXTCmXLx4EV984gnH1zpV+ax/9e8bGme+sgnu//ixjmyT6B4vevJY4jovKB5w1RdSluCysBIBexiwsnFl11GE/ZmHHsJSRWjcOPjkEoPDo48+Wvb44gsv4IWLF6vGhaYCmD1MQDcOrRd6cWPBW+Gl27CoKTbxe5e8RXEzmqg79MWogBejAn4NwK1hDcclvcyDM60weDMp4HKCb0zMtAhIYxUY1CiarsMwTfCHvvcE4QTHcWBYFhpVbxJDwoTAQggw2MhoJG6OASRsOmAYBgqFAkRRHCvfzUGCYRhb3Oy07+aFCxfwrne/Gz6fr/5gYmyJxWJj7SN5EIthrY6wq7K9OUswE3L9QUTfOeB0RxGyWyQPMvBKAiZngnZbulPL7tLiomsQGEH0gsrv39qVK1VjKtvAey1qslzxfLeuqMlzMOemmhM1LQISTKAhcdPizQSPNxN87SCgRrc9xr6a9TAMA8phajpd+xBusBQsRAwZXo7BcoDHVlaHapC6OcqQsOmCaZq2uEntGf1DFEXoug5F6dzJfSwWw7//1V/FfffdB1+DqfCrZ87QhfGYcPG4glvitGvMCiaikvtJq8qauDTdGUP5z372s3jssceqnv/CF76Axx9/vCPbIEaT3a24nZJuJbhvXNkFSr6aF194wVFIIoheceHChbLHld0ATm3gAylqikKxUrMd4SsgwRSFYlu61oMbISxb9NSk9vOGUDUNHMuCp2AhogYULEQME16OwckJHhsZDXkq3RxZ6KhVB0VRwHEcRFHs91TGFo7j7OrNTrU+5HI5fOtbTSR9f/jDJGyOCdsBHdsB8hBaD+nYXCr0ZFu7u7t47bVXHZ9vhBe/+e87PSVXonvNVY+m4td7Or9UfPwC0nbWYxBEHlLAC8+hQFS4eiTOOLX8EkQvufDss66vNd0G3iH6ImqWruv4DJhYCsh0sSLf6ymKmq1Ul44xumHAoGAhog4ULEQMExwDLAdI3BxlSNhsAF3X7epNOsD3h1LfTYIgRou/+qtv4tLl16uev7G13YfZjAE+Ecj3RrTuFTeuRbF8Zg4en4hASAK7wmD/Wg7TBlmOEIPLgV8tExf3tuJ9ETXrbreToqYFyxZbwyckMPF0Z/dJPAdzcoKqNNuAgoWIRrCChTRd77h1GEF0Go4BTk7w2JZ1JBWyUhg1SNhsEPLd7D+W7yZBdJMf2fRgRq79G3+qR3PpJ7fv87jjzdqi0MXjClW3DiFm0A9G1btbKdVj9MOglRNnF4rVmxEf3jRS+FsSx4kB4KU7nEVDr0+0xcXkQQYH0VTX51IpatbdbjdEzbIJicX15xUwabm9/ZLXA3PCR4JmB7GChQRqTSdqwHMcWJaFqqr9ngpB1OWYVLxZQ+LmaEFHqSawfDcFQSDvGYIYUeqJmsQRt8R5EjaHEatSqpUgjYxcbB91CA0QTQZTRucrew5YHQpTv21I1w27cpPlWEzOBKEWdEevwmTHZ0kQ7kgBb83XkwcZ7Kx3P6zOSdSsud1ui5plkxNhekUgEiyKnLkCoGi1KzlFoThHnwh4PQBPlYXdwDAMFBSFgoWImrAMA48oUrAQMRQckziILINonq5jRgVS51pAVVUYhgFBEKg1nSBGlNXVVVdf1afOn+/xbHrPmdVVPPDhDzu+9sLFi2OdGD/WBKRi4Ec8XfXS/TkflrTOe9kdcDqe9TfWnpvPKdi4smuLN7OLk47jXuvkBAmiDnIm7/i8oRtIJ3J9aT8fKFGzFJYFJC9MqUIMNoyi0Mky5JnZJ1RNA8dx4Kk1naiBwPPQdR0ataYTA860l4XAAtsyfVdHARI2W0TXdZimCUEQ6O4lQXSDtAzG6Efa4iKAQ2HvgQf6sP3BYLXG+7+ytlYUNhUVzE5vBM6q7WR50CGsP5heDxhUC5siunOjb0pv7iI6n1NwsJXEPfI0pJTznEjYJHrJPa8HHJ/fZrN4gR9AUTMgFUN3Bun8lmUBLwV59htd14vFHRQsRNSAs1rTKViIGHBCYvE4t5vTQZlCww1dFbaBYRhQFAWCIAytsfatZ8/2ewoE4Yymj1zAyajBGEbv/kaV29EY0CFsMDm2fAI/+dFPAAD2t7+P/Z2XG152euFuTB+7CwDw0vPfwUvPfaelOTAxFZJKF93EYHPM8Hd9G02LmpK3aFVBEC5QsBDRCBQsRAwLIZGFh2OwkdFI3Bxi6KqwTUzThKIo4HkegjBcrTHnzp3DWRI2CYIgiA7ik/w4dfYOAIBX3AWjX2542eMnjuHYqeKyV998w35eCnhh6IajX2Y97r3vPkQikbLnxsFOghgcKm09rqytYW1trevbbVrUBGBGQl2fFzEaULAQ0Qg8x4FlGKhaP7qwCKIxvByD5QBP4uYQQ0eiDqEdGiWLotjz1oxWxMn7z53DuXPnujAbghgNXrh4EVd6cOE5qFy8eBFffOIJx9c2Nzd7PBti3Fk+Mweg6Em4sx5DOtl4cvJ9997r6pdLEL2g0tbjAtB1YbMVURNA0cOSIBrEDhYSBLDUmk64wLIsBQsNOHe+NgFRObIf2akzfgLAPRXPvXVaRiKsdnpqPcPLMTgdFLCR0ZCvUDfv2ffjtqSvxTUfAwBcZvbxErPd5iwJN0jY7CCGYaBQKEAUxZ74bp47dw4f/djHIElS17dFEIMOx7GYXgjB4xMhBbyQM3nImQLieynoevMnUbFYbKwDcg5isboX3go6c3L64z/+QXziEz9X9fxXvvJH+MpXvtKRbRCjAcuxOH5qBm9f3mm4enNza6vLsyKI2lTeJOv2sYXj2NZETQBMLEWt6ETTqKpKwUJEXShYaHApFTVbRcpxQy1sAgDHwK7cLBU3p5T2ZbNJtCqMEo1AwmaHMU3TFjedfGfuuvtufO1rX2t7O+fOncMvfPKTba+HIEaBysoUoNi6KgW8CE35ceNatGER5FVuH8fM7vueDTpZRsM+m6s55hIX78i25ubm8M533un4PEEAwMaVXUgTXkzPF9tkl8/MYePKbkO/6z95+uluT48gavKES/V7N2hH1AQAZGQw+QLQaHtx5qh62jFMjudg+r1AZco5MXJQsBDRCBQsNNicPnMap8+cbmqZb/z5N7o0m/5giZs7so60Wl7EMTU1hXvuraxVrc1LL7yEg4ODTk6RcICEzS6hKAo4joMgCGUH9+XlZXzoQx/CN77R+g5g3EXN5eVlbGxs9HsaxIBQeRFXyClQFQ0enwhB5CGIPI6fmsHV1280tL63uCTeQrKbUx4KNtg0tvjetEs8/vjjePzxx3uyLWI4KVZg56EWNCysRMAe/u7dxM0shrtigBgP1A5VvVtYx0OPr5ge3rSoaaHpxf8aHWvhEibHZGQg6Cf/zjGAgoWIRqBgocHl9JnT+NBPfKipZUZN2ASK4uain8O2DCSVo2P1ZGSy6c/n6pWrJGz2ABI2u4iu6zBNs8p386Mf+xiWlpfx9a99Dfv7+w2vT5Iku/18nPnghz6EP/yDP+j3NIgBITQVsEXNeDSF3a2jKsKFlQhCUwEIIo/QVADJg0y/pkm0ARMQ+z0FYkBIHmTglQRMzgRripsyo+EvhXX4MVyhfsRo8neC802iTgrwHRM1u0UqC0bRYM5NAj2wayL6CwULEY1AwULEoHNM4sBRAfpQQEebLuPmu3mOwnta5ty5c3jz8mU899xz/Z4KMQAEwkW/ElXRykRNANjbiiM0FQBQFDkXViJVy1cyv85i6mbti66n8L0WZzs83KZP4g7FvRVFhYHv8XvYZrMtb4N732kgXrvdHQCYJaryIY7Y3YqD5Vj7psaJswtNr2P7f3RhYgThQpSpv59rh4EXNS3yBTCbezAXIoBINx1GHQoWIhqBgoWIQWfOx0HiaR826JCw2QMs301BEMDTncuO8Auf/CRuPXsW3/zGN6gtnQBQFDYr0XUDhZxiX+w1Qj1RkygigMUtRqgtYZNdCgNL4Y7NiRgfLNHGunFBEONKpaiZScqDKWpaGAaYG1FgcgKm19PfuXipG6AXULAQ0QgULDQY3Nxex/e/93f9nsbAkkknm/58MmmyOOsFpLL1EFVVi6baFb6bRGu0WvVqGIb9tyCGH+Mw8dzrE8FxbFkCuiDy9sWelZJen2JV5+rqKs6srjqOeOr8+fYmPQScWV3FAx/+sONrL1y8ONaJ8URtcnIW1y6/DgDY397G/p5cZ4kjTG4beaW4bHx/r+bYnfUY5HQBgsf5VOYWPQQBdKOC6D+36VOOzyeZQntV7xWiZiGnNCRqCiIPKeB1/e00gxQ4CgWaXgjb/y7ICuRMvuyYXEY8DQbptrffFjwHc2Ea4Elw6zYULEQ0AgUL9Z98XkYiHu33NAYWTVOb/nw0jXzfewEJmz3G8t0UBKGsNZ3oHSzLQhRFqKpKhtUjQDqRQyAk2X57W9eiUBUNXp9Y1nq+v5OEnMk3sMbiMmdWV/HAAw90adaDz2qN939lbY2ETcKV7Y238buPf67FpTcBfL3h0W6+uSHTg2NqfesJgugFt+mTrq/9qXgVQFFsDEWaq0CeCPnKRM2NK7vuQuIhUsCLxVMztjd1u5QJm/PltiGGbrgGfA0Emg4mnoY5E+73TMYCO1iI58HRNRDhgh0sRL6bBEE0AQmbfcAwDCiHnjOUGNgfGIaBKIrQNA2qOsR3UZposR5VkgcZTM1OwOMT4fGJOH3H8aoxmaTcoKhJEESrKOhOdcUB1/wNKJEqNYkhIjQVwNziZMtiY6OipiDyHRU161Er4GtgaDT9negYmqbBYFkKFiJqwvM8FQERBNEwdETpE6ZpQlEU8DwPQSAD9X5hHTQVRRm+lgevB2bQ3+9ZDAQbV3Zx/NRMWeWIRfIgg72KUCGCIDrP874cpozOixcHbHvCw6OPPlplKzEOdhLE4PDfvvSlsscXLlzAhWefBQAsnppBICS1tF5DN5BOytjbitcVNTmOLRM1928msb+TaGm7peyfPFrH5e+v2/9eWInYAV8DL24SPccwDLt6k4KFCIIgiHYhYbPPaIcJcKIokudMn2BZFh6PB4qitOS7aZ481oVZEc2gH7a7SQEvpIkjcTOTkFu+kHrh4kVcWVvr1BSHjosXL+KLTzzh+Nrm5maPZ0MMFC7tYQpj4iZHrWPjBsex8Hqrbypls417q44zlqhp6AZ2t+Ku9grtsrASKUtN74SoWYvSgC8SNwknTNOEqqrgOY462AiCIIi2IGFzADAMA4VCAaIoUsl9n2AYxhY3yXdzeCkGBHWm5TwWi421j+RBLIa1bgu7ig4zXl/8YOYmujsPonHyCphYyvXl0FQAoUj/K8knshzwdvHfTz/9NCSptYo4wpmJYAATwQD8fl/NrpN8vgA5KyMWS0BVhtj2pU0qbxJVHlsKOcX2h+4G0wthW0At5JSedTFUipsP3BXAf1i43JNtO/GlS3586Y3+75+IcjRdh07BQgRBEEQbkLA5IJimaYubdNeyf4iiCF3Xoarq8LWmEx3hLS6JsEnepVlGwz6bqznmLTbZ1jbUr70GKPVvJDBzE+A/6JxQT3QIOQ8mlmzLby40FSgL7OonXuPo4nhra6uPM2mOqcgkgsGjAJlsVsZBrH6bca8ITwYxMxtp2ELH6/XA6/VgKjKJRCKF3Z29gXkvvaTWTaJ4NIXdLgqNEyHJDvUxdANb16I9/RuUipsE4QYFCxEEQRDtQMLmgKEoCjiOgyAIdNeyT3AcB4ZhGvbdnJG7ewKmckDCM34Xgv3iVW6/31MYCDbYNLb47e5upAFREwDM3XR35zHuKCqY3YO2VlEqahq60fd2U5kFEGLhTw/HcZTjWKycXILX6yl7XvL7MBWZxEEsDr//qOo0n88jEU8hny/0ZH6CKGBp+VjV/JohHA5iYiKA9eubPZv3oOB2k2ibyWJ3q70bRLXw+sSymw3drAqthSVuojrbjyDK0DQNJsuCp2AhgiAIognoqDGA6LoO0zTJd7OPNOO7+SObrV/oNcpL8wrWQ9QiT4wmH/3oR/HRj3606vknn3wSTz75ZB9mNEZoOpid9iwXKis1t65FO2YJ0Q4bwNCc5TiJmhYcx2JmtrwS1hI85WwON3f2uioUer0erJxcAteBJG2OY3HqlhXouoF0OoNkPDUWXpx/28RNIq9P7FhqeWnS+t5WvK+/y531GJJeEVjo2xSIIUE3DBiqSq3pBEEQRMMMySn/+EG+m/3H8t3UNA2q2l9vML/GAiBhsxU4jsX0QsgOTajH/DoHb53r7L/G9zows8Fm2ZjAKa12MNYlLo4oU7tdvaFtLS/j/vvvr3r++eefb3vdRA0Mo1ip2UJomoXXJ2JucdJ+vLMeGwhRc5iYmY20XAkp+X04dcsKtm/cRCLu7n3aKo2Kmvl8AUZJe7Pk99Ucz3EswuEgwuFgT8TZYcFKEu80yYMMDqI1vh+SF/A0Zi9QRel3d7LED1nVATlftn9JHmRb2wYxdtit6RQsRBAEQTQACZsDjOW7KQgCtWT0Ef7wjrGb7+ajjz7atW0/4ZJK3UtEXxgTkyd7uMU3O7q2hZWIHZrQCIsZ+q0BgN/kMW3UFiduAxDl2xc2/8f/+GN852++VfX8ja0ut8KPOUw0AdQJdOE41vWmAMexWFiJ2BVhO+uxriU6t4IAFmHTWTAcpG/WVGSy/qA6HDs+j5nZCBLxVEc8OcOTQUxFJmsKrnI2h0QiiXQq47g9K2AoHA7W3JYlzlrzlrO5kavinDGd96WlN4a6JWrKmfxRK3glPAdzZhLwtuErXbKsGa4IelNUMDeira+7SALADwD8TclzKwDeD+BEuysfFNjD9mtN671VwCCj6ToM0wR/aBNFEARBEE7QFfwQoKoqDMMg380+YvluWn+LUs6sjnaoyfSxu3H2nod6uMW/7NiaJkKSLWqqitagt1jxwjISiSASGYwglH4wFYlg1eW7vbm5iVyufUGT6B9MLFmspqrB3OIkJmdqi1IWe1vxgRI1JZPHj6lLEOBcafhUj+fjxkQw4FgNGd2LYSoy2VT7tyAImJmNYCoyia2N7ZbEQa/Xg2OL8zUFTV03Glp/OpVBOlVsN19cPlb3vVQKvIlEamRa1f+p6lz9rsLAn4nXy0RNQzewsx7rSMBPzePe5ES1ENlpRKFY0dlaNe7bAH7jto9sfsVtwKVnlt4P4D+gKHIOPRzLghUEqJpGAZYlGIYB5TA1nbrYCIIgCCdI2BwSLN9NQRDooN4nWJaFKIp9b0snGoPjWMyWtMhuXNltSNi851DYvPe++/DAAw84jvmt3/7tzkxygLnvvvvwaZdq5C8+8UTNlF9iwMnIQKp2S2gz1WN121z7gB+Cq6g5SPgdWrbz+QKiezGkUxksrRwrSyCP7hUFr5nZiKtQWAwiWmyoPZ3jWEwEA5D8EkRBqNtCns8XsH59synRLZuVsXtzD8eOzze8DICyVvUbN25CrVNdPIwIYKtEzY0ruy2Fb51WRQSMyu8ED8dT/YAPKPDAbvEzzQgM3poaqEuCL972kc267TC3fWTzOwC+c+mZpQcBfBlAuKuz6gEMw0AUBGi6Dl0nC6JSVE0DR8FCBEEQhAN0ZBgiDMOAoigQBIH8ZvoEwzAQRXEkP39mxPzNJmeDEMTiLm7/ZrIvSbAEMXAoKpiYu9jFcSyOn5qBFPACqF895paArl98G8bV1kOJ2KUwuPedbnn5Un7moYewtLhY9txT5893ZN3t4vV6q56zxMh8voBrb61jKjKJ8GQQgiDYbdrJRLJm4BBQbE9XFc2x4pHjWMwtzGJiwrli1A1LWG2WiYnWW6wlvw9nVk92zUe0F1Ra1lx84QW8cPEiAHRM1Lw/V1uULqNgACjfjqibeGOmRZ/NzvLztao0nbjtI5tfu/TM0tsAvo0REDcBgOc4sCxLN9MroGAhgiAIwgkSNocM0zShKAp4ni+r4iB6C1tyMvVLn/pU9zeoakC++YudhjAMMNl8sYprRBBEHtPzIQDFVrz43nBeDBNERzGMYgK6S1gQx7FYPjNne2oWcgp21mMtCS3tiJoAYGwmYN0+8vpEBMKN++QCQCjPA7vFfy8tLg6sZYh186WUQslNJl03EN2LIbpX/nnquoH165s4dctKzXOBxeVjeGvtWpkYORWZrFnxWQu/34d0qnHLAb9fwsxspG4laCMcOz4PyS9he+tm2+vqNZXfv7UrV8oeF3IKNq7sttx+Xl2p2Txi+53vnaBm63ktbvvI5g8uPbP0owC+39kp9Q+WYeARRaiaVmWDNM5QsBBBdI/w5AxOnrqtyaX+vitzGUS8Xqnpz+cH37sOINmdCRE2JGwOKdrhSY4oinTHcgxQMxkwOdohNkooclQd1KpX2ZW1NVzo5KSGjLW1NVy44PwJxGLtiVZEH2hB1GxHaLG4//77ce7cOXzzr76Jvd1d13Gzc3P44I9/EM899xyef/55+/nQVAALK8173fpTjC1sXnzhhSohaRDgONZRlGzUU1LXDWyub2Pl5BK2b9x0TFfnOBZTkUlbGD22OF83zKcWU5FJSH4J6VQGcjYHRVXLWsS9Xg8EUYDf78NEMFBTdC0GBcllaeh+v1RTBLXmPmziZuW+9EqJlUcmKXfMUxMAvvDlpwEAL37z39ccd/aeX8DE5Ek89vO99NCuyQ9u+8jm59pZwaG4+Rso+m6ODALPQ9d1aNSaXoYVLCRQazpBdIzw5DRONC1sjg9en9T05+P1fac7kyHKoCPBEGMYBgqFAkRRJN/NPnKJi3d1/TKjYp1Nd3Ubo4ycqR2Q4sba2tpY+0heWVvDhWef7fc0GuLsPb/Qs2353roG/NXvNjxeCiz0dH7/8N3fA3avVj3PxFKuCehen4jlM3N2unmnRE0AOHfuHB577DEcHOzj1ddedR135zvvxGOPPQYAtrDZqqhZidXyO2gsLR9vex35fAFvXnoLACBnZcf2dKs6k+W4tkRNC6/XU7MFvhESiRR2d/aqvmNRxGwx1i08KRwOIp8r4CDW3WNvJ6m1L9261nZq+KhQ11OzQb4I4JcxIi3pFpzVmk7BQmUYhoGColCwEEEQxJgz9sKmdaIwrC0epmna4ia1Y/SHS9xBv6dAdJBtNotjhr/f0xgK3mIHo4p4YvJkz7YlTTRn2cAL3p7OjxeqPRthGK5WE5WiZvIgg5316orciZCEyVn3BOX4XhrpZGftLEpFzZ31WFOp6wJYzDBLkMzBPM3xej2ulYler6esirFRdN3A9tZNnLplpeq1ysTxyuXS6cxhFaYMluOwtHysbfHSDVVVa1ZcWu33iUQKx4/PO35O8wszVdWew0iSGe75d5C3D4OA2ua2j2wmLj2z9BUAn+7E+gYJChZyR9U0cBwHnq6FCIIgxpLBPOPvISzDwOPxQFGUoT5JUBQFHMdBEARqTSeINniBH64Wx25xiYvjTbG68q8bvPOdd+In/sU/r3r+L/78L7G1daMncxhpXIKzJkISFlYidUXNqZkgZhfdhTEAkALepsXHRmllvSoM/KWw3vG5dIqJoHuYjtdXFDatKstm0sDz+QLSqUzN9ZeSTmVw82a0bBu6biART2F+Yabh7TZDo0FuqqLi7eubru3z8wuzePv6Zqen1xX+tEf70iHmax1e39cxgsKmBQULOaPrOgzDoGAhgmiDq1eu4hv4Rr+nMbDEY3F84y+a+3ziQ9RhMsyMvbBpIYoidF2HonQpoKUH6LoO0zTJd5MgiKHizjvvxL/82M9WPX9jaxt/8Rd/0YcZjT6CyJeJmvFoCrtb1SdeCysRO7UZcLZ28PpEsBxrV1h2Utzslljab5yqIQ9icaRTWfsmq9frxdzCDK691ZxAm0ikGhI2nUKJ7Pn5ulOtCQCeJitBt7duQhSEqspNye+D3y817ElKDDSvdHJlt31k8zuXnlnq5CoHDgoWcoaChQiiPa5euYqrV+hmnBsHBwf4xp+T8DuIkLBZAsdxdvXmsPrXkO8m0WmuXX4d3+z3JHrILXoIx8zareh/je/1aDb9Y9mYwCntWM0xr3CxjrRSPvnkk3juueeqnt/cHI5qrGFkIiTZoqabeFgqahq6gY0ru44J6VLAi+Uzc/YyqqJ1JPtxVEVNAI4X3OlUtkyky+fz8Ho9TYt3clZGIpFyFAMtaomagijU9eLUdQOFfMGelyAKDXtvchyL8GQQiXiq7liLzY0buGX1VJXn5lQkTMLmaPB2vycwrFCwkDMULEQQzSFLOiS5vZsBsm9090OyT8dEur39SRy5Ds2GcIL29hWwLGuLm8N6B9Ty3RQEATwd0LvOj9QRfzpBpwSkVrh6+XVcvfx6X7bdD+7Up/s9hYHAb/KYNtzTiQHgNkx2pHV/Y2MDGxsb7gNEqrroNCx/JBBVioccx+L4qRlIgaJfZy1REyhWce6sx+yKzcVTM7awaQnW33v5+zVT0VVVxxe+8IUygbtdUfNebR4inG/w9fvmhKKqkFBdgVgq0um6gXy+gJnZCLLXGxfvLK9NjmMdxUA5m3MVNQFgft69BV3O5hCLxZFOOf9tBFHAzGykrjA6MxtBOpVpOKDK8t2sbI+fCAbAcWzHEsW7hdt5QoJR8Cq339FtNZxy/j8f6+h2if5BwULO2MFCggCWOtkIoiZv3HZ0XI9wJt4r1T6uriks3iyMz+9qcymPzaXyrqX/baK2kGt9Rpe/P7jWSKMEqV4OMIe+m6qqQtMa84IaRFRVLXrNkO9mV6kn/nSCY4wfSa63wuYmr2JJE3q6TYsMa2CX7+9vLxKJIBJpP5F5WJmKRLC6uur42ubmJnK5nKto1Cjcncdg7KbrjmNPj+/foddwHIvlM3Pw+EQAxYT0rWvRur6IlghZ2t4OFBPOrZTzWmxt3cDL33u5jZmXM2P6BjoEzMk306naUc7KmIpMttRybYUCVYqMN26434yYCAYc29h13cD2jZuugqaFqhSDgeSsjGPH513HCYKAuYXZmiFClSQTSTvhvRTJL9WdV79xO0+Yhq8jwqbCtC9mKf1t8nk/gO90amWXnlk60al1DQsULOSOqqoULEQQBDHikLBZA0EQbHPuYb0DavluWu+FOEKW5dpVYiVMT09jetq5ks9N/OkEa2trXVt3Pb4tjXd737333YcHHnjA8bXf+u3f7vFses99992HTz/6qONrX3ziiY58N9k7F8Bioe31EHVoovtgdnGyTNTcuLLbcDVc8iADacKD0FQAk+9ZQfzF1u9Qs0vhlpetZHFxEZIkdWx93cKp+jCbzWEqMtl01aZFOlUubCYSKdcwIo5jHcXIfL6A7a2bTSWQW23mtcTNcDiIfK6AgwZN9d2E2mPH53Etv95UyFKvqTxPiMViiMXcq2ab5aqgQDQZYHKi5XW8NdXXS4KVDq/v3R1e39DAcxxYhoE6xIUZ3YCChQiCIEYbEjbrwHEcGIaxqx+HEcMwoBy2YpCRdrE18utf+xr29xuvknjwwQfxUw8+6Piam/jTCX7pU5/q2roJghgDDANMvH5VrIUgFk8LVEVrStS02FmPQU4XMPXhOzD14Tsan6Zu4GAv7RhO1AxWkJFHE4FDneuhhx7CmQphqd83J/x+Z6F1ZjaCmztR+3E6lYGqqpD8PkwEA01XJlaKfQf77iLiysmlqmpIq629GVHTIhFPIRwOufp8ArBbyxsVN53ES45jsbR8rOmQpV5SeZ5w4cIFXHj22Y6tX2FMvOLJw5yb6tg6e8yDl55ZevS2j2wmOrS+n+rQeoYSlmUpWMgBChYiCIIYXUjYbACWZSGKIlRVHdr2DtM0oSgKeJ6HIPSnvXgQ+MM/+APHkBKCIIhRhIkmgBYq2VRFa9m3MHmQ6Uvoz/KZOdsX1J9igMazaQaCRCLlKCAm4inMzEZw7Pg83spea+rvUrk+N4Hy2OK8Yyv89o3WRE2LWCxeU9gEiuKm1+dpqC3d7b17vR7MzEZqeocSA00YwCcAfLHdFR22oX+i3fWMAhQs5AwFCxEEQYwetEdvEIZhIIoiNE2Dqg5uu1M9tMO7t6Iojl0rxje+8Y2hFTVDU34szzYnSKuKBlVxPplVC9rIpg13iitra7jQ70n0kbW1NVy44PwJdLKFshM0HJbRB65efr1v82OiCUBurwJyWAhNBWxRs5Innniix7NpjWQ85eijeRCLYyoyabeKb25sN7zOygpMJ44tzjuG/cjZXNvelY0uHw4H4fV66laH1no/M7ORmq32/YS6LxriP1x6ZukrHajaHI4ffI+gYCFnKFiIIAhitCBhs0l4ngfLslAUZWhPEAzDQKFQgCiKY+W7+c1vfKMr6/1iDy6aBQ8PKdDZv1Uo4seNa9GBT5PtF2tra331OO03V9bWOtoq2WkybP+/txnR/Tep9LnLjckXAHZ8fHKnF0IAii3tW9eimNB4rGCuz7NqDo/X4yhs6rqBg1gcM7MRTAQDmIpMNty67fU6i73AkaemU1gQACQSScfnmyWfLzhWg1bi9Xpw6pYVRPdiOIjFHY9Nbi38FjOzkaYCiYiBIgzg2wDuanUFl55Z+jSABzszndHBDhbSNOjUml4GBQsRBEGMBiRstgDLsvB4PFAUZWi9a0zTtMXNcfCZ2djYaMpTsxl6IX6pBQ1yRmlqGctrzg0p4MXymbmWfPRGmSRTQMisfxFOANtMtm/bviooUBgTU7rL/ovngInuBcZsBDlkRPcqj+eXPNj1axD78NNSUmlsss3tL4aZ0FTA9gY9iBZ9OmUAfyformnU/Safz1e1aEemw66C5UEsjvBkEIIgYH5hBoV8oaGUdE+FoGilq3u9Htf2c4tOJY03UjVaysxsBFORSSQTSaRTWWSzMgRRwMxspG5bezgcRHQvNnBVm5c457/rNtu/feiA8u5Lzyw9A+Dnm63cvPTM0idA1Zo14XkerGFQsFAFFCxEEAQx/JCw2SIMw9ji5rD6bgKAoijgOA6CIIz0wVyWu1e5tM/murZuAFBg4NXEPuRkZ05EOY7F8pk5eHwiPD6RxM0K/lrYanhsoVBAKtV4MMswcYmL403xar+nUZNNXsUm7yJgeD0w5/rnJ6xwDN6Y6cP2MzKYOu3nXp+IqZnW05MbwdhMAPE29o2TvoaT0UurNeN7R8aaUSaHKNfd/XOrpFNZTEUmy54TBAHHFucdKw6LIT67WDm5CABYXD6G9eubdf0v/RVC4OLyMRTyhboCobXNduE4tiVfb45jMRWZrPqMGmEQqzYvcQf9nsIw8SCAE4dhQt+pN/jSM0thAF8GVWo2BMuyxerNQzGPKGIHC/E8uDHqZiMIghgVSNhsE1EUoes6FGV4q2N0XYdpmmPpu9kJ/pZv3O9sENB1AxtXdsvEzRNnF3DjWhT53PB+j/tBNLqPaLQ7lcAE0TQZueirWQPv4c0Mq5o7Hu1Owo5+8W3AxeO3Udif/Ud1x1RWaw7LDZpsVoaqqlWiXzgchKHrZcnopcuU+m2unFyqKW4KolDVZs5xbEOiZqdwa3PvJuFwEHJWRiI+ZOlRbTKlcxAyrf3mFI7BgW+gxJx3A/j2pWeWvgbgj277yObXKgdcembp3QB+DsWgoHDPZjYCMAxDwUIuaJoGg2UpWIggCGLIoL12B+A4zq7eJN9NYhiwxM3ZxUlbGLAqN0ncrA8TEGE2aQ1AjBCGAch5MNoAXRCqOpCpXZleKWomDzLY3WrMq7Fp2hQ1G8WtWhMAZkyfayv6q12fWX2stPNS8vkCsln3KtObO1FIfgler6euuHn8+HzN7eu6gWQiaa+vEo5j2xaKw+GQ67bT6YzdMs5xLCaCgZaqO52Ym59FNpsbmJb02/Qpx+e32SySTOup8xanVRH353zA1dbDwp5f8uCtqYG7LHgQwIOXnlkCgB8ASBw+//6+zGbEoGAhZwzDsKs3KViIIAhiOBi4M5hhZZR8NwVBAE93KkceXTews15Mtw5NBcAetqiTuFkf7oO3Apn2L0YHGWaye/6UQ42iFqsiB0QwaRQnUdP6/ZeO8frEjm73s5/9LB577DH8yq88hldfc5cT73znnfj857+AL3zhC3j88ccbWnetas2Q6cE/VY+5LjsIwqYTHMfW9bZcv76JlZNLZeLm9o2bZcsdW5yvWZmZTmWwfeOm/Zk5JaNLfqktn82JYMBxDm7hQDd3oghPBjE3P9uQL2c+X0A6lYHfL1Vth+NYHD8+j7evb7Y8/05ym+7cUn+bPok/7YDlR8Bo/4Z0QB14Yevd/Z7AKGIFC6maNrTXL93ANE2oqgqe48Yii4AgCGLYIfWqg1i+m6qqQhtiY25VVYsm2iPuu0kUcRI3d7fiSB50JjhiFGH8IuDvrAA0Lryr4MW8W+BPA7wlqLgq9El4V1QwO7FixeYQ0aioWTomkxhMb8pSalVrihj8zoN0KlNVsSkIQt3Uc103qsTNpeVjiO7FkM8XEIlM1hQ18/kCNjfKLVS2t27C6/WUVW5GIpMtC5terwfHKipGdd3A1sZ2zdCjRDyFfK6AlZNLNcXNfL6A9eub0HUDUcSwtHysqu1d8vvssKRx4t989nMAgMvf+8Oa45ZXH4A0MY/fffxz3Z8UMfAIPA/dMIb6+qUbaLoOnYKFCIIgBh4SNruAIAjF1g5VHdrWDst303ovhDtuLWad5C0uARXdE1N21mMoyCpmFyfBciwWVooX2yRuEp3mXYX2E+f7Imw24F85iLQiaiYPMjio5b0ZkGBOSICm9a0dvxlvzUcffRRnVlfLnnvq/Pmuzq8R8vmCo8/mzGwEclauGQxkiZvHjs/bgl6lSOq2XKWoaXEQi5eJkZLfV1dkdcLr9TgKk7s39xoSGS3R8tQtK65jdneiZX/z7Rs3cYv/VNU2pyLhgRA2/9uXvlT2+MKFC7jw7LNd2daps3cAAGKbtavuV245hYnJk12ZAzGccCwL9rB6c1ivX7oBBQsRBEEMPiRsdgmO48AwjF39OIwYhgFFUSAIArVh1MCtxayTTC+EED3e/vcoHk25euodRFPQdcMWNUncJLrJ5PQMpqZnIad3oGnuvnAebxge3yS2N95GTs72cIZHMIk0EE/3ZdvtMBGSsLASsQXLnfVY1e+5EeGzjIAEcyZ8+EBEvy59a1VrDhPRvVhVZWMjwUDAkUjpVK3oxkEs7uo7mYinquYyvzBjL9cIE8EAjh2frxIY06lMU2E++XwB0b2Yo1irqmqVWKnrBnZv7lXNfyIY6IhXKEGMC1ZrOgULVaNpGkyWJbsugiCIAYT2zF2EZVmIoghVVaEP6cmBaZpQFAU8z3fM1J/oH5MzQbAc6ypcWKJHqbjplYTuBYx0Aa9PxNTMBACgQF6hA8s9534UH/yph3D5pT9EOn7dddzx0x/AsVMfwO89/jlcvfx6D2dYhIkm6obyDCKhqYD9OwY6I2qaM2Eg0Dvv1eUzc47PcxxrV2sCwPFTM1VjJrIc8Hbx308//TQkaTA9YxPxFMLhkKNH5MrJJduP0o3iZ9H4sbmeQClnc1VzmV+YQTAYQHQv5lr9OBEM1GyBj+7VEMtrzNVKgC/FrT0+ncpAnzeqxrfrFdoJvvjEE2WPY7HmP49RIKUyeCnaPxuX7SzdpG8UjuPAsGxRzKPqTRvdMGCoKrWmEwRBDBgkbHYZhmEgiiI0TYOqDlfYRCnaoam4KIp0IK+gssWsk/zSpz4FAJDTeezfbM/zbmpmAizHIjRVrOzZ26oObwCK4oaqaFg8NQOWY+uKoZ2E41gEQhIET3HXlEnITQUZVQo16eTg+wQSA4phgNmNAzUq5rw+EYHw4AlmHMdgcuYoCMZJ1JQCXvs3DnRP1NzY2MDzzz+P7Z0dpFLuVa/bOzt4/vnnsbGxUTbHerAc6zjOaxwdp7a2tpqcdW/Z3LiBW1ar26g5jrVFxVgsXiXOCaKApeVjjonmTsjZXN3KxWxWdhQnJb8PKycXoaoqVEVDNitDEAWIglDTzxMoVljWqjx1w0pOrww1ckuNdxvv9Xr6Lmyura31dfuDwpsJHv/734b7PQ2iQVgKFnLEbk2nYCGCIIiBgYTNHsHzPFiWhaIoQ3vn0zAMFAoFiKJIvps9Rs4UsJ9LtLWOTEK2Rb/QVABen4iNK7uOF7pyJo+NK7tl4wF0VdycXghjej5U/tx8CHImjxvXonUvyCsr1JIHGezvJLoxVWLU0XQwuwc1k88rv2+DipOo2Ug1pw3LwpybArytVVk9+eSTePLJJ+uOu/TGZVx49s/LnpMz7hYF9ZBZwCtw4IagWaI0DMgpMEfy+yD5fdB1A4V8AYqqNiQoVtKI12S9/awgCBCa3HY7omI+VwDC5c8ZNeboNL5R4beb7LPOYmyCoa4CYvChYCFnNF2HYZrgD+3HCIIgiP5BwmYPYVkWHo8HiqIM7Z1P0zRtcZPuUg4X+ZyCq6/fwPKZOXh8IjyH1Y1u4mY+p1SJm4LINyQyNouTqGkhBbw15wlUCzV7W/Ha4ScE4UYDyedTM0HMLnbfW7cdVEXD/k6yfVFzIQI00epswYQlmIk2WvhFDhtXdltfHsAGg6E5y7ECc2qlgXMcWxQ50ZygadFI10ihhcrKerRzvHCaTy1rH6fxg3Cu8vZtbnPmsAxnywWL/Z1kUyL/7x2mnKfimzXH/cN3fw+8UL8qmiAAChZywzAMKIep6VT0QRAE0T+G5JR/dGAYxhY3h9V3EwAURQHHcRAEYezvUl64cKHfU2gYXTdssbJRcfP65R0snpqBxyc2JDI2iyDytqhp6AZ2t+JIHmQgiLy9XY9PRGgq4ChWVoqiNYUagqhFRgYTS9UUNRdWInYFc+n3dRhoStQUhWL7eQuiJgBw/5/7YNaygkjLYGp5lwb6X2XXa/L5ArZv3MTS8rGurF9VRqPaqpW29n7TiK2CG8tnvHWPawpzJDQ17EW8e7XlOTWD6feCGeS/ma9/np/DhhUspOn6UF/DdANV08BRsBBBEETfoL1vnxBFEbquQ1GGtw1J13WYpjn2vpsXnn2231NoCidx8/Qdx7FxZdfRz1JVtKbE0GaZCB359u2sx5BOymXbPXF2AYLIY3J2Aixffjfc6xMQOFx+2ESmcSe+v4drl1/HzRsHkGsIXCa3jbzyevcT0TNyMSioBpWipttvZhBpWtRciADtVJ+EJTA1/EeZhAjE26+kC00FML0QKgsTaoTX/vh7bW+704Qng1Wp3p3E4/U01I4+6Pj90tC9j/2byaaXEUTO3t9Yv1233+xVQcG8xkHwtiagKhzwxnSXLgmC/uLNorQMaAMkhvEcIHlhhif6PZOhg+c4sCw71NkB3YCChQiCIPoHCZt9hOM4u3pzWNs6yHezNySZzlY76LqB65d3bKGG5VhbrHQSapzE0BNnF3DjWrRtYadUrLREzdLtZpIyJmeCZZWdlQybyEQALz33Hbz03HcaGLkJ4OtdnUu95HOOYzG7ODm0omZl63xNUdPrgTk32Z6o2SNq+ZxyOnDqNR6Cy67ztS7OqxUaETXTqQzy+QJUVYUgCAhPBiEIjVfUig2Iv836djZCM6ntlTQ7H6fxygCILz+y7vw9TTIF/LXgHm4lpwv2d7yWuKkwJr4tyTBXggP52zXDEwAJiCMFyzDwiCIFC1VAwUIEQRD9gYTNPjNKvpuCIIxlC8afir1p5+oGVhhQM+KmJfAIIl9zfCsIIl/VLlmvEkvO5LG3FR8akWncURgTotl6JYOCDt4EMoyiqCm7+9dxh78Lz2G7oqporoL+REjCwkrEThofNOpWNQekYvv5EFApasajKej60XcjnOchFJxvhAwaXq+npqgZ3YvhIBavqpCP7sVwbHG+KgXcDclfP9Xezd8TOEodVxUVcjYHQeQhCAL8fqmmADkxEWhofk44Bf8IIg+4FHA7jVdrhID1m5BZ23LB+q02Im4CABNLDc1vmBgNBJ6HruvQqDW9DCtYSBjD6yKCIIh+QHvbAcDy3VRVdagTB1VVhWEY5Ls5ZFSKmyfOLrhWdOm60ZQY2ggF+Wi5ucVJbF2L2o9DUwG71Tx5kOlqKjvRG/40kMaU0XoVwwHboYsnwyiGBNUQPSpFzcJhoJaTBcOgp6TXrTIdIlHT6xMxV6cClTF9AIrC5r333YdIpPxv89T5812fZyNwHIulFWdPzXy+gO2tmzU9Jbe3boJjWUwE64uHXq8HgijUFPrcxE9HcfVQXIwiBo5jMRWZxFRkskoc5bji/JpNRxdEwfF9SX4JiXi137LbeDlbw+u1Rzzw4Q+XPb6ytoa1tbWGlm1K3MzIYICh+S0TowFntaZTsFAZhmGgoCgULEQQBNEDSNgcIARBsD1rhvXEwPLdtN4LMRzsrMcabnmzxgONiaH1SCdlFHIKPD4RgZCE03ccR/IgW+afCQDxvXTT6yYGD4UxcZPr8w2cBpLPS8OrgNqiZmWrd2X1YL8xNAPppOwaHmNGQkUfvCHAe+jxa1XFNrLfue/ee3FmdbUX02uaqcikYzu5lZJez8eY49imWr1nZiPY3rrpuq7KikddN7B+fbNuYI+uG4juxZBIpLC0fKxqPTOzkaaFzfn5Gcfn3SpAnSpXdd0YCD/OBx54oOzxBaBhYRMgcZMYfChYyB1V08BxHHhqTScIgugaJGwOGBzHgWEYu/pxGDEMA4qiQBAE8pcZIpptedtZj6Egq7agU298LbauRbF8Zq7Y2ujgpbmzHqNWc6Iz5BUwuwc1Rc1K8ayWqDnMKekAgIDUFVHz/s0CbjmoJWCzsCoqndjkVXxbKhekWhE1AWBzy93DsJ9YVY6VqKrakKjp9XqwtHKsKZ/NcDiIZDzlKPaFwtV/j62N7aZSyFWlOPeVk0tl4qbX68H8wgxu7kRrLF0yz8mgaxUqx7EITwbLqja9Xg9mZqsrptPpwfgtXqkQMWOx5rsPSNwkhgGe48AyDNQh7kDrBrquF7vaKFiIIAiiK5CwOYCwLAtRFKGq6tDe9TRNE4qigOf5pi66hpEZs/NhC6UoMDoeHuSG04WTNOFxbQE/iKag60bDYqgbqqLh7cs7mJwNIjTlhyDyMHQDciaPg7005Iy7ByJBOOIkXDaQfF4pntWyQBjmlHQbtjsXWLVFzfosaeXHDae/S6P7mT95+um25tItJL/k6Gm5veUsopfi9XqwcnLJXl7XjUMRMo+pyKSjyGexuHwMb61dK9sGx7FVyyQSzgJoPawqz0pxcyoyaVd21qKRIKW5+VnkcwXk8wVwHItji87j622rVzzxxBOur529a8X+t6poSB5ksb+TcBw76OLmr//oR3u2rW5xIjzb7ykMPSzLUrCQAxQsRBAE0T1I2BxQGIaBKIrQNA3qACR6top2eFIjiuLI3qH8p6qzP1on+R6/h3W2N63YyYMMVEXD4qkZsBxrCzdu4k6zYqgbum5gfyfhekFHEE2hqEAqa1cjMrFk8XENpIDX/t4D7qImx7E4fmoGUsALwEXU5DlA8gKdDhLSjWLYkdahm16ZHDA50bUk5dNn78Cps3dgf/tlKLmE6zjRF8b0sbtx7fLruHr59bLXrKCyRsRmiyxUqDAgYHAtUZyCbuRsrq6YWClq5vMFbG5s296Z0b0YVFV1FQc5jsWpW1awvbWLbFYGx7Fl67NIOvhYNoquG9jeuolTt6yUPT8zG4HfLyG6F6t6n4IoYGY20lAYkjXnQr4Aj9fjKBAfxOIDHRwEAHqFtmF1LAgiV/OYW3qMHiRx89dGQNgkOgcFCzlDwUIEQRCdh/aoAw5/aDitKMrQ+m4ahoFCoQBRFMl3s0Uks7dVr3Imj40ru7aY0Ii42YwYShC9gIklgXi6Ztu5RWX4Ty1RszJQqMoqodtBPJFQ0SO0iRZhVwwDzOYeEPA1LMKaXg/gFRsae+rsHfjgTz2Eyy+lkI5fdx03MXkSZ+95CN8EyoRNjmMbEpsrkRkNfymuI1wndbqfOIlxnsOWardKw0oR0s2LMxFPwev1OLa6A0VP75WTi8jnC44CK4C2vSnz+QISiVSVUCn5fVg5uQhVVW3fV9bB37MeHMe6prGrqjow1ZoA8L3JA8fns0ETKLE8nZqZaOgYWnmMrnlDkdrSiT5CwULO2MFCggB2RAs/CIIgegkJm0MAy7LweDxQFGVoWzpM07TFzVFrv3j00Ue7tu5a7WvdJn/oK1gqbgoijxvXoo5tks2KoQTRE1oQNd28GxsKFOpRurg5OQFmp0MWFYZRt5q1FAZpmHNTxYrULlIpItcTNbnD/Q7LHwmGg3wZ7eRpyXFszS6NpeXjdUVNi+heDKFwyFFAtWhWTGyWdCrjWoEpCEJXrGp03cDm+nbddv5esp6NO79Q8bPLJOSGj6FOx2jX8V0UN3/z20/iN7/9ZMfXS4wOFCzkjqqqFCxEDAS3XwpAko++hzt1xk8AuKfiubdOy0iEB7tTolWWNr2Y2ys/Z2r0M7oHdwIALjP7eInZ7sr8CBI2hwaGYWxxc5hPChRFAcdxEARhZFrTBzVttxPkcwquX96xxRwp4MXymTnXIBWnCy2vT3QdTxD9pjLR3E3UbCRQqKfp4n2+ycXEkjC7LGw2I2pW/n3qUe9ktNtMBAPO/po3bpaF4pQyFZm0KxQbSU3XdQPpdLmwmM8XimLjZLAn/tfNJqE7IWdzxWC5Bud7EIs3FXg0SDQlVjY7nio3iT5DwULOULAQMQiUipotryPHjaywKeXa/3wm0d1cjnGHhM0hQxRF6LoOVVWHtqVD13WYptlT383p6emebKcnsCzMSLCYZtwt8gqYaBzQdKiKZl84eXwiPIcCQi1x8+rrNxoeTxD9ojT8B2hc1HQS2cyZcHd/k6UYBph4bzx3XdF0ICN39T2XVsbubblUvOGosrNS1Jy5wcKfcj7GvNa5abaEU+K3nM25ipqW/yRwWJG40VhFopyVy4RNy4vzIBbH3MJsTT9LQRQ64lFZq93dDTmbQywWLxNGGwkV0nUDBzH370q/+BHN2Yt7m8niLS5Z9lzlMbTeDUISN4lhgoKFnKFgIWJQOH3mNE6fOd3UMt/48290aTaDx9TUFO65t7JWtTYvvfASDg6cLWmIzkHC5hDCcRwYhiHfzSaYnp7G8vIyNjY2Or7uK2trHV9nTUL+7gsoXhHm8Zmij5+iQj8MRykVK0+cXcCNa1HHFGin8SRuEoNEo4nmEyEJCysRd1GzFzcaSjEM+3fZb5h0DmaX37dju38JlaKm9feZMX24vQfBbq0iOlQfJhJJh5FFZmYjdoXnVklQUD0sD8ujx8XlrHCffK6A+YUZx2UnJgIdEQlrtcJXoqqqHWpUSSKeguSXaoqxB7H4QB5jpg3nKo1p+KqETaD5YyiJm8SwQcFCzlCwENFvTp85jQ/9xIeaWmachM3JyGTTn8/VK1dJ2OwBtNccUkbJd1MQBPA9OIB/9GMfw+Of/3zH19trH0yzy55oNiwLcyFSJW7OLk7afpvWhVaj4ubpO467jieIXsBxrP0dBmqLmpXem/s3k9jfSRwNOPyNQOxduJeTqOn1iQ23YDeDqmhVwlgZ+UJZ8rwT1y6/jm8C2N9+q04quo7NG0/jWklwUPIgg70td6GqUQ/OxcVFSFKPhOc2cPusBVGwxTynNPFa1Bt7EIvDMHTHSsjIdLhtYZPj2KZayKN7sZrCZC1Bd1CrNQFgtcKyJhaLIRar7T9N4iYx6lCwkDMULEQQBNE8JGwOMZbvpqZpNcMGBh1VVYveMl323Tx79ix+4ZOfxB/+wR90bRvdQkWf7mg7iJvWRVJoKgD2UFioJW5ev7xjV8fVG08Q3aRSCGtG1KxqU++HqBlNVImale30naZKzK2cUywJxJwqDYvBOFcvv16Wcl5jSwDeKnumXlBQ6d9SzuRdxz/00ENVXsi/9du/3cCcesvcwgzkrIybO9Gy560W9Hy+0JWkb6v9vVLcFAShZkJ7Izi13DtRy1u0lFqi5/aNmwNZrQkAn64IGbxw4QIuPPts3eVI3CRGHTtYSNOgD2mhRregYCGCIIjGIWFzBOAPzaZHwXdTEISutqafO3cOZ8+exde/9jVcvnwZ+/v7ba/z74Tup5tFmVzXt+FKhbgJwFHc3N2KO/oTuo0ncZPoJZVCWK0W57rem6JQTAXne3exwUQTRU/LErotagLA9HwIUsCDG9eiTYlGl8QCblNary7f5GvfrDtekU5/41q05vhBwykE0Ov1VIl7HMdiYqL4N97eutn0dvz+8krViWDAMdDHrc17ZjZiBw61giXKuqHrBtavbzYc9uPW1p5IpDoSVDSIkLhJjAM8z4M1DAoWqoCChYhec3N7Hd//3t/1exoDSyadbPrzyaTdrYaIzkHC5ohg+W5a1Y/DiGEYUA5bL7ppnD09PY1f+OQnO7a+voqOvcJF3FQVHdPzIbAca1e3NSpunji7gHg0BV0fTjGeGC5CU34IYvGQ16ioaegGtq5FIWfyRwNEoVip2QNvYIt6oqZxWEndyWo17vA3zXIspIAXp+84Xv1Z1OBFbx4vehsb2ywLKxFIgWIie+Xf0usTMbs4iRnDB1wqju+1XUgj5POFqmpGp1ZqKz09kUi1lPRtfectIpFJVwFwe+smvF5PVdDPsePz2OX2GqqoLFtucb5uG/rWxnZT78sphCifL2B3Z6+pufWaX/rUp9pavlVxc2ElYgcQASRuEoMNy7LF6s1DMY8oYgcL8Ty4Hp57EONJPi8jER+um8W9RNPUpj8fTRveztphgoTNEYJlWYiiCFVVHatBhgHTNKEoCnieb9iXi+gRDuLm/k4CakGzRc1GxE05XbDHTc4E8dq/+9MeTJ4Yd3YaHNdsvBj/a/9bs1NpjlS2rqjZrepn+fU8jp+agRTw2pXW8WgKuzUSyrtN6Xt3EjWtKjW9cRvKgSGdrt5vSocVl622g1vVnkfr88Hvl1y9N7e3buLULStlz3Eci2PH5+H1eup6YFocW5yvGfIDADd3ok35hQqi4NjavrvTXDXxsNJO5aYlbgoi71x9TeImMSAwDEPBQi5omgaDZSlYiCAIwgHaM44YDMNAFMWh993UNA2GYUAURWq9GCQcxE1LxCwVNwUP7+rLlzzIwNANzC5OVlUTEQRRQkYueliW0CtREzgSUqYXwpieL3pmTs4EIQW8NZPKu4XTe7fmUFphCgD7ahayqIHTB/P44Vh5mKuuXPT7fUgkUg2noFduw0kIPLY4h2tvrTuLYYc+nk4t5FORSYTCISQTSSTi1RWkHMdiIhjAzGyk7o1JOZtrOugnEglXPafrRlPiaL+4xDm/1yTTXBVuZYifJW7urMcaCvGTAl53MZTETWKAoGAhZwzDsKs3KViIIAjiCFIVRhSe58GyLBRFGdoTAsMwUCgUIIpiV303iSZxETcN3bCFhen5EASRcw3zSCdlpJODfzFKEH0jIxdb0EvopahZyv5OApmEjOOnZiCIvC2mXL/caB1s+0wvhGuKmq7p6AOaueBkt1J5M1IQBQiCgOjeVlPrFkQBp06vwDCcq50EQcCx4/PY3HD2hz6IxTEVmXT0s+Q4FlORSUxFJgEUBcriNpvrsmi2AtXr9djbLMWpynUQucQddGxdlSF+pZWbjYibNSs9LXEzEuyp3QZBOGEFC6mHxQ5EEdM0oaoqeI7rqnUXQRDEMEHC5gjDsiw8Hg8URRnaEwLTNG1xc1AP3j+tnO7q+mVGw0X+ZtOVHV3FQdxMJ2WoV7TGAgsIgnBHzrctanp9IqYXQnYFYz0M3cD+TtJ1nfmcgrcv79it6R6fCEHkoSrdD3oITQXsitHK914pamaS8lDscxRVhQRf2XPhcBBer8cO6xEFAelUpulqTb/fB45jXYN2gKJ354mTS9jcuFElbum6gWQi6SgkViL5fXXHVKKqalNVlhzHYmnlmONr3UiJHxaaCeVrWtzMF4BBaHflOZiTEz0NaiMGD4HnoRsGNAoWKkPTdegULEQQBAGAhM2Rh2EYW9wcVt9NAFAUBRzHQRCEsTt4SyaPY4YfSW6AhE3AUdx0SmPlOLbjwSYEMbIoatuipiX2NSpqWlgt5m7r1g/Fz+UzxeCeWsLmkiZgSm9djDjgdGzyKkJTAdvmwum9W+EoQNFzs1TUlEwefjhXETrXKvaOfK4AhMufmwgGMBEM2JWU2azcUpt1I4IkUBQlT92ygps70apAIaWLgnUzYjjHsVg5ueRYDdpqi34/mDGdBeAsVMhM659118RNTS/+NwAwcr7YHi95+z0Voo9wLAv2sHpzWDvRugEFCxEEQRQZe2HTSt4b9VZnURSh6zpUVR3aEwJd12Ga5sD5bj7w4Q93bd0Xnn22a+vuCDXETUtwCIQkLJ/h++LJRxBDhaIWf0slFfbtipqFnNLQ7640IKiZ9HM37s/5IJrt7ae/fkK3RU0A2LoWrRI1A6FiuE5lkJBk8vjnankITilPtTWz9kmnM5hfmHF8rZX0c4uJYMDRv9MNQRCwtHwMqqoincogm82B41hHj81O4fF6wHFs3e/lRDCAY8fnHStPdd0Y+CT0Uv6p6lxxqsLAn4nX21p318TNQcEwwOweAJK3KHCO+Pk64Y7Vmk7BQtVomgaTZcEPQqU1QRBEHxj7vZ+Vwi0IwsC2OncKjuPAMAz5bnaYBx54oGvrdhQ2B60lq07lZunFk1OacrLqGYIYQzogagLA7OJkWVv21rVoQ5u3KiMtYWRnPWYHg7VCu6ImgDJRc2c9Via2ln42qqJVCTNulZqDgqqotpel02vNYLWve70eHDs+X/W6rhvYvnHTTjd3QhCEMu/MRlFVtawC0xIta2FVYe66pKJPBAOIRCZrtrlvbWwPrhDXBAI6cx4z8uImULTo2Nwr+n9KXhI4xxiO48CwbFHMG9LrmW6gGwYMVaXWdIIgxpKxFzaBI3GT4ziIotjv6XSVUfLdFARh/O5MDqrXlIO46XbxVMlrvZ4rQQwaeQVMNF4mak7NBJsWNecOk5KB6rbselgipiUmWv9vR9wEgA8++DA++FMP4fJLf4h03L0ybWLyJM7e8wv45tefxje/dr7stUqRtfKzuXEtWlOQ+ZmHHsLS4mLZc0+dP+8yundE92KOQmIj1YwW4ckgjh2fx0EsjlA45Cgq7t7cK2s1dxM3G+UgFkc6lXVtk+c4FpJfKrbWTwQc5+T1erBychG6bqBQUqHaiGfn9o2bQ5GEXsqjjz5a9vjiCy/ghYsXARSrpUtptVp6IMRNRYdxuY1KWpEDe3bW/XXDqLLqqCLohxkJtT4HYihgKVjIEbs1nYKFCIIYM8ZMFaqNrut2NeAo3+myfDc1TatKYR0mVFWFYRjj4bsZ8MGcnhtMUdOihrhZ2jJKEKMEv3GzK1VOgXBR4GlU1AxNBTA5E7SX2aoj9jnRLXGzHSpFzdBUALOLRTGw1mfDcixweHhbWlzEmdXVnsy3GXTdsCstS/F6vVXCnSAK8Ho9kLOy/Xf1ej2Ymy+KQG6Vlvl8AYl4yn6ciKeQzxUwvzDbUvDP9o2bZetze1/pVAbpVMZOUXdrbS+KoI3NQ9cN7N7cq7v9QaTy+7d25Yr978obfpW2Cs2wsx6DoRuYnAk2LG6WBoK1K24al/egv9qegy0z6QMzN9H6ClJZMIZZbFsnRh4KFnJG03UYpgn+sFuPIAhi1CFhs4JBbHXuFvxhq8Io+G4KgtC3v9cXn3ii+xsReIAfgr+Ri7i5dS0Kr09sOsyEIAad03ccx856DOlkdyrI8jmlrqjp9YlVATutppVXiptzi5OuwqbXJ7btxVmL/ZvJKlGzVpBQ6bjFyWngUvHxxRdeKBOSBgnDQUCaCPptYdPr9ZSJkOvXt5DNyvD7JSwuH6vZ9q3rhh1EVEo+X8Db1zcRngwiHA61JHA2iq4bdnJ5O76dqqpic327Lf/RfnLhwoWyx1fW1lzHtisw7m7FkZdV21rixNkFV2uJ0puPoamAve2d9Vjd/c5Ak5HBACRujgkULOSMYRhQDlPTR/2aliAIgoRNB8ap1dny3bSqH4cRwzD66pO6VuMCZSxxEDcBtH2RJPzsP2p3ZgRRTUAqerZVnPRrv/VnDS3OciyOn5rB25d3+iYETC8ctV3ubsXbnkfyoFhpN7s4CZZjIQW8toBZKpjOLk5C142uVXTu7yTsf0sBb5nnptv7tMXPkqI+q+V3EMlm5SphcSIYwM2dqN1mXspUJIypSBgTwUDN9eq6gfXrmzX9OhPxFBLxFARRgN/vgyAICE8GHRPILebmZ6EqWs9awXXdwEEsboujw0qtIMCNK7v2v+cOPXLbFTebrb4ubWMv3XY7+5JYLIbXXnsVn/2Vx2qO+/MLf4nnn38eP/mTP9nythzJyGBYhtrSxwQrWEjTdegULFSGqmngKFiIIIgRh/ZwNRiXVmeWZSGKIlRVHdqTAcsnlef5mhdl3SAqdVcQVlkTbweHrMXGRdwkiIEiIHWsomd2cbJMoOglViW0nMl3TGR0EzRURcPOeqyn7epen4jFU0cJ4m7VZ16fiLnDNvW838SBUMCU2nhCeD9IpzJVlYyCIODEySXHSsp6giYAyNkcNjduNCyIqYqKxOF++iAWx8xsxLW1vRj8s4joXgwHsXhD25iZjTRdrSlnc0gkkkinMoMdaNMm22y2rOq5k76X7YibVqVns+xFZey22Yq+fGYe/tPTTS0jZ/LYc7rZkcoCHgEIDL4VDlUadgae48Cy7FBbbXUDChYiCGLUIWGzDoPQ6twLGIaBKIpD77upHZqI99In9W+XhrM1rutY4mYsBWSGK+iBGAMmJ2CG2/BxOyR5kEFoKlAVADLKOAkmhm44tuPH9/dw7fLruHnjAHKN/UBWPoAYeB3x/fLgEe+huGOJt7VEzdJxW1sxvM5kgAHPA8znC1BVteqGXLPt4bpuIJ3OIBlPtVVNqesGbu5EEYslEImEXQOJLPEznS56aZZ6fwKA3y9hIujHRDDQ0M1GVVVxcycKQzeGLhioEf5UvNrQOKdQn+OnZlq+adKOuDlMSAGva5UpE03ABAZe3DRNE4XD7iOWhKe2YBkGHlGkYKEKKFiIIIhRhoTNBuh3q3Mv4Q99WBRFGdq7x+PkkzrwsGyxIq5mVdz3GlqVefJYJ2ZEEB1FThdsEaC0ZXvUcRJM1Ctalajw0nPfwUvPfaeBNW4C+IeyZ7jD8BNLrEweZBoSNd3Ez0Hl5k4US8ut79+64T+pKkWhMboXw8rJpaqAI6D49wmHgwiHgy1vx2o1b7T6cxyoFDctGwZLdGyWVsRNOV2A4Gn+EkFOt7//S8YyyPkb77wRRK5uEvywiJtA8ffMcRz4Eb/e6AUCz0PXdWhD2o3WLaxgIYFa0wkHwpMzOHnqtiaX+vuuzGUQ8Xqlpj+fH3zvOoBkdyZE2NAerUGsVudx8N1kWRYejweKogztnU7LJ1UUxZEXowmC6B9e6egCvFDDj+6Y4ce92rzr6y/wN7HNZo/GvW69EsA9CLiPAxzHOo6rsd1WKBVMKltXC99NwZNv/fih80yVqOkk7FSKmm7i5yCTTmWQSKSaFgh7IQpaXp1u4mYrqKqKfK5gV3uSoFlNpbhp3TzplbjZ6m/IyLQvricPMmCE5ioWC7JqewLXFDdZFpAGv7pe1/WiFRa1DbcNZ7WmU7BQGYZhFCuEKViIqCA8OY0TTQub44PXJzX9+Xh93+nOZIgyRluh6wKWD2UvW537AcMwtrg5rL6bAKAoCjiOG3mfVIIg+oMlOKiKVlOgCZm1RaGQ6cE2sn0b1yqVgonF5XcFGhY28zkFezfi9mOWYzG1OgOPj7e34STocIfBTU7ipwAW92nzmDacW7qfarBSvFdsb92EoeuO3pZyNofoXqysPT2fLyCd6o2Aq+sGrr21jvmFGVfvzUZp1v9zVPhp5bTj89tsFi/wNx1f67e4OUwcRFPwSEJjlZsLEUDsrRd7K1DbcOegYCF3VE2jCmGCIEYCEjZbYJxanUVRhK7rUFV1aO90Wj6poy5GEwTReyxRbW8rXmfkEQ98+MP2v2ulJfdrHAAYJcLT4qHHn1ugUPIgA1XRIE00XwllaMVUdZ072t7JswvQDkXNQk5xFTWXz8xBEJ3Fz7DpcRU1B5WbO1Ek4qmygCA5m7M9J/vtPWl5b87MRpquLlVVFdG9GBLxVP3BY8Qxw1/zdV03sLMes6uSOyFuqoqGxcMbAgsrEQgeHvs7iZbWV4tIpLHAqEbH1aMy/MhR3DQMMDuxoRE3AWob7iQ8x4FlGKjakAVydhmqECYIYhSgo2SLlLamj/qdVI7jwDAM+W4SxCEzMn2HeoXKAQnPYFd37W3FHYNz3HjggQfsf9cUIvs0DihWUVrBSJZIsLMec32fcibfEX/RhZUIPL5i4k8hpziGpliipjXOraLT4t777qsST546f77tuXaDfL7QUa/MTqMqKra3bmJ3Zw8TwQAkvwSv1+PYpi5nc8jn88hmcz2rLh1USm8qAMCVtTWsra0BAJbPzAEoVn3vbVXbCuQPfwedEjflTL5sfdPzIQgi1/L6yhD7ez48quKm3TZMwUJtw7IsBQs5QBXChEU8FsfVK40F3o0juVyu6c8nl8t1aTZEKSRstoElbnIcB1Ec8OjVNhkl381x8EklOs+MzOKWOI9jGTrh6zUqa2J7wsAbERWyMFg3Vzau7I5sYFClSHD81Az2tuI4iHan6m5hJWKLNpaoWSnyVIqabhWdoSk/cKiJ3nfvvTizutqVOY8rum4gEU9RBWaDlN5UAIALgC1sSoGjSmevT8T1yztVyzuJm6qit1xp2Wmx1II9dXgDQWmx3TcggpmbqFgpCwR8AFdxQ1HVgUz1jZamxM2l2eL6hwQKFuocFCzkDFUIEy9+90W8+N0X+z2NgWV7axtf+p0v9XsahAO01+oAuq7b1YCjXMJv+W5qmgZVVfs9nZZRVbXYckG+m0QDCAaD2/d53BKn3WW/EAwGK0kOK0kOl6Y1vBEZnP3PqIqaFlZCsuXHN7s4CY8kdKa6q4S5xUlbXDF0A1vXoo4+jMdPzdSt6FxYiSDEB2xhc3Nrq6NzJYhmuXIoYlrEYke/HzmThyDyEEQeHp/omoBeKUZOz4egFrSWPTK7Im6KHNizs60vXwnL1hYffSKYaKLq6Upxc2ElUn2jxDCKnptzU52bbw+gtuHOQcFCzlCF8HiicyY4vb2/tyIOZ/FTPXQTiLM6JtqUzhTQjZRuQlfqHWKcWp35w5OpUfDdFARh5P9eROsIBoMf2RARLhx9R97znvfgnve8BzMzM3WXf/6557s5vaFGkny46+67645bf/ttvPjii3jjjTcAALft85BUBi/NuyeQDwLaN9dg7qbtx68e/gfUboPu1zgLZm4C/AfLqxsrfflCUwEIIo8bLuJjs4SmApicKXo2GoeBKapS7YG2sBKxq9vcKjrtqs+SQsI/efrptudIEO3wxBNPuL62cWUXHMfixNkFCCKP0FQAcrrgKFhWipHtBgB1q3KzYwR8tSsqAxJQUIFUdQBaqbjp8YmYXghht9ILWR7OG1N22zDPg6Nz2LagYCF3qEJ4vHj1nWlIcvFvHeRMvMNT+xp/U2WwqR4JoTpnQpZG7zekm8BGRsPadBpz/taOGczN4vFoF+Nty9NtSNjsIOPU6mz5blrVj8OIYRgj45PK7B505gTd6yn6ThEAgHt2BFvUPHHiBD71qU9h5cSJhpcv5AvY2Njo0uyGm3e88x04fdo5KbiU22+/HT/xL/4FXnrxRXzpS19CNpvFSpKDLAgDVblZSamoOUy4zdvy5Tt+agaCyEMKeG3fTbdQoUYITQVsccYSNZ3W10ib+vRC2B6T5w0Aw71fJ0YfFcXvsK4buHEtWiZYFnKK42/BEiNPnF0A0H66+UCLm5Xt5w6YkRAYw3RtS5cCXrsadtTQNA0Gy1LbcAegYCFnqEJ4fNA5E+mJ4vdf5EyIUu3re11hkS6M9nfCEjXzelHk3fW1dt3BkKDZE+hI2AXGpdWZZVmIoghVVft2lzOXy2Frc7Pt9XA8X1PcnJ6exvT0dNvb6RqdqjoY4NCKXnMsw9l+midOnMCv//qvQ/LXTrCtJDIdIWHThWZ/T/e85z349ZkZ/OZv/iay2Sxu2+exHdAHPlgoGJxAMNhcgnQ/SKVSSKVqi7H5nIK3L+/YHpcen+jsX9cgEyHJFmUAYOtatK6oaYmflaJmaCqA6fmQPebtjV1sCQxEUDUT0X/+Tth2fD6Lo4uk/KFf7PFTxW6A5TNzuH55x7F62Rpr/X5GUtxkWZgBqaGh5kwYjKICSvVFp6poEMTRvdwxDMOu3qS24fagYCFnKFiIGEfyuomNjAZ9OJtTx5LRPdL3mXFpdWYYBqIo9tx3M5fL4emnn8YLFy/2ZHsPPvggfurBB3uyLWIweNdeMS3V7/fj333mM02LmgAgSY1dlI0joVCo6WVWTpzAv/vMZ/Cbv/EbAIBb4vzAt6QHg0EcXzzW72nUZwt1hU2gWFl2/fKOLTayhy20rXiNloam7KzHHNdR6b3pJmo6VX3m6RqfGBCiTGOJqOmkjP2bSUzPh8ByLBZPzTh+54EjEbPT4qZVle0qbgYkQOi+uGEGJIBvfDvmQgTMTsxR3Bx1TNOESsJTx6BgIWcoWIgYF0jUHE5oz9RF6rU6y7LcVDWXJElYXl7u5BQ7Bs/zYFkWiqJ03Xczl8vhif/8n7FFgRBElwgXWEiHvjHve9/7GvLTJHrD7bffjttvvx1vvPEGVpIcXplloLJ05tFrdtZjUBXdrpIsFSlbWZeTGOPkvVlZ0dloKztBDAv7Owl4fQICIQken4jZxUnXykkncdOthb0RKquyQ1MBeH2iLa6ax2cAUWjtjXUbloU5NwXmRhQY02o7TdehU9twR6BgIWcoWIgYdZKKgd2cTqLmEELCZpcxTdMWNy3fTVmW8eT//J947rnnml7f8vIyPvsrvzKQlWAsy8Lj8UBRlK62cHzrW98iUbNJrMRVacILOZ0f+STndpmWj6qs3/e+9/VxJoQT73v/++0woXCeQVSis49+sL+TQEFWEIr4wTbghVeJoRtIxrJIJ6u98RoRLEvHANWt7CvGBCTTWYR51fFZgugOt+nOydtpXsWWWV0pvbMew/IZ3hYXC7KKg2jKYQ3V4mY79hBAsSrbaksvtZxY34xDH1RR04LnisLrGNvqULBQ57CDhTQN+piK5W5QsBAxiiQVA9syVWoPKyRs9gjLh1IURfzX3/kdXL58uaX1bGxs4PHPf35gxU2GYWxxs1u+m71qPx8V5hYn7aonAMB8CIZuYHcr3nLL2qgjGkd3oZsJC6pElqsFG6JIMplsqR0dKFZtWoQKLKJ1DM6J7pFOyo7CZDtUCpaNiJqVrewh04N/pM26boOETaKX3KZPOr+gA9I94arvuK4bh+Jm0fNydnESqqK5/tZKxU2WY3H81Ayuvn6j5fk6ipsnp7EhG1TFMiRomgaTZUc+zLQX8DwP1jAoWKgCChYiRon9vIFonkTNYYaOdj3EMAz8w3e/27KoaTHo4iYAiKIIXdehqmrHWzhisQFI6hwSFk/NIBCq/o5YqatA635cRH1i+/RddWN/f79lYbPUGqBUhO4H7yoUW7AVxsQlcXyrhDqFk2DZiKhZuR+j0CBiWLCEyLcv75R5aeZzCrYOk9KBomipXtFcKzGTBxl4JQGTM8G2wnKWzCDeZ54ADABvNL+8wpq4sJRAhu/cBWJA4/DAZrjB/X1FMN2bxf+9Oqdj3KL8dMOAoaokPHUAlmWL1ZuHYh5RhCqEiVFgW9aRVOh3PeyQsNljNjvUQm2Jmz/14IO4++67O7LOTsNxHBiG6YnvZrcZxvmHpgK2qFnIKdjfSSKfUzARkjC9ELLFTTmTd0xdJdqjWQ/dcePa1Ws4ffp0v6fRNu8qeOx/K4yJqwL5O7aK1ydibvGoss1JsGxE1Kzk0UcfxZnV1bLnnjp/vgMzJojG+G9f+lLZ4wsXLuDCs8/ajwWRx8JKBFvXomXj5Ewee1txzC5O2sfs65d3XLejd6CcchK+tpYXDQZ+le2osOlX2bZvYs3teYAx1PYo0bpzMAxDwUIuaJoGg2UpWIgYOkjUHB1o7zPEbGxs4L/+zu+0tOy5c+fw0Y99rOsVn73y3ew2mq5D07ShaumZCBcvTiqThA+iKaiKhuOnilVvEyGpzLuL2T0APM37aJk8V0xLJQAAP3zth11Zr2ma0PSiEG3oBgyjOyfXHMeDYYtXgTzX+WoPWZbx5uU3cevZWzu63n4SMKhaoVW8hz5+llenk2Dp9YlNi5oEMegUcgo8PhGBkISpmWCVl+ZBNAWPJCA0FYDHJ8LrE3sWkPWhf/Eh5HMybu6s1xx34tRtiMfiePG7L3Z9Tu/5J+/BZGQSb1+7VHPc/MIKvD4JL73wEg4ODro+r0HHSrTmD4sOiNahYCFnDMOwqzcpWIgYdHQT2MhoyJO/ysgwPCoN0VGee+45bGxs4Dd+8ze7vi3Ld1PTNKiq2vXtdQtVVYteMsKAm+cfYgkE+ZxS1t4GoMyni+UrxBg5X/yvSRgApigMbmJqD7l69Sp2dtyrappB1VRoqlr8fx9PohmGAc/zEHgBgiiC59o/fFy+fBk+yYfl5eUOzLA/fOHLT+Oxn3+o39MYahoVNa2WXLcxpbAcCxwebp5++umBtW0hxoMvPvFE2eNSS52ta1GcPLtge2nKmXyVcJmMZRGaCgBAS0FdrfKhn/gQEvF9fP97tW9M/+iPfwhXr1ztibB5zz+5B6fPnMa3/6r2TY27/tE5hCencfXK1drCpmEAY9JCaxgGlENPRHZM3nO3sIKFVE0b6sKNTmOaJlSqECYGHBI1RxMSNseYjY0NPPfcczh37lxPtscfevx0w3ezV+i6DtM0h/4khuvWhZExnH/XTrKxsdF2taama8jn81CUwsD8VqyTVVVVgZwMluUgiiJ8Xl9bF0jff/n7ADC04mY6fr3fUxhqKkXN5EHGVdSsJXxWjl+YiwBrxcdbHbKAIYhWWVtbc31NVTTsrMfsLorphVBVSzrRPoLIgTPYqhu9TCwFcybcn0n1CVXTwFGwUEcQeB66YUCjYKEyNF2HTsFCxACS101sZXWodM06ctARbcyJ7e/3dHuW76ZV/TiMGIYBfQjmbvlmSgEvpIC3LDF4tsTHTi3QyVin2NjYsIW6VigUCsjnc3areSlerxd+vx+BQAB+fwA8z4PnOfj9gXam7EoymQRQ9E3KZjPIZDJIJpP2ybth6Mjnc8jncxAEAT6fBIFvrVp3mMXNyy/94dEDrwiEBaBHbaLDDncYmlIqau6slwduNStqWuvMiwyiiwa4XRWGPvj7a2K0kYMm8jml6ru4zWQBFLso5EweUsDb04rMcUIQeSwvzZVZ8wAAMnKx42TMxE0KFuocHMuCPazeHJSb0YMABQsRg0ZeN7GR0UCFmqMJCZtEz2FZFqIoQlVV6GS+3Rm8HiBfnshc2rq2fGYOyYMMVEWHFPBAChSTnFVFQ6akLR2KDv3i2zCV+n8X9uws2KVwx97CsNOOqKlqKuRstkrQ9PsDmJubQyQSgdfr7cQ0G6Y0sTwSOfI1zGYzSCSS2N6+gXy+KJYXKzmTEAQBkuRvqU19mMVNG58HZlgAwv2eSHuUtnx3E0Hk7fTmRkTNeDRVV9RcPjNnr/MtXwo7TIzOdIi+8/ZtOjau7JfdYCR6j+dwn0LiZhEKFuocVms6BQtVo2kaTKoQJvpMWjWwI+skao4wtIch+gLDMBBFceh9NwcFc24SzE4MUI4+SzmTx856zA7bsEROC0M3cONatOzk3ozLMDYTjW10bgIgYRNA66KmaZrIZNNQlPIKv7m5OSwvr/RczGwEv79YMXr8+HEkk0ns7t7E7u4ugKLAmUwmIPkk+HzNexqOhLg5Alg3PnpFI6Jm8iCD3a246zosUdPjE13XSRAEUUvchEcAgv7+Ta5PWMFClGjdPhzHgWHZvnqiDyJUIUz0k6RiYFumGw6jDh3BiL7CHxqYK4pCJwDtwLIwFyJV4maxSlPD3OKkfcFvsXFlt2ay6jve8Y6yqj2L559/vnPzHgFaFTVVTUU6nSr73jciaAqCUAzxEYSuB1kVCoVi9YHLDYhQKIRQKITl5RVcu3bVDsSQczIURYE/EGi6epPEzf7Ty6oyOVPA/k6i7DknUbOWSOkmagpgETY9jstsd2b6BNEQ/hSDKc0Dv1l+QR9lcn2aUWN84y++cZiKvllznKp+A/GY+42HTvLSd1/C1beu4u1rteeUTj0Hr0+y51XIKXYCvSVuXr9cHvLHxJIwx1DYBIo2SwVFoWChDsBSsJAjVCFM9IOBEDVZthhUR3QVEjaJvsOyLDweDxRFoROAdnARN+VMHtcv71Rd/C+sRKorFkr4j//xP+L++++ver60LXncaVXUzOdzyMpZ+7HfH8Ctt646+mUKgmB7a/p8vrbm2w6GYUCWZWSzWeRyuTKh0+v14vbb70AymcTa2pvI5/PQdA2pVBIB/wREUayx5mpI3OwvG1d2+7btdkVNq1JdMnn8mLoEAc4X6E91fuoE4crKJQ4rmK56XoWBPxMHN4DsG3/+jYbGrV2uLTJ2kkaT1yvnpOsmNq7s2vsLj09EaCpQbW+RV4p+yWOKqmngOA48CU9tQ8FCzlgVwvxh7gJBdIttWUdSGQBtQRSqLOOIzkPCJjEQMAxji5vku9kGlri5uVd1Z0jXjaqT+uUzc0gnjypGFNWEJSH83n//XfzZn329h5MfLloVNTPZDAqFo4q4lZUVLC+vVI0LBoMIBoN9FTNLYVkWgUAAgUBRfM1kMkgkEsjljr4/oVAId911N65du4rd3V2Ypol0JoWAfwIej3PlnBskbo4fjYQJVY4vFTULOQU3DtOk/RBcRU2CGBQG8TsaRw4KdIhoTdjK8AayQmcvJOMeDRneQEBr7fNSoOMyovZ50Jk7lwAAgocug5zQdR0GJVp3BAoWcsYwDCiH3zGqECa6wcCImkTPoCM6MVCIoghd16GqaldPAFZXV/GjH/gApAZFo6lhqlIsrdxsQNwsbVHPZlVb2Lx27Rr296Ptzycjg9HaF6uZRNr+t8lzgOQtlvb3gU6ImjzPY3X11qoK2EAggOnp6a63mbeLJXLmcjnEYjFb4LTel98fwLVrVwEAmWzxb0fiJuFGZfBPK6KmWwX6zzz0EJYWF8uee+r8+Q7OniBq8+ijj5Y9vvjCC3jh4sU+zaY2m0wKm8zr1S94PTAX+nMupLAmnlk5aGgssxOrWRnj1qVClENtw53DChbSdJ2KNypQNQ0cBQsRHUQ3ga2sBlmjGwnjBu1FiIGDO2xN6Jbv5urqKj5dcZExcohCXXFzeiGEyZlgRzfLxJKAv8QfsqACcof8+uJHwiYDADwHc2ay5y1jV69exQ9f+2HTy1WKmnfeeWdZ67kgCJibmxuYCs1G8fl8WFxcRCKRQCwWs+0kjh8/Dp7nce3aVWiaRuIm4UqzwT/NiJoAsLS4iDOrq23NMTwZhOSXIAoCFFWFnJWRTmVIJCEaovL7t3blSp9mQhDNQcFCnYPnOLAsS6GpFVCwENEpdBPYyGjIU/T5WEJHKWIg6abv5o9+4AMdXd/AUkfc3N2KV6UMm7tptIWilvl7dhVNB7OzD0hemJEQwHe3okCWZXz/5e9jf3+/6WXz+VxNUTMQCGBubm6o23HC4TD8fj92dnZQKBSrZebm5hAI+PHyyy8DKFZuMgzTkudmbD+GW8/eCklqPm29m7zng7+Np//nQ/2extDSbVETKFbHtSokeb0eHFuch9d7JMhL8CEcDkKdVbG5vo08+SYRdbhw4ULZ4ytra32aSX1mOQ+8TPWxyGQFQB3syr0kZyDV70mMIHawkCCAJeGpLViGgUcUKVioAqoQJtpFNUxsZXUSNceYcRY23wZwYmuzd4bnRHNYvptuicytstpm5c5QUUPcHBnkPJi8AoT8xTTTDouDb15+Ezs7O0gmky0tr2qqHRTkJGoGg0HMzc11ZK79RhAELC4uIhqNIpUqXl76/QGsrt6KtbU3ARTFzTA/2bSIu7GxgY2NDUxPT2N6ujqEg+gg3jpVtYra9P5ECngdn59bnCwTKfe2aicrL6xEmhI1AbTc8stxLFZOLoHjnL+rgiBg5eQS1q9vkrhJ1OTCs8/2ewo18TAs7hEn8Q5hAiG2hg3KEKiGe9wcXhIS+KE6BJMdMlRVpWChDiHwPHRdh0at6WVQhTDRCnndxEZGA2ma48047zV+AODEK6+8glwuN3Ttn53i1rNn+z2FuvCHrQmd8N2MRCLj97e2xM0bHfDLbBPj1R0Y7VaFOq7YAOJpMGm5WL0pOYsorXD58uWWlzVNE+n00cWV5T1pEYlEMDU11db8Bg2WZW2h1hI35+bmoGkarl27an8moVC4pfXv7++3VDXbLR77+dGr1qzro5eRwUQTDa3L6xNx/NSM7Z3pRiMi5cJKBIGQ1ND4BFOACqOtcJa5hVlXUdOC41jML8zi7et0k5RoniTTf0F8lvPgI76F2oLmEDHLefAvfHN4pxjEn8rbKJgjelO3T1CwUOfgrNZ0ChYqw64QJnGTaAASNQmLcd5jfB3AgwDw9NNP4+Mf/3h/Z9MHzp07h7NDIGwCR76b7VZuLlYESIwNogBzJtywGNEt9Fe3u7sBTQeze1BsT5+cAMT+Xqhlsmn7ZHVlZaUsKCgYDI6cqFnK3NwcDMNAJpMBUPTcTCaLPpyariGXk+HzDVZbebtkhPG4yGNySkPjvD4Ry2fm7JRzN+RMHjeuReuKmqGp4k2BRkRQFQZeOpNqaplKwuHGPIglvw+CKEDtlQ0HMXS88U80bFzZhZzpkOd0h5jlPPiotAjPYeu56GERnvbAPzGclwepuILEvgJdN7HE+fBRaRFPylskbnYYahvuHBQs5A616xP1SCoGtmX63RBFhvPMpQM8df78Vx55+OFfBvBuq01tWMXNxcVFSJIEhmEavnt6191340Mf+lCXZ9ZZWJZt2puvksWlpQ7NZggJSDBZFozTxXc23ztvTBSDYJYO/xbPP/985zcg58G0E1qkTwGYbGsKqqZCUYoCkN8fwPLyiv2a5ak56szNzUFVVdtzc3X1Vrz44j9A0zTIORkej3eofUUB4JX54j4pIzB4a2rED6mGUbw50sBvi+NYLKxEbFEzeZBBMpatXqVuIF9HKG1W1Gx1mVL8/uZEd1EgYZMYLjwMi4/4FmxRc3JaxPyyBI4b3hs0/gkes8d92LiSQTatYZbz4KelY3gyu9XvqY0k1DbcOXiOA8swUDWt31MhiKGARE2iknE/Ev08gG8DCL9w8SKurK3hRz/wASzVqOprN1m1k9x733146KGH7NZqlmWLxt5DLhTUot22l7Gt2LSQvDCd2rQDEpjN3bKnTp06hWMLC1VDv/vCi21P46Mf/Sgee+wxACirYhwlrEpFALj11qP9hpV+Pg5YbelbW1swDAM8z2N19Va88cbrAAA5JyNQ0po/jPxgbjTaN+tiGEWv3gbEu2YDgWpRKlCqitYTUZMgxoF7xEm7/XxyWsTxk/4+z6gzcByDk2cn8NbrKeRlHUucD8u8Dxtart9TG0koWKhzsCxLwUIE0QC7OR0HBfqNEOWMtbD51PnzP3jk4Yd/FMAzAE7EYjH8ydNP11zG5/PhoYcewr333dfSNt/1rnd1xET+3vvuq6owNQwDyuHJBbWGODP2wqYbDoni//oX/w3uv//+qud///f/sO3Nvfrqq/gf//OPm1rm7F0rZY8N3UA6KWNvKz5wokWhUIBhFO8izs3NlflqDnv6ebN4PB5EIhFEo0WP10gkglAojGQygUIhD8knjdXnMZQoasMBZN0SNQ3dqNuuXrnMsWscjASHJX2+atxf43s115PPN1fxTS2ERC1OXOIwn5uGUfH9TTAKXuX64xl8jxgGUGw/HxVRs5SVWwJ489Vi6N8/EsMkbHYZChbqHBQsRBDubMs6kspgXfcRg8FYC5uALW7eBeDTAH4ZQLjW+Fwuh69+9auIRCItVW8uLi7i3vvuazmlFSiKo25t86Zp2uImT60hVYxqdWA3ePLJJzvaJj4RknBw+O/XXnsVB/H2LuZYjkVoKgAp4MWNa9G67ay9RM7JAIrBV6dOnbafDwQC4xdeBSAcDiORSNgeuSsrK3j11QSA0ajaHGnyStG3tgVRs5GUczcqRc2NK7tNtaz7UwzCUQZAnYR3F3TdgJzNQfLX/72qqkqp6ERNpBQDyeG7OA1fX4TNZd5nt6BH5mqH7SVTGnb2VOzHBsdqQRAYTE8JWJgTIfmcb4wJHhaT0yLi+wrO8HSM6QUULNQ5KFiIIMrRzWKlJomahBukfAF46vz5BIDPAfjcIw8//G64i5vvBvAEAFy4cAGfbrEt/eMf/zgWFxfx7W99C7FYc5UsVvt5PVRVha7rEEWRTi4OWR0gG4Fh4Mknn+zIeiyvvUCJsNkK+zeTZY8nQj54fCIEkceJswvYWY8heZBxWbp3qJpqV2tGIpGyGwzT09P9mlbfsVrSASAUClHV5jDQRPo5gCpRs9UW8HZFTUM3sHsjhRUUf2+WD3Wz3NzZw8rJpbrJ6Dd3ok2vmxgvKs8/YrFY0+d/nWSWPRJZ3YKCVNXEy69lsLM7ODcNS9nZVfDapSxOn/Dinbc5V5z6JwTE94vzp3b03mAHC/E8ODqutwUFCxFEEd0ENjIa8hR9TtSAhM0Knjp//gc1Xv7OIw8//C4An1hbW8MLFy+23JL+gQ98AB/4wAdaWrZRDMNAoVCAKIokGoDa0Bsi4AFEDlAaOIGarF/JNDUTxPRCqG4qciPs7ySqHs8tTmJypphcvLASgTTh6XtruhWUA6AsMCgYDEIQxsSP0QGfzwdBEOyqTSslHQAUpQCvd/wqWQeaVBZMLFl/3CELK5GBETU3ruxiInfUDvnQQw9VdVj81m//dt255PMFbN+4iWPH513Fze0bN5FO9f+GCjHYfPrRR8seX7hwoSO2RK3iYY5+H16punVYVU089w8pJFNHQSYzMzOYmZnpyPZ1XW+rCm1zcxO5XFGkvPp2HvsHGn70/lDVOMFD5779QtM0GCxLwUIdgIKFiHGGRE2iUeho0zy/AeBBAOELFy7gXe9+90C3lpa2po+77+YUtaHXhfGLEB5+d9vrEUS+KDQGjlrc5EwbKeUu7G7FIacLdvpyaCoAr0/Eznqsb63pilIUNkOhMLzeo/cfDAb7Mp9BYmpqCru7xZAqq5pV0zQUCiRsDhJMNAFk5IbHdyqsZ25xsiOiZj6nYAKd+T6lUxm8lb2GqchkWVJ6Pp9HLJagJHRiJPnuy2lb1Dxx4gQ+/nM/h9tvv71j69d1HZlMpq0qtCtra/jqV7+KWCyGZErDa5eyrpWbRH8wDMOu3qRgofagYCFiHMnrJjYyGkjTJBqBhM0meer8+bcfefjh/wLgP8RiMXzrW9/CAw880O9p1cQSNzmOgyiK/Z5O36iVdk8AYNmGfPTqMRGSbKERKIoN+ztJHERTba/biXRShnpFsyvGPD4Ry2fmsLMeQzrZuDjTCRRFsatQSpPPBUEY6BsgvSIQCNjCJlD8jG7cuAFNL56oU2X5gNCiqNlIanlplbUb7YqalTzxxBP13kZNdN1AdC+GKPrXOkwMN7/0qU/1ewoNs3GjgP2DomD/nve8B//uM5/p+DY4jkMwGEQ2m4WitHYT8szqKv6vX/1VPPGf/zO2trZw9e08Tp/wuXpuEv3BNE2oqgqe48a+wKITULAQMS6QqEk0Cx39W+OLAN4GgG/99V/b7TCDjq7rKBQKQ29Cfffddze9jM/naynsaZwwj8/AXJiu/1+kut2rlNnFSVvUzCRlXL+80zVR0yJ/WCVmeWyyHIvjp2YwtzjZ1e1WompH1Vuh0NHn5PdTFQlQrDgIBI5CHEKhsP1vq0WdGB6aTS2fXgj3TNRU2OE+zhFEv7A8Nf1+Pz7VRUGWYZi2A/V8Pl+Z7/zVt4fjfHwc0XQdiqoO/TXIIMBxHERBoAwFYmRJKgaJmkTTUMVmCzx1/nzikYcf/g0AX87lcnj66addU8oHjVHw3fypBx/E5cuXIcuNVxV9/Od+roszGhF4rvhfmwhicbcSj6aw22IicivouoGd9RgKsorZQ0FzciaIQEiCqjTnSxTaE4EW8kB0vbgdr9db1oZeKuaNOz6fD5lMUYCOlNhDqJoKj6e1BGui90wvhJtqG58ISZieD9njD6LpqjFqQYOcydf9vdat1BQFJGYm8LdaATM5qhAi+k900UAyloFa4V+9zw6eEGcJm++8806wPaiws/yX0+l0S6LXmdVVLC4uYmtrC8kUVbENMhQs1DnsYCFNg06t6cQIkVQMbMu0Lyeah4TNFnnq/PmvPPLwwz8H4P0vXLyIhx56aGhaTU3TRKFQgCAIZYnNw8Ly8jL+7//0n/D1r30NGxsbNcdOT0/jx3/8xzG/sECeND1Gr3GbbXZuDne+804AwHdfeLGj2z2IpiBn8jh+agaCyNv/NYOQbO2E26o6LK3WBDA0+4ZeUCleWunoVpI8MfiEpgJlImU9UdPrE7GwciRib12Ltuy5W9eHMyDBjAQBlkVUNBCVaL9P9J/ocQMbchqy3nmv6W4RiUQgyzJ0XYckSV2tDuN5HqFQCOl0uiXfTUmS6g8iBgZN02Cy7FBegwwaPM+DNQwKFiJGgoOCgd0cXQ8QrUFHlPb4IwDvB4Ctzc2ha3VWVRWGYUAYwnYGSZLw0Y99rOHxlsdPO0b1ROf44I9/EI899hgA4Pd//w87vv58TsHbl3cwuzjZtKgJAGpBBNCcH22pcF5arTnOSehOVIq8Xq8HySS1og8LoamALVI2Impyh7YQlj3FznqsZVEzNBWwW9mdtm3OhIEACRwE0UkKhQI0TcPExERXO31YlkUwGIQsyygUCl3bDjEY6IYBQ1Uh8PzQXYMMGizLFqs3dZ2KOIihZVvWkVTo+0u0DgmbLfLIww+fAPDL1uNhTdzWdR2maUIQhKFtTW8EhmEgiiI0TSMBZQDY2NjA888/39VtWK3preDXp3CsSWFTL6k4LPWOpIqEaliWtU++S0Vg0zTpAmeAKRU1gWLlZT0vTKtyGgCSBxnbB7edbVeJmjwHc24KEOkmAkF0A13XkUwm4ff7uxpCyTAM/H4/eJ5HNpvt2naIwcBuTadgobZhGIaChYihhURNohPQFXeTPPLww2EAnwbwH6znVldXy7zihg3DMKAoCgRBGPkTC57nwbJsWXo10XuefPJJPPnkk/2eRk8Y9d9UK3g8Hjt0ze8/8h/VdA0CT+LUIFIpajZSebmwEoEUKArXhZzS8o2GmqKm5C1WarZ4Y65QKCCVqvb7JIh2GbWqQ9M0kclk4PP5um6v4vF4wPM8UqkUnauNAZquwzBN8BxHNzfbhOM4sCwLVdPot0MMPLoJbGQ05CkliOgAJGw2wSMPP/wJAE8ACFvPra6u4l//m3/Tryl1DNM0bXFz1CvMWJaFx+OBoigtt2zEYq1doI89Igcoo3knWSupBC5NQadAnNqM+v5mFPD6RMwdBnIBRVGzXuVlaCpge2GqioaNK7stbbumqDk5ATM80dJ6LaLRfUSj+22tgyDGiVwuB13X4ff7uypCcRyHcDiMTCZDnTZjgGEYUAwDwmEBAtE6VrCQqmnUmk4MLCRqEp2Grigb4JGHH34/ioLmu63nIpEIPv7xjw+dr2Y9LB9KURRH+q4pwzC2uNmK7+aVtTUAoGCKJhEefCfM+FGa/eziFLa//EJjC3t7KBAWOKAN/ZXEOmJU8PpELJ+ZK/PIrCdqloYFGbqBG9ei0PXm95W1RM22/TS9ApAnsYToPuLU6Pm+Kopi+252syuBYRhMTExAlmXk88MTvES0jqpp4ChYqCMIPA/dMKBRsBAxYOR1EzuyTqIm0VHoqFGDQx/NJwA8aD3n8/nwgR/7MTzwwAP9mlbXMQwDhUIBoiiO/F1TURSh6zpUVW24ZePK2ppdsZn0kLDZFCIHZu6owsp3YqrhRc2FHto9xARgtLoICaJpWhE1AZS1rO9uxev6cDrh1Ppur0cU2g4J4v/Vj8BM5hxf+5HN4k2U++69F/fedx9euHgRF18o3oD526WjHcO79gSECiwWFxfx0EMPAQCeeOIJAMAGm8I6W2xxD5ke3KlPAwAe+pmfweLSEp5++mlsbW0hyRTwKndUMfpPteNl297a3MTTf/InAIBXuX3kJRNzi1MIRxmE9ot/l0cffbRs28lpA4kZE8lYBoipVdsufT/rt+nY3TpAIafgTn0aIdNjv5/KbSeZ4ntfMSawbATLtl35fjw+EXOLU1i5xLl+ln/H3wAAeHwi7tSn4ZWZmp9laCqAOW8Acxuc42eZl0zsrhSPybtbB/jH6RnXz3J3Wcduvuj56vR+rG3v+vNYK8Rc/45V3w1FBRNL2n9Pj0/E4jsXMYoYhoFUKgVJkrremSBJEjiOgyzL1F47BlCwUOfgWBbsYfUm/XaIQSCvm9jIaCBNk+g0JGy68MjDD78bwLdR0nZ+73334aGHHuq6t9AgUNqaPuoegdyhp08jvptbW1v43d/9XfvxlUm6C0pUo2kaVRsQQ8vZu1aqnotHUw0H/3h8xXCRVsOCBJGvEjXTyaNK71b9NMsIS2DCzuLobL54jD972224//77kUgkcPXqVQAAs3IkhoZZD2ZkFidWVnD//fcDAP7HH/8xACDG8WAOD50e04dZtSiy3X333TizuooX/+EfoBQKYNkcGP5ILJ1VZsq2fWVtDX/zN39TXI+gQpsw4T89jbCXxQxT/Bwqt80sGlCPG8j5BTB8oWrbpe9n/7QG3tChZPKY1CKYNnz2+6ncNsMc+uLqU5jVJ8u2Xfl++IAX/tPTmN3n3T9LMQUA4ANeTGszkFJMzc9SXAgjKIUxm+McP0s5aCJzulhqzxs6Zg/cP8vcCR1xWQAjMI7vx9p2LiSDORTUnf6OVd+NvAKGP7rhyQe8I1mxaWGaJrLZLHRdhyR1931avpuZTKalThtiuKBgoc5htaZTsBDRb2TNxFaWRE2iO9CVtzu2l+bq6ip+5qGHsLg4mnfd3bDETY7jupqCOQjU893c2trCK6+8gm/99V/boSeXpjXIAu2ZW8HrEzG9ELKDRUYBXhCAQ80jm80iFAoBGL0AiU5DLVKDT/Igg92teNPLqS366Vop6gCwtxVvOUmdIIjekM/noaoqgsFg1303g8EgstksFKX5SnBi+LCChQS6Wdw2HMeBYVloVL1J9IGkYmBbJmGd6B50lHDn/UBR1Pz0YWtSLS5cuFAmehGjzXpIxxuR8fRnY/LtCXWVLaajDlWWVFMq9mazR6IVJaIPBvs3j1pp1YLWV2GxlTZ2giB6j67rSCQSCAaDXffdDAQCyOVydM49JhiGgYKiULBQB2ApWIjoAyRqEr2AhE13fgDg3Wtra9ja2nKt1ryytoavfvWrlJI9JsiCiVdmVWwHxnTnnJGBeNr1ZY6rfcIpiHxZuvIoVWJx7NGFXDKZsCs2qSKxmtKTaQqEGDz2dxL9ngJBEEOIaZpIJpOQJAleb3c7Mnw+HwRBQDrtfk5CjBaqpoHjOPDUmt42FCxE9IptWUdSIRGd6D4kbLrzGwCeAYCv/tEf4f/61V8tezGXy+Grf/RHeOWVV0qfTgD4L72aoMWWmn5fyii8HwAYiQ72TcMyQChQc4jCmtiXDCTGOSwoI4OJJlxf5jgWy2fm7MdqofpkaWp2oukgkmGhtIqgVKxTVRWGYVCVwSGVFTaZTBYAIAhUrUkMFheefRYXnn227ri1tTX80qc+1dA6rVCaTm0bQMe33cz7aXTcuH6W44osy7bvZjdb03meRygUouPrGKHrOgzDoGChDkDBQkS3IVGT6CUkbLrw1PnzX3vk4Ye/BuDBra0tXLhwwU5C/9a3voULzz5beYH+RQC/8dT584lez5X7Z3d+Doet8+wEiQMtoWRgzk12JpRiFGlQ1LRCQwo5xVG0rPf6sCMIAlRVRTKZLHtelmUEArXF83GhtA1d0zS7FZ3j6HBEDBcq634hWOu1muuEAQHOxyEFBoDmLuSLyzijt3gfVIV7x0Kt7dWi1lxqba8WtT5LvYXdTa331urfe5QpFArQNA0TExNdFR5ZliVhc8ygYKHOYQULabpO1klEx9BNYEfWkVZJ1CR6B11J1ubnURQMwxeefRY+nw8vXLyIra2t0jHfAfDoU+fP/6D30yM6Rr4AZicGc24K4OkkqYxUFkws6fqy1ydi+cycXYmZScrYWa9tzaDro3mgE/iisJnP55HP5+1WvFwuR8LmIZnMkaBdKgDzJGyOJcZmAoiXV/EWRA571w+K/45lYCg6mLkAmLmJnszp4nEF4UK1UFJZsX9pWkPS6yxorUMHiqHfiDI5vMrtQwCH6YWiRYWczkPOFLDNZsuWu3YsjynWe+htevSaCh1JpgAJxX3KwbyBZCzjGNCkBD0QcJhMzxTsbZciiBw8S/6y517hYjjG+MvGhCIB6ByQTZvA4U93nUvb66v3fjZXdRQ2s1XzTDLlXs3RRQN5P+P4nta5o1bjbNDEzRUD8a3qY1KC0xDCkdXJ9/g9hExP1bjJxRDykmn/fd7iElVjQlN+CB4eB34TuH4051cDaQheX/W2x7mbowa6riOZTMLv9498CCXReyhYqHPwHAeWZaGq45kfQHQO3QQ2MhryFH1O9Bg6EtTgqfPnE488/PDP47Al/U+efrr05QSKguZXej8zoisoKpgbUZgLEUCkylcAxSrNjOz6eqWomTzI1BQ1VaXYni4FvBBE3n48KpQmo8diMRw/fhxAMSV9ZmamjzMbDAzDKKt0j8X27X/TRe/gYJ48dvRA08HsHgBKYxc7Xl9zf0f9b65WPwegynlV5CA8/O6m1t0q2wG9IR/lhMfdnoRJlJ/Qv8UVhbizx4vi7P7NHPZziarl0pMG9IABOaNgI3ngum2dA6770pD1ao/aZWYOpUcwa9ulSD4vlielsueSTAFJrlA+5vjhmBIbQxUGLnEHDb4fExv7zvMsJS+ZyEsmNuT6Yw/mDVzeqf5sJMaLUMnjbTaLbWSrxp2dLxfIS9+PxfKsACnAQs9U/B39OZjh8Th17lSbr2mayGQy8Pl88PmqRWGCaAc7WEgQwFJreluwDAOPKFKwENEyqmFiK6uTqEn0BerdqMNT589/DUW/zVK+COAkiZojiGGA2Yk1fBE/ynRa1ASAZOzoInPx1AwmQlKN0cOHwAv2xeDu7q79vKqqZZWK40oqlSp7bIWu8Rx5ZQ0sPAczEqo/Dkf7BAsnn91S6oWNleFQmUgQRPfwer3w+/0d2zfncjlkMhny8iO6gqqq0KiVuiMIPE8BTUTT5HUT19NUqUn0j/G47dwmT50//7lHHn74iwDeDeAH/fDRJHrIobg5zpWb3RA1AUDO5JE8yCA0FYDHJ+L4qRm41yQNJ6LoQaGQRzabQTabgd9fbEFPJBJj346eSCTsf+/u7tppnB5PdbsoMUB461dhOu0TavnoWr68a4ePP/vZz+Kxxx6rGveFL3wBjz/+eEvTJgaTD2cDmCo11UwB2E4AAP4xPACK+4NLYgEvemtXbxLdxePxgOd5pNPpjlRwKYpi+26SNyLRaShYqHNwVms6BQsRDVDIKdjIaNApCJToIyRsNsihmPmdPk+D6BXjKm4aBpjdOJAvuA6ZCElYWIk0LWpa7KzHYOgGJmeCbU93EPF6vSgUihfjN27cwOrqrQCK1SqFQmFsRbxUKlXm3VRa0erxePsxJaJDhKYCmFucbGqfMLs4aYeJAcXvw2uvvVo1rvR7Qgw/8zpfLmrWYMog4WsQ4DgOoVAImUymI/57hmEglUpBkqSxPR4S3YOChToHBQsRjWCd85kL08AYXTITgwcJm0TPWQrqWAq6HyBfjwpIFgbgTqthgNk9gHl8ZjzS0htoww9NBbCwErEf723FcRBNuY53Y3crjoO9NKTA6AlaPMfb6ei7u7tYXl6xQ4Si0SgWFxf7PMP+cHBwVJubTCaRTCYAFEXNtiorcgUwiWofvUYxAxIFhrWBFPCW7RN21mM1KzWB4n4kNFVevfxXf/VNXLr8etXYG1vbnZkoMXDcc+79mJyerXr+pee+jfh+tA8zItxgGAYTExPI5XJlPsmtYpomstksdF2HJI2WJQ0xGFCwUOfgOQ4sw0DVRssXn2ifZotbOsmSpGBJUlxffz3pQ1Kl8/txgvb2RFd576KC9y4peMeMhjtm1JqCZiWvRwX8MMrj9T0Bf78l4ofRPnxdNf2ocnOUxc0WRM1GBIxaqIrW1vKDjM8nQVWLgR0bG+tlVZuZTGbsWtIPDg7KKn2uXj0KjJF8bV7U5hVATdcf5wKTzI5fZXYHmZo9CmJpZJ/g9Yn2fsTQuxdOIOom/tnVPKZyzW3jwMfif532QuHcxfbboyrEeqvNMbhkMlAYauFz4577349TZ++oev7a5ddJ2BxQfD4fOI5DNpvtSHtqPp+HqqoIBoPUOkx0HAoW6hwsy1KwEFHG1RtJ7GxWhxN2g/dOZ3D/dBrvnc5gSSrUFDQr+WHSh9eTEn6Y9OHv9yfwwySF2I0qJGwSHSXkMfHPT+fxE7cU8N5FBUGXxNhGuGNGxR0zKnB7sTogVWDxF1c9+Mu3vPiLqz1sX1JUMLEUzJlw77bZSxpIPe60qDnqCLxQVrU5NzePUKgYwLK7uwtJksCOslBeQqFQsEOCgGJ7fjZb/O54PN7+fw6W7cRMGJBGr4K421jt55Z/bi04jsXxUzP2492teNfmNZUzmhY1S5e7GXC+yz+f0fGe7UZOqBkEBC+e97Vf3TaqbLz551AyL1Q9L6d3+jAbolFEUQTHcchkMh1pT9V1HYlEAsFgkFqHia6gqio4jqNAnA4g8Dx0XaegpjHnL96M44e7rXdL1SMk6PjnCwn8xEISP7GQaGtd7wjl8I5QDo8cPt6URfz9/gT+vxsR/P3+eBWajDokbBIdYSmo4zP3ZfATpwttiZm1CHoMPHJ7Do/cnsNmisNTb/jw1Os+bKZ6cKKSkQGfCARGrGVKUYuVmjXuvpKo2RqlVZtra2/irrvuBs/zMAwDW1tbWF5e7vMMu49hGNjZORIp8vk8NjbWARRbG/2Sv19TK8eynZgJj95vfIA4fmoGglg87YhHUz3bj7i1PJcS39/DS899p6PbDZjjcfOiVeTMDtLx6moPTaPAoEGH4zgEg0HIsoxCwd2Tu1FM00QymYQkSbZ1C0F0EgoW6hwULDS+FDQD37qa7Jqo+Y5QDr94eg+PLHevvX1JUvDIcgyPLMewKYt4aiOC/351ltrWRwASNom2eO+igs/cl8F7FxsvCe8ES0Edn7k3g8/cm8FTb/jwny4Gui5wMrEUTFEYnZbVBkTNucVJO+TH0A3sbsVbFyO84xUSIPACvF4f8vkc8vk8rl27arekFwqFw0rOuT7PsntYAm5pC/ra2pqdhC75pIG7uGCiCZiGCQQHRHAdIaYXwranbiGndLVasxK3ludSrl1+vWlh89989nOO6/29xz+Hqw5+oQQxSjAMA7/fD47jIMtyR9Ypy7Ltuzloxwdi+LGDhXgeXL+7RYYcChYaP1QT+P9djuPGQec7Ud47ncH/eXYH751u3VqqFZYkBZ85u4N/dXoPv391lgTOIYeETaIlrArNR27vf5udVcX5n14I4Pdf9ncveMgwisLH8Zn6YwedBkTNhZWIHfBh6AY2ruwin2tSwGZZmJHg2FbBST4JiqLAMHTs7u4iFArbYmYqVQxdGkVx0xI1Syt5rl27agcGCUJR9B1EmFgSKLSf/EscMRGSMD1ftGKw9iWjgJy+iXS8et+mqVRxSIwPXq8XPM8jnU53pHqrUChA0zRMTEz036qEGEk0TYPBshQs1AEoWGg8UE3g72UWcaWzFbpLkoLfuXu954JmJSFBLxM4/+/LC32dD9EatEcnmuYX75LxmfsyXWs5b5XP3FsUWn/9O8HueXAqKphEGmZ4ov7YQUXOg4kmui9qisJIhC6dPXsWOzs7SCabN8i2kmQtQW9t7U0EAn74/cXPdhTFTSdRc3d3Fzdu3ABw+JkEgi2vf2FhwfYr7RqZzlQfEUVmFyftf29di0LvYmiQE/vb34dXrC2m7m83n76+sXYBuUS1sClnyCOSGC94nkc4HEYqleqY72YymYTf74coih2YIUGUYxiGXb1JwULtQcFCo01cNfGywkPu8J/2/zy7g8+cHazzJUvgfGQ5hn/78gny4BwySNgkGibkMfHln4z3vO28GZaCOr78k3H8/vf9+E8XA92p3oynixWI/BCWqmfkoqhZAxI1y7n17K249eytkGUZP3zth2WekY3AczwC/glkssW7ka+++iruvPPOMnGzUChgYWEBgjDcNgeFQgE7Oztl7ee7u7tYW3vTfhwMhlpqMVxeXsatZ2+FJI1n9e8wU+qrKWd6X824v/MyGP1y7TF7JGYTRDswDINQKARZlpHPt/87N00TmUwGPp8PPt9gVvgTw41pmlBVFTzHUXBVB6BgodFjL6Pi/72WxtzJznUrLkkKvvJPruIdof53fbqxJCl45twa/vvVWfzaa4v9ng7RICRsEg3x3kUFX/nJxMBVabrxr+7K4r2LCn75f4Xww2jnv+ZMNFEU7oaJOqImx7GYXZwkUdMFSZLwj//JP8bVq1fxw9d+2NSyHo8HpmkgK2ehaRpeffVV3H77HXblYaFQwMbGBiKRCMLhcBdm330ODg7K0s+BalEz4J8AzzX3exQEAXfdfRcWFpzbQgSRg+RrPGyikFN6XjFIFNF19xamf/kvfxaPPfZY1fNf+MIX8Pjjj3dzWgRBdBBJkmzfzU60pudyOei6Dr/fT76bRFfQdB06BQt1BAoWGh2uxHL4izfj4Lydq5r/iYUE/svd6wgJwyF+/+LpPbx3Oo2ffm6VvDeHABI2ibo8cnsO/+WfNd+G22/umFHxpw8d4Kefnuq8uJkvAHkF6ODOvqs0IGoun5mDx1d8P4Wcgp31WPOipuQtJkuPmKhZyunTpyEIAr7/8vebWs7r9UHTdRQK+UNx8xWsrt5qt6EbhoFoNIpMJoNIJDI0FSqpVAoHBwdlVZpA0VPTaj8HiqKmx9OcRYQgCLj/3P01W89DkQCWjzdexdmyYD/OKN33HN3Y2MDzzz/v+DxBEMOFx+OxfTc70ZqqKIrtu0mVdUQ3oGChzmEHC2kadGpNH0o2o1k8v14sVuhUn9Qvnt7Db71zq0Nr6x3vCOXw4od+iJ9+bhU/TA7Htdm4QsImUZNfvEvGb74/1e9ptEzQY+CvfnYfv/y/Qnjqjc7ujJhoHObS4HsjMtFETc9AJ1Fz48pu81VtAakoao4By8vLANC0uBnwB8BzHLJyFkDRczOZTODUqdPgD03sc7kctra24PP5EAwGEQy27kfZLQzDQCaTcRQ08/k81tbWbF9RoHuiZiuwh993Ejcb5DA0rds8+eSTePLJJ7u+HWJwmF64G8dPHKt63vP81wGQNcCww3EcQqEQstksFKX9fa1hGEilUpAkqenjCUE0iqZpMFnWPicjWofnebCGQcFCQ0Y8msLuVryj6/ydu9fxyHKs/sABJSTo+NNzayRuDji01yZc+a33p/Gv7sr2exodwao47ai4qelFwbAi8fu9exMIaJ2723sganhpurW/A4ma3aNVcdPr9YFhWGTlDEzTxO7uLpLJJFZXby0T8XK5HHK5HKLRKAKBgO0z1i8fzkKhYM8pk8k4jrlx4wY2NtahHZ7EMgyDYDDUUvt5o6JmMpbBhtxYmmIo4kdoKmCLm1dfv0Ft6bUwDDA7se5WbIocoNRvSWICQ1IdTzTM9LG7cOzUHVXPe3x/C6D5MCdi8GAYBoFAwD52tItpmshms9B1vWW/Za+vzr5EpEujcUc3DBiqSq3pHYBl2WL1pq5TsNAQsLMeQ/LA+Ry/VYZd1LQgcXPwoaM34cgjt+dGRtS0+C//LInNFIe/3+rcBTITT8OsEDZPpztbSTCXE1oSNknU7D6tipsejwcczyGbyUDTNeTzebz66isIhcJYXV2F13vkGWlVqVgJ6tbybI9apQzDKEs4dyKZTGJ9fb2sSlMQBEwEgk1fFDRbqakqOmS9saAKK7imVNxs6Ts/DvRC1Pz/t/f3UW6c950n+i28Nxrd6FeSzW6SLcqSaImW+WLZkpyxKDuO4zgTUbmT68wkM6Hm3uQcZ3ci6ciTuXsyXknJ7Nl1xjqW9uzae+07EX2dnL0eZ8a098SWnIndcqKXWKLUkimZEk2qm+wmRHajG2ig0Xirwv2jUOhCoQBUoapQBfT3cw4PG92FB1X41fPU7/k+v+f3AxD4zK1Advv+2jUzhshACPmtIq4vrW0fGGOEVr/xvf/zNAaigw2/v3p5ofsnQxxlYGAAfr8fm5ubtuTdy+fzKJVKGB4294zx+32YOrCdH72Q00SSxqJ9nUqHGKe2NZ2FhSwjCAILC/UAV3MiNihqtoTiprehsEka6NWcmkY4/Rspe3NulsWmuTbHxsYwOj7acdPryXWsra21P1CLsnU011zsiQyEMHVgnKKmDXQqbgb8AQwPx5HPbyG3JQvQ6XQKL7/8U4yPj2N6eqapuNdOaOwW165dq0acpmq/EwQB0YEoIhHzD3yntp+rSVRzBsXHYggPhChu6tElURMAhMEQMLg9fg7MjiEai0DI5iGUnP980l2K2Ba1KGDuLEKhUC3vpmiDuCGKIlKplOF0LT6/D/tv2F7MTa9lkUmrFn9DwR3vz5BGyqIIqVJBwO9n9KZFWFjIm4gVYGmzjFy5Ajvv8M/uT/aVqKmgiJuf+PH7cSXH3URegsImqePwZBl/dsLYts5eZDgs4enfWMcv/+UE0gV7hm9hPYPK6FDD7z9054fwK5/+lY7b/eEPfogffv+H8ou8wfxUxRKETK6lIBGpijk+vxyVkF7L1sQeM1QmRxq24e9UOhU3BUHAwEAU4XAE2c1MLV9lMplEMplEJBLB+Pg4xscnHBX7zCCf2yqSyWRty7lCOBxBdCDaUTRpN0RNhcRiEpGBEMLVf/tv2o13zycc/9xeoVuiZq9z6Pj/AwcPNW6lfvXVx7By7U0Xzsj7rPlFXAmUEFJNn3x+X217cH6rCKm6yPCLoPfuwQqj+Szh8/kwPDyMXC5nywJdpVJBOp02JJRO7Z/AenW9rcHvCQVRmRrXfyPZ8UiShGK1anq3dsv0K0phoVK5zK3pHkCsAJezZeRFe4Xmuyey+F+PLdrappeIB0Wc/shFVkv3GBQ2SY14uIKnf2Mdw+H+ftDsGxbx1KfSOPW9EXsazBcgJNQOemMxBKsIiVVb2qGo6RydiptAdbI3FEepXEI+v1UrtJDP57G8vFyrLh6PjyAWG0QgEEA8PmLbubcinU6hXC4jm92si8xUY0XQBLoraipcvnCtloohXI1g7qQvCCup/ovyoahpiGYRh1u5/krjYjc/jtanSInGIth/0xgAuV8qKSPcJNgsz2I0ov97YhhBEDA4OAi/349czp4iUUaiv/x+HwAJuWy+fqz3+eQxnIIVaUOpXIafhYVsIRgIQJSkhgVy0j3yYgWJnGi7qKmIfv3O4fgW/uwDS/ijVw+4fSqkCkdmUuPzd2Wxb3hn5D751Rvz+IOjOXzttZ0jzlHUdB4r4iYABANBBGPBal7LPPKFAiRpu0+m0ymVuOjuSmjAH0A4HEY4HLG0PcsNURMARFGqEzfjYzEAMN8nsjkIQP+JmwaIDITaF+LoY773f552+xSIA4xNDteEzZwq/ytGh4AAIzPsIhKJIBgMYmNjo2vbUgtbRSxfWqn7XWVqHAi5U5SP9B4sLGQffp8Pvmr0Jremd5e8WMHlbBk2a5oAgKeOLSIe3Bl6wmf3J/GDRBw/SIy4fSoEFDZJlbtnit0sFjQHYB6AkshzAcBs9ecDAI5U/znK5+/K4gcXw7iy0f8TFYqa3cOquAnIEZwDA1EMDETlLVDFAsqiCLFcRll0Z3U7GAzC5/PL4mswaNt2rA9/5MOubbNXxM0bb5uGz++zJm4WS/IE2ecznjqih2kYU5I7I0qx6Dc+kV3z7QzH3grBUABDI9v5eOPjgygVyygV3Rnn/H4fJqbk8UgSJaxfrxZt8/lQGW4sdNTPlEslVCoVR8Ubv9+PkZERbGxs2JJ3sxX5rSIuL9XnU65MjlDUJKZhYSH7ULams7BQ98iVK1jadEbU/PRUCp+eStnfsD5zaK4nfLD68xGnT+KpY4t44YdD3JLuAShsEgDoRrGg0wC+O358+YyRg5Nnp0cAnATwewBOOHFCw2EJf3YiY9+WdI8SH4vVVQFdfS+N1UTKXCM+Hyq7x3SLJJFG9u/fj/cS7yGRsJ630efzNRTikSQJotQdBzDgdy4q4dChQ5iYmHCkbaOoIzcVcbOQK+Ga2YaKJQiL78kRXeX+ds6jsQhmDk7WLZSkm1TSVI89UtmdNCf7b/4MDrzvYMtjBn5xCfhv/0fbttYGfPi/bh5AqN2MILuF9Zw3inx5lfhYDLtnRmv3kfK7+FgMicVk03vKSXapzufa0npNBKuMDu24rcqlchkbGxuIxWKOijeCICAejyOXyyGfdy4NwfXltfoicaNDXKglllAKCwW5Nd0yfr8fgs+HMqM3HSVdlHA154yPGg+W8ZSzeTVTAM7AnJ4wC1lHeBAOiZzxoMgt6R6BIzFxegv64wBOjx9fXjDzpvHjyynIYujp6qD0KIBT9p6avCX97pkiXliyX7DLb+WQWu88N2Z+y3ruKa2o2dFk0eeztFVr12oOu1e3MJLKI1SSECyJGE0XsB4PoxT049mOWvU+hz9w2BZhUw+fz9fzCeyj0ShuOXSL26cBoBrJoxI3d82Mmhc2Ffpc1NSOKdeX1rG2stFwnN/vq23zB+ToNzeEKgCIDu3B0OgNbY4xPt6uDbTve0K5AmxxctaMaCxSdx8pEZrKFvCpA+OQRKm+arXDRFQpKQpbxe37NeAHdli0poIoitjY2EA0GkU4HHb0s6LRaC3vpuPCRiiIykhj0UdCzCJJEgrFIgsL2YCPhYUcxUlREwD+4MYVp7agpwA8BeDJqj5gmKr+cBqynnACsp5wws6TA+Qt6V+7uAvn0gPtDyaOQWFzhxMPV/AHRx2ZOMwBeMCsoKlHtY0HkmenvwHgy7B5xeXzd2Xxm98es7NJAMB7iUW8drbzB/N7iSuWPt9NUXPXag4HFzcwncggVNL/DkbT/R3NFI1GsX//fly+fNntU/EkypZ9r6AVN+1iZWUVGxuNwp/XKBTab583OqZEqsWYFFGzsFXE0qWV+mgpsqPZPTNa+1l9Hw3Fo5g6MF5bYOimsLlLdU7XltZrP1fG3UmV4RUqlQo2NzchiiKiUWcjHMPhMAKBADKZjLPCBgUoYjOlchl+vx8Bbk23TDAQ4NZ0m7m2JWKt4NyYum9YxOePmE9xZoAzAB62SU+YAzBXFTifxva2dVv4sw8s4f5/uMnOJolJKGzucH7/2KYTVdAfHj++/KTdjY4fX55Lnp2+F7K4ecqudu+eKToWtekWbomao+kCjr1xHbtWuzcZ9TLjE+MUNpswPjHe/qAmLC4s1H4ujsdQGTVYqViSICQ3gKz+/ZnfKuLa0npd37FKoVBAodD7Ir4ZUVMtDheqgnEzUTMyEILP74MkSshvOZOb9JXn53Dx7bdaHrO+et2RzyaNBEOBmui9vrJRdx9l0jmEV0KY2BNHMBRAZCDk2H2hJj4WQzQmjyPptex2ZfZQkJXQq+TzeYiiiFgs5njezXg8js3NTRSL/Z+vmPQPoihCkiQWFrIBv98Pn8/H79EGruZEpIvOLix//i5HduQ8MH58+bTdjVb1hKOQxc2TdrV790QGh+NbjNp0EQqbO5zP3rplZ3MpyIPQGTsbVVMNQX8geXb6dcgCpy04FbXpBhNTI5jYsx1h0pGoGfDLOTVNiJofOJ/E4Z93vvXeSxR929vgFhcWcGB2tqN2nI5u6WWs5NZcWNzO4ZM2szDj86EyOQKhLAJ5fbHRru3S/ntuhHR+WywbrAQQhdyfbrppe0X3woULAIAcStgUyq4dp+C7sVHUNSpqao9rVaRsKB7FrpnR2tZjAI4VjHnlH+YcaZd0htrmmVSjD5LL5IHqM8zO6OlWKAWMJFHCakKVc5yRfXWUSiWkUikMDw87nnczFotha2sLW1u2+qmEOAoLC9mHIAgUNi0gVoBETkSmyc45u4iHK/j0jbYu4KcA3Dt+fHnezkbVVPWE+5Nnp5+GjcFSf3DjdebadBEKmzuYz966ZXduTUcHITXjx5efTJ6dTkFebbHM3TNF3LTbj+VNG6pjOrDrVIkkaUd8fLCWI0wSJSxdWtmOPDFKKLhd3dnI4SUJ/+Sl5b6K0rwaE/HB6/K98P3vfx+f+8M/dPmMiJrn5uYAACVfBStR8w5bZfcohEQSKJZ0/26HuOnbNwLfvpHa64PiGN4vyltdv/LVr9Z+/4ef+xwA4Of+dfzcv9b2uMV4Dme3Era1pxzXDKMLJdrjWhUp0x6roBa8rLI24MPluB/70+aecZfjfkM5NNuy2Tju+rsk0nkdtYA9NDLQ8IyKDHR/94QioOa3iq5VZO8VKpUK0uk0BgcHHc+7OTAwAL/fj83NTRYUIT0FCwsRNxErwOVsGXknSp9r+OytW3bu/kyhu3rCA8mz04BN4uZn9yfxhZ/NsEK6S3C03cF8+n22rq480K1BSGH8+PLp5NnpDwJ4yI72HvyYiP/tFzPWGzprvQkt+2/abep4qVrp2fQWvg5EzY///eWu5Mv8xN9fwd/fOY1i0HlxIBeUBbPJnA/PPfccfu3Xfq3jqE1iL6+8/DLeekveVnx1qENHqppmoZW4aZQbb5vG8qWVrmyXBYDoUARTu8aBS847q1MHxusWSpqNKerjgNZR4sFQoCZqSqKEtZUMcpk8hkYGMDo5bNu5F/0Cfjzr0hbibK7hvlKKKSmUCjtXPCsVyygVywiGAoiPxZBJbdXEzchACBNT2/eH6YU50jU2NzdRLpcRjUYdjaoKhUK1vJsic+6RHqJWWCgYhI+Rh6RLdFPUBIDP3mZrVP39LugJtoubX7u4y46miEkYPrBDiYcr+NUbbZswPOlEDgwjjB9ffhhyoSLL/NLEevuDeoBSsdx3oiYgFyQ69kb38uD9fHxbmPjSl76E3Oam6TbS6XT7g3Yoq6vm0xYsLizgq6qow7fGLYiSHRbG0hIMBbD/pt1djTKLj8UwNtm6om8w5Ec0FkEw1HrVWDlO+8+IqKmIderjFs4nWka8ju3aPu+lSytYTaSQy+ZxbWm96bb1XkJIpiGspOp+p60QX1dxe4dyvVqcx1f9bm44NIX9N+3G7KGpWvRk3ZZw4kkKhQI2NjYcr2Ds8/kwPDzseISom1C07V9KpRIL4XRIP+Qo7yZ5sYKLG6WuiZr7hkXcNmktQEDF49UCP27wMIB5Oxr67H4dX9aFnSg7EUZs7lBsFDUXADxuV2Md8gCA1wCMWGlkT6SA4dQSzq1YEzo+BPsrqF6+cM3wsR1FuJgUNQHgI2cTXa9sfsPlNIpBH1693fmVsJWohMW4iANpP1ZWVvBv/s2/wSOf/zxuvfVWw20kV3tfqHGK9xLvmcqz+YPvfx9//dd/jc2qwPz6rhJyQYuOmxK5ubwClDufdPj8PkxMxbF0acXQ8U9+2Vh64FbH+QK+lsfFx2PYPx1FfNkHLLU/rhnNRM1gKICZg5N1Yl1iMdl2QUV9vHasSq9lMTEVt3VLejcRVlK6hal2zYzWXbeZ8bxfyaRzSCwmazlZwxqnf31lA2srDuR1IbYjiiLS6TSGhoYQcHDbrSAIGBwchN/vRy7XP6lvFPL5PEqlEoJBG1IiEc/BwkLmKRaLLCBmgrxYweVsGV3SNAHAztyac+PHlx+zqzGzjB9fTiXPTit6giUOx7ewL1rElRzFzG7Tm7MHYhkbt6E/UE3A6xrjx5cXkmennwLwqNW2joxk8NN3vVfwxdHteLEoKuPDpkTNWy6uYyZhPOJo//4Kjh+XcOhQBdFoBfv3V3D+vPx53/wdc6d7y8V1LO2N4fqE83Z6ZU8RQAgH0nKOrz99/HHMzs7iQ3fc0VbgLJVKeP311x0/x15lfX2tbWGQ3OYm3nrrLbz88stYWdkWDRfjIn4xatNWXp8Pld1j8rb0DqKOsukcYvEoYnHj9+M777zT8XHZVA6lyQCAUMvjrHyuQqlY1t1mb7by+U6gmaipjnzl91SPUn18bNdQTdgsFctIJze5Bb3HqFQq2NjYwMDAAAYGnK0IG4lEEAwGsbGx0Xd5NxOJBPbv3+/2aRCHYGEhc1xZWnL7FHqGdFHCtS2xq6ImAPzq+2x7VrsdJIXx48vzybPTT8KGFHd3T2TwrcuNxTiJs1DY3KHcPWPLCticiyHjWp4E8CAsRm3+6vvy+Nprzgpmm5Ui3ixdx4K4jln/KG4L7sKg4NKqTiyKyuSIqbcM5kqGq58fOlTB/feLOHSocSKv9zuj3Hn2PXzvUwc7fr8ZXtlTRC4YxPtX5eFyYWEBCwsLXfnsfueZZ54xdXzJV8Hru0pYjNu8pasasSwsG4u4VJNObtZEzWgs0lSQuerbRLwSQkiVASY8EILf74PoB3y7ooi8l8XVXONxCkVIuFRIIf1mAelgFCXfcNPjfrG+gVxOwmrBZ+g4PfSuJT4Ww+6Z0ZqomV7L4vrSumGxrrBVRDQWQXgg1PB9DcWjtWjNXLZ3tp9R1OycUrGMa0vt08D4/T7ExwYByFHExJtsbW1BFEUMDg46GpXm9/sxMjKCjY2NvtrCvbGxgeXlZezZs4fCVx/DwkKtEUURV5aWkEql3D6VniBdlHA15844aJOecNpDesLjkHNtjlhp5KMTWQqbLsARdQeyb1i0q3rZU3Y0YgfVEHLLUZuHJ50t6DBXuISnN89is7L9IBgUQvjvYnfhwyEbCheZoQNREwA+8PMkQqX298/994s4edKZB+1groQbLqfx7n77t/3r8dZ4CQvDZdy0HsDerB/RErcRdZOcUMaiL4NfjIsoxged+ZBQEIiEgbw5QS06tJ3zrVU15bRQwEuB9+p+FwmEMHVgvBqt5sfsyBSuL63jpZX39BtRsVrKYTXQYjtmSf6XAwwdZ4SxyWHsmhmtvV5f2TAkSqlJJzdrRYJmDk7WigdFhyJ1ldLTyR7IQSlJTQtQaXOUJhaTFDUtMH1wsiZ6W8lPysr0zlMsFiGKImKxmKPinCAIiMfjfbctfX19HRsbG4hEXCp+RrqKz8RuqZ1CLpfrqwULJ1nNS1jJ97SoCQDfsKshq1T1hDOwWEjo7omMLedDzEFhcwdik3iXGj++fMaOhmzkNCwKm8NhCfuGRVzZsN8ZXyiv43/Lvtjw+81KEf979kXcMPJrmPQ5JNpo6VDUVATFdvz+75fxS7/k7CT+Az9Pdk3YBORK6a/vKuH1XSUMrm9hcJ1bJbtBSiighOq9JLQumOMGinilVHo2Q36riHfPJ7B7ZrQm9u2aGUV0KOw5IcxM5fNW5LeKWH0vjYk9cTk36Z44sKe+HycWk6a/y67TQtScmBoxVE2eGGP3zCiiMVnkUQpN6WFEtJw+OFn7uZCjTZxCFEVsbGwgGo06XvAnGo06mtuzE6wWPBFFsZZPmhBijo0NOT+z2OdBz1dzItJF9/xEm/SEBQ9Fayo8BYvC5r4o/Qs38JYnQLrCbbtsqV52xo5G7KSaa3MewBEr7TglbP7nrTea/m2zUsR/zr2B/y52l+2f28DoECojnQlERvJq/sqviI6LmoAsss4ksliairU/2E6yOeRSKeQYtEkAWyo4X1taRy5TwNSBcfj8PsTiUdx4WwRrK95Y8Y3GwjVhSRIlLF1asZQDcTWRQiFXxK6Z0bpCQaViGdeX1pFJt4nAKpbkfKhuRbq0EDXjY7Fa5ClFTevEx2I10V8SJSw3KdDlrxbwUijofOdjk8N1Amnb+4xYolKpYHNzE6IoIhr1Xu5yJ0iHJUzmfHU5oQkh3UURNvOD/ZWDV43boiYA7LMnLdQZOxqxk2quzQUAs1bauXsiixdWuzxH3eFQ2NyB7Bu2ZSD6rh2NOMB3YVHYvHtfES8s2Z/zcqHcesvmdcn51fnK5AgQ63yCccNia/FmYqKC3/md7m2JmLnaZWEzl5fz6RF3KHlza1J6LWtpeywgV4nOny9i6sA4orHIdjSjh2hWTKgTMukcMukcIgMh+Pw+SKJkvN2qsFgZHeq+uFkuQ1jPAOXGezE+FqtV+e5E1IyPxWrCm+cjVrtAZCCE3arUB81ylPr9Puy/aXetAFE2nWs4LjIQqqVRaCWQEvvJ5/O1ren9Xg16M7gtpKysrGBycrLF0YQQu1EvKvRjxKZYAS5ny8h3u0qQDrdN2hIo5VU9YQ4WozbjQfpx3YbC5g7EJmFz3o5GHGDe7RPwKlZFzVBJwmi69faq++/vrvA0ncgA2NOdDyuWKGq6TS7vXKReWTSdXxOQxRa7KjiXimVcvnCtupV5sC6a0W2y6Zwj2+M7FkmLJQjX1mw9FyuoRU0AHYma6venkzt7G6rf76tFMANyeoJm3+d2nlo5UjOxmGxoS70F3dR9nC8A+SIQcanAX59QKpWQSqUwPDzc10Vx0qr89UtLSxQ2CekyS6pK6rlh98U/O/GSqGkXHtyGrvC61QYOx7fwg8SIDadCjOKdWRPpKcaPLy+4fQ5NWLDagE3CbwO3BXfjeuFS07/P+keb/g2j1nILViJhyxOzkXRr8SYaRVe2oKsJlSQM5krYjAad/aBiSd56Knkn5+GORJIgLK+gEo/JxX7soliSo/A6wC5RU81qIoXVRMr2dokzaEXJViKcHuocq5IoyakJHLiveolYPFoTK1tFRE8dGEcsLi/YNas8r055sL6yYXoLupBMozJNgcoqlUoF6XQag4ODjufddIuVqISSr4KgJODnb72Fo0ePun1KhOwo5l97DQBQCgP5aP8IgHmxgqVNESXJO9dkQ/GgBRtOwynm3T4BYh4KmzsQG4S7eRtOwxGqeTEsteGUsPl/j96OnxaX6iqiKwwKIfz6wKGm7+00J6ad7F7davn3Q4fcEf0cFzaVfHoUNb1BWYSQ7DyfJSF2EhkINYiaZtISaKunt4v0jI93qcCcywTD2+6pNgJTQV2kqZmoORSP1h3TUS7cYgnY2ASGd8Z37zSbm5sol8uIRqN9uTX96pCEA2k/VlZWsLS0hJmZGbdPiZAdwdLSUi2/5lpcQq7sHRHQCmKlgkRORB8FaiosuH0CLUi5fQLEPBQ2dyA2CHcpG05jxzHpG8Tjw7+MP888V5dPczYwiv9+8K7uVUR3iAMH3HnijqYLuD7hUGECipqEkCZEBkLYf9Pu2munRU318aViecdHdY5Nygt+kijpbi8PhgJ1OU+tpFIQ1jOoRCNAoH+3UXeTQqGAcrmMoaEh+NwqAuYQb42XcCAt3yc/ee45/Ivf+R2Xz4iQ/qdQKOBvf/jD2utXY0Xksv2nBJLuYEegFOk+FDYJ6SKzgVF8ZfQkFsrr2KwUMSiEMBtosQXdQwxutk4SPTHhjgMRKjkkOraofEwI2dkooqY6B2S3RE0Wv5FRvvu1lYzudzdzcLJ2zGoi3fT7jQyEalvVg6EAIgOhxmMlSRY3J0danxQXwQwjiiLS6TSGhoYQCPTPdCQXrOAXo2W8bz2AlZUV/OS55/Cxe+5x+7QI6Wt+8txztWjNX4yWkQtS1CRkp9E/ngQxzJUNv9WozRGbTmXH0itipprBXGuBL+pQ0KRbCNfWm4qaSiVn0r8Y3bCqVLEmOwdtYZv1lQ3HRE1txW+lOE4rkY73pLxNXV0lfW1lo+EYv9+HXTOjNVsAsrA5e2hKv1hWNifnu24RtSmkd3bRJ7NUKhVsbGxgYGAAAwMDbp+Obbw1UcberB/RkoDXXnsNE5OTuPXWW90+LUL6krfeegtvvfUWAHlh4a0JVqMm1kienT7i9jkQ81DY3IHYIGweselUbMeOgejKBrea6XF9Mopdq82LLly+LODYsS6ekIMIK6mmFbLVhT5I//Izg8eptyKTnUd6LYtrS+uGjtUKaZ2Imnp5JBWG4tG6fJ+FnOXE/j2J3+/DxJ44gO0t6HpoRU01sXgU0wd9uHzhWv0f8gUg1mQVL5dv+twgrdna2oIoihgcHOyLvJslXwUvThfxscshBCUBf/vDHyKzsYGP3Hmn26dGSF/xk+eew2tKwaBqvyv5GK3ZI8y6fQItGHH7BIh5GHJEOiJ5dnrW7XNowqzVBihsdsamS4Eq1ybsjfIQVlJyZI4OUwfGKWoSQgDIkZrNRDMtikipLmRz8c1l20TN+FgM0+qt1++lW1b/9vdxxLnynQFomlczGos0FB46/9oiLr65jELVJupjFIRy80VhIWOu2rrX2cp193qKxSI2NjYgiuYX3nNdPlcjpMISXt+1vevjpZdewn/567+ubZclhHTOxsYG/stf/3WdqPmT/UWkwkwH0i1eWAq1P6g1szachlMccfsEiHkYsbkDsUm4OwJvVjPzTCKjPVMHcPT4L3X8/szGP+Cd81dsPCNrZKOth4tXX/Xhd37HmYryrSgFbRSiNzZbiprqSCsrhShI/9AQ0UV2BGYK95gVKTsRNc1UZtdWci8V+3fbXtPo1pHtBbGlSyu176BULOPyhWu48bZp+Pw+DI0MGEszIElyxKaK+FgMY7uGaq8npuJYTZi7d9wgPhxAeqOMF198EZ/59V/v6hZxURSxsbGBaDSKcDhs6D0rKytYWFgAAEQHvCXYL8ZFpCOFWuTm0tISnv6Lv8Ctt96K9996KyumE2KSixcv4tLFi7Wt5wBFzV4meXb6xPjx5Tm3z0OHD1pt4Fy6f9Kr9AoUNncgNgmb9wE4Y0dDNnPCagMvXLG8AgUAiAxEMTI6Yen9XiIVb523bXVVwOXLAvbv7+4WkPW4sclPW7I5CEn9zIpmC32QnYPXRQriLl4UNdVFj9ZXNpoKm/HxwfYX2KOov1/t9YuihPxWEdFYpCGXcqVZfs389vPA7/dh+uBkQ67TaCyC/TdFkF7LGo70dYP902H8bKOMra0tfPvb38a/+lf/qqufX6lUsLm5CVEUETWQvPurX/lK7ef9Mzb5AzaSCkv4wY0FfCgRxN6sfP8oOQHD4TAmJycxOTlpWMglZKdRKBSwsrKClZUVFAr16T6uxkS8MlXi9nMXeHMliLtnLM+F7gMwZ/1sbOeE1QbSJcps3Ybf+A7kzetBO5o5CeABOxqyi+r2+CNW2+FWdH3W42FsRoMtiwh95zt+PPhg96J/lqb086OZJpuTt6DrQFGTENIJZkVKreioW8BGhXpsAsyLmq3yg05MjdSNe4U+G/Ok6ncaDAXg9/savmOlSnoDEX3xSVAVmpuYitdETUmUkEnn4Pf7EIvLIl18LIZsaqtlqgA32T8dxsWFLeS2JLz04osAgN/6rd/qenGffD4PURQRi8V0826urKzgq1/5Si1ya2IsiIkxW/xb21Fy/03mfHh/MojJnNwHC4UClpaWsLS05PIZEtJbrEQl/Hy8hJUoozTd4kralvnySQAP29GQXVTrdcxabeeFVZvmqMQwFDZ3IOdWbDH7SPLs9Knx48un7WjMJk5ZbWCj4LMmbPp8QB8/Y69PRHHD5eb1ol991YdXX/Xh2LHufAlLe214aBRLEJL6Oa8oahJCOsGqqNkuqs/s2GSm/fhYrK74Tqvz7lUyqS3E4lH4qgWd1N/FxNRITdjMpra23xQJN6+IXpCFTb/fV8vDrLW52ga7ZkY9K2wGgwI+cmwI//DTDZRKFbz04ot4fX4eN998M2b27ev6+QiCgEikPvr1rTffrNuKGh8O4CPHhrRv9RwrUQkr0QKiJQF7s35M5nyIlgSMFLy1hZ4Qr5EKS8gFK1iJSrgaE5ELMkLTbWzSE2Y9uB39QasNXMnZs/uTmIPC5g7kyoYfGwUfhq3nIvk9AKetn5F1kmenR2DDQGR5kA4Fgf5NV4a33zfaUtgEgK9/PYD/4X8o2b4l/Zvn3mn8pd7vbOSyo60TQvoRPRHx+tJ6z4iaytb2fl7MyaZzKBXjCIYCiI/FEI1FkE3nEI1FamK0JEp1EbCV0RbCmSQ/79SFi1YT6Tqb57eKSK9lMTo53DwitEsUKtv5sEsFCcFwvbAWHw7glz48jH98NYPcloStrS28/vrreP3117t9qm2ZGAviI8eGEAw2RnWKZYt+SFkEcnkIkr3C/haAiwJwsX+zPRCXqEQj8lzEbnJ5eWeTTl9QP5PaLeK1ojI5AsS8lYaLNMeG4kEKj8Ij29Gruz9PWW3nhVXvL7T1IxQ2dygvLIXwqzdazg13Inl2+uT48eUzNpySVR4CMGK1kWd+0TqPZFsGQoA3gzBsYT0exvWJKHatNr/IXA74n//noCPiJiGEeBmzIqWZ4/1+H6YOjNe2NFPU7BxRlLB8aaX23QRDgVqkJaATqRqNABFzkzi9ib0obj8T9bbAd4vr0naeus1MGSPhxmuLDwfwKydGcXm5gMS1IlbXSiiVvPFMjw74EB8O4MbZSMvt55uZ7RQB18RC0+N0aZGihhCvIqxngFhUFgntJBpBZWocQiLZIG4qz5T4WAzh6jOnE3FTWEmhAlDcdIu8+ef9C0shO/JsnvBQ1OajdjTyPLehuwKFzR3KD34RtkPYBIAvJ89Oz40fX07Z0VgnVFdXLEdrAtZXnyqqVdL15DouXrjYcVvrSf3cZ27zs/eP4xN/31q9VcTN++8X8Su/0v1K6YR0C22BELJzUYRHp0RN7dZ2dTVvq+1rixBdW1rvC1GzVWRkfquIi28u13JihgdCKGwVkd8qYjWR3v5uQ8GORILoUKShuFg0tp2j083t/ZfLWyhUJIQFH9ZXCxiZaO777J8OY/907xW2EcUKUqvyPXxdLKBQMf59C6kMsJ5x6tQIcZZsDgJgv7gZCnZF3MRmHpXxePPUH8R+yiKEFfPzzmd+EbFD2ASALwM4akdDnVLNrXnKjrYYsekOFDZ3KM9cjABovaXYILOQByM3Cwl9BzZEa17Z8Fvfiq6K6Hj5H1/Gy//4ssWz8h7XJ6JYmophJtG8SAUgi5t/9Vd+PPusD5/6lIRjxyRMTHgj2oMQu9h/0263T4F4kHaiplZIXH0vjdVESvdYs/k6AWuiZrsiRF5HXeho98xoTazUQxSlpgWUAAA+nywO+IzlQMxl8ygVywiGApjYE4dUlrC2sgF/Na+mshCS9UB+zQvlLA4Hh7GZKSN5rYDx3b0nXrbivcu5WoTsK8WU4fcJKykg6759CLGE0+LmtTU5VYMKu8RN5PIQcnl5S30kBPiZg9ZRSnLKDb00A+34wcUw/vSELWdxJHl2+rHx48uP2dKaSaop7Z62o61z6QHm2HQJCps7lHRBwDMXI3ZFbZ5Knp1+zo1CQsmz00/DhkrogCL2WiASBnw+FH0VhKTGXE+dsh72XtLOfzw+hdEfLbSskK6wuirgr/7Kj7/6K3nl9dChbXHz/Hn7vidCCPEC6ysbLcUyM0Ki06JmNBbpWNR0O0+kgt9f/xwRRQmJxWQtelaZXJuOQPX5UJkaN52v7vrSOqYPTgIAds2MYtfMaN3fpXZiapd4vrCGmwIxhAUfEpdz8PuFlpGbvcTyu5tYV0VrnivpFwjUQlGT9BXZHISyiMruUcOLM4YIBVGZnpQjN4v184DrS+uIDIQQrv7rWNwE5LaL7ecZxD2ubPjx5koQt03aYqdHk2en511Kcfdl2KQnfOvyePuDiCN4wyslrmDjdnQAeDp5dhrdFDeTZ6dPwaaQcQD42qvWcrpUBmVh9Fs3JLF7y77E3dcGvPdQLwZ9+Ps7p/Hxv7+MUMmcs0Ixk/QTly9cc/sUiIeQRKmlgGZG1NQKlLlsHsuXVmwTNSMDIcxUBbh256LF7/fVvTeXsc2XMIwSGTk6OYx8rlR37srPVsTNyviwYVGzMhiBkJdzOGbSOSQWk9g9M1qzg/qcl9ukEOgWaamE729dw/3RKQDA0rubWF8tYHx3BMOjDhQfcRhRrCCzXsL1q1soFuQ+UqhI+H5eZ4wuluToJEXskSRdkYaQnidfgJBIyos0doqb1YUfbb8Rq/mJlQU5y+Im8TxfezWKpz5lyy5QQNYTFsaPL8/b1WA7qkFSp+xqj8Kme1DY3MF8660BfP6uLPYN25YDsWviZvLs9GOwKcEvIOfWvLJhMZdLdDvi04tipN2sx8P4x+NT+CcvLbt9KoS4hjaHHiHNsCJqttvabvY92mPNiprqKNJcNu9KP1hNpGvfp/K/reJmwISLHBsA0tna1sz0WhbZdA6xeBTBsNxOIVdExgNb0NVcKGfx/a1r+ERkEmHBh81MGZuZ3k1DoCYtlfCdrQSu6xUNqgqZlfgg4PPJBVcoapJ+pViiuOlFxAoqBWspuoSgAATdDRj5QWIEf1rKIh60RU8YAfDj5Nnp+7tRTMgJUTNdYm5Yt2DSih3Ot94asLvJp6uioyMkz06PVAch20RNAPjSixarl4WCOzLJ9dJUDM98fBbFIIcSQghpRr+KmoWtIpYvrRh6r91or3HqwDjiY7GGY9ZX5G3IirgZGTC23VpImxD4fD5Udo/VRXiKooT0WhariRRWEynPiZoK50obOL152fB2ba9TqEh4pZjC6c3L+qKmQrEEYSUl5wqkqEn6naq4qc2LaRmfD5XpyYZK5oq4qeQ8VsRNP/NlbiMBlU3R2r+S+7UL0rERfP3iLjubHIEsbj5kZ6NqqnrCj2GjqAkA//H8lJ3NEZMwYnOH8/VXB/EHR3MYDtu6gvZo8uz0PQAeGD++vGBXo8mz0ycgJ/adtatNQI7WtFwNPT5o09n0HuvxMH70T/bjI2cTGE23mEQQ0oewKjppR3x8sCa4SdX8j81ErvhYrG4Ls9OiZnota0nUdDsCRx2Vqf5ffU3Xltbh8/sQH4uZi9zM5SGspIwX36jmnUM2ByG96bpYFhkIGY5OVbalP19Ywz7/AOK+3tuKDsj5NC+LOVMV0AnZMRRLEJZXOsod3I7K5AgEoC5HLSM3dwCjQ0DAj69d3IXfv/G6XVGbCl9Onp2+D/brCSch6wkjdrUJyNGaLBrkLhQ2dzjpgoAvvRjDn56wfaX+BIB3k2enTwN43MqAVBU0H622aTuWozV9vrpt6DuR9XgYz3x8Fh84n8TNv1gznXeTkF6FVdGJUaTqJK+Z2KSN6ry+tI61ldbPZquiZjvRVMGLoqaCEXFTXa3XlLiZzQEDoYZopJbEoqjEonIOx2IZKJchqKOktopA3plFwGwqh4k9cQDoKK9oWiohLTF6kZC+RUnDQHHTU5z5wpdx9/uPYPeTp1oe951/9v/C3TOHsOtf3NudE2tFJIzKyBAAIF3y4+sXd+HzhxJ2f8oJyHrC4wBOe1lPYLSm+1DYJPjaa1H8/rFNO3NtqjkFuWr6GQDfBXBm/Phyqt2bkmenZyEPPA/CpiplejxzMWI5WhPRiL05a3qYnx0ax9s3juKWi+uGBc5/efjmuteb0SDePRDH2zeOWtviXl2Z1qLerthOaAC8PaHXnhshxJuYFTWNbA83I1QGQ4GeEjWl8nbbUwfG256rk+KmsJJCBTAnbgKyXxAJAQihbrPgCOTtzzn785Lmt4pIr2XrrnHp0gpzAXdAMBRAMMRpEukdCltFY+Oyw+ImBkIQVlK13zUTN68trdv62b2GmBexlbJWSC4Y8iMUC9t0RvpEh3SCd0JBVHaP1v3KoahNhUch7wg9DVlPmDOhJ5wE8HtwUE/42sVdjNb0AHxiEwDAg8/G8V9/a83JjzhZ/fd08uz0PIAFAK/rHPdByAPPrJMnAwAbBR++MDdkuZ3KqPU2+oli0IefHRrHzw6NYyaRxczVLEbS+Zbb1K9PRLEeD+PdA3Gsx214QCu5hDT0s6iZy+axmrCtKiEhxEZaTTjHJoexa2Z7gmC3qKlUMO8VUROQz3FiKl7bQg7AfXEzFLRNBKgMRSF0KGxGBkIthcrEYhKlooiJPfHaNZrJo0oaFxoI6QWM+LXbB1fFzckR+3edxaKoAIbEzZ1Mbn0LCwlruZfjYzFM3jhm0xm1p1Qsb+eU1gT1pEt+PPjqAZz+yCUnT+FU9R+qesI8gEWd4+6BrCXMOnkygHzdX2K0piegsEkAyHkmv/7aIH7/6GY3Pu5I9d/JbnxYM770YsyeSug7sGiQUZamYlia2t7qP5grYTC3vc0tFY/YX3hIETWl+ol3P4uaSgEPL5wbIcQ42nHp2tK67aKmeqzoBVETqJ8EK+JmqShiNZFq+T6tuLl7ZhSFrWLdWN+xuGlnhJPJXR6FrSIkUYLP78OumVGEo8GWdlxNpFAqlFuKvESf3TOjGJ0cdvs0CDGN6ShtSYJwbU0WN81GpLejhbg5fXCS+cl7kMRiEqWyJD8Hm8x9f5AYwQ8SI/j0VKobp3QEDkZhGuXBVw+wErpHoLBJanzpxRjuninitsn+z6/0zMUIvvaa9Yd4JW4xP+cOYzMaxGbUwaIEkiQ7UX0sagLy9Xj13AghxjA7LgE7Q9RUyFc/U7neiT1xlArltuKcWtxsJlx2JG4qIsD0ZNfTz+gJvUDrKFYjEaykHm2fXE2kTeUoJcQtlCJ1nURpd5xuox2xKCqBgJx6o+qXK2MZUz3IW9Gtkl7LYqsLeZGVXSeV3WNtF/cefPUA7v6VjFNb0j3F1y7uwg8SI26fBqmys0cUUke6INS2pNtcJd1TvLkSxIPPxq03FI1U82cRT1DdVqOtRNuPomYsLjufXjs3Qogxui1qFraKuG4wn5mXxkCtuGlUnHNM3CyL25GbXRY3td9FfCwGv9+HxGKyqW30xM1INLjjc9tp0d7zprb0EuIBctk8cplCXV/3+31tC9ApOCZuRkKoTI037KQqFcvytuadTKnS/ph2TRRFlLuUQ9lo2oJ0yY/f/Ieb8Xf3/tz5k3KRc+kBfOFnM26fBlEhVCrWO1UvIgiC26dgG/5P3f4Y5KS68E1aj4b79I0FPP0b/en0bhR8+M1vj+HcinVNv7JvN7ehewhheWVHiJrK9Xjt3OxgYmoE8bHBHb+KT3YO3RI1jY4Vdo2B0Viklj/t8oVrlovXqNsDjOUhBepzJTb7rjsRmRGNyJErnZIvQkis1v1q5uAkYvFo23OIDIQwfXCyNk4asVE0FmnIs5pOdiX1UE+we2a07p5PLCYpapKeRJsf1kykPgA5ynJyxP4Ta5ImakdTqkCyWDxIGPRDiDq/yNZJuoLP7k/ifz2ml/6y90mX/Ljjh4cNb0EXUhlgPdP4h/p74N7yM6/P2XWOOxHOHkkDP7gYxoPPxvHUp/qrEImdoiaGBylqeghhJdVS1DQ6UZk+ONkToqYkSljqs5ya6usjZCdQ2Cpi6dJK26gVM6ImAEvCpONjoM+HyvgwEAhASGcNVwbPZfNILCZNb6t2LHIzl5cjnGwUADKpLcTi0bbnkN8qYuF8oqEIRytb5bL5hmhPjreNeO25T4hZ0mtZFLaKDWkrri+tG7uvszkIgP3iZigoR27q+OvEwyjP7A4ieb91eRz7o0V8/lDCgRNzDyUilXk1vQeFTaLLt94aAIC+Eje/MDdkj6gZ8LMSuocQVlJAtr6qYCeRjVMHxmvJzL02udk9M9oQUdRPW3i0ou3ais6qJiF9hFSWkF7Lth1jzIqaVvLvdmMMrOweq6VwqUTGdMfvZuhtq9YWBmr3PlvFzWwOCAflhU6TCJnGa06vZREdChs6B70KwzfeNt3ynLVb2Uk96bWsIfHH7/dhdNcworFwl86MEJlSsYzVRLqt/6eXtiIyEMLlC9cQi0cRHQrXIr6zqa3GZ5HT4qZO2qgdiU+OuLSCEHRwB2okLN8DFgJ5/uP5KeyLFvHZ/Saihj2MImqeSw+4fSpEBwqbpCn9Im5uFHx48Nk4fnDRHie0Mh7vem4too+Qytgmanp1i3d8LFar0Npqi2JlPN7RBNtWNjYhJM2NFx1tAyVkB9CJqNnpONa1MVCTl7oyOQIB6FjcNFrR3ClxU0imAUlCJWLcvxDyhabXq3cOicUkMunG4xVxc1d14cvIOee3irj45nJN/CYykigZeu5oUzUQ0m2isQgWzifajs9KX9cufmgXNaKxCCam4o3jhiJujg/bO+fx+WRxcz0DbOzwdBh+AULUg6nxYlFUhqK21ZH4o2rV8D+48bot7bkFRU3vQ2GTtKTXxU1bt58DctJkA4mTSRfI5hrylfSjqNkuPxzQWe4bRxgeBDbzQL5g6HCKmoTo05eiZhOsiJuGoysNvq+jyM31DATYF2WeWEyiVBQxsScOn9+H6YOTTXOKiqJkSgxV3mM15+lOJBgKYEaVqoHFT0g38ft9CA+EEAwF2qaeUNBGdqtFzVw2j0j1d8q4cfHN5cbIzWLJ/mJpPp+8GB+PySlJimWgXAbKqiraoSCDSLqFTwDCQVRCQVnMdOB7/8LPZnAuPdCzOTev5EI49Y83UtT0OBQ2SVu+9dYA3lwJ9ly19DdXgjj1vRFc2bApB0bA70xCbWKebE7ewqiCoqZHCAXaCpv+anVjVncnpBGlf3QiaprNv+uVMbATcTMSDWJ0ctgb4qbNrCZSKBXKhnOKJhaTkESp9n20EkOJebQLDXxmETdQCoyFqwXELl+41vY9yuLH7KEpAI33rvIM8Pl9mJiK49qSpnhsteiP7eImIM+rxuP2tkk8y7cuj+NKLozTH7mIeFBs/waP8MLqEE7940Hm1OwBuBRCDHFuJYA7/tMknrnYG9GKX39tEJ/4y3H7RE1Uc4Nx9dB98sUdJWoCwLWldf1J9eiQt0RNSQKyWy0PUbbyUdQkpBHtVlezoqaZ/LteGwPNLtJcW1qvCXeKAKnkjWuFkktR/b6IZmuxWhRsdozTaG0/dWAcE1MjTY+/trTecDwLBFlHL3r6XQNbgQmxm8RiEoWqLxiNRer8xFbERrbHVe3ClxwhLj8zmqZYYEVzYhMvrMbwiR+/Hy+s9katii+dn8L9/3ATRc0egSoNMUy6IODU90bwP84NY6PgzVvnyoYfv/ntMXxhzv4BU8jl+VB3m2wOwrW1ul/1m6ipdVabRt3EoqiMeMgxkKS2jq9WtPHad0+Im5gVNfWKihmNKjQ8BkYjqOzbjcqBPfJCisOYFTe1AuTMwUn4DRTGWVvZaCtcekXcXL60Aqlqm4k98ZZihp4Yuntm1PHz7FfiYzFTKSEIcRJla7kibmoXwY2gt/ClpKZQisfpUixBWF5h0R9imSu5EO7/h5vwhZ/NeFYwPJcewCd+/H78x/NTbp8KMQG3ohPTfO21KL711gD+9MQGPntr6+isbrFR8OFrr0XxpRcdjE5Yz8jJroln6DdRMzIQwszBydrrlqKml9IiKKJmC4eXoiYhzdHm72snoBgtKqaH4a3roaC8U6FKZWQIwmbe8Ymt2W3p6q3j4Wp0nZGxxciWcy9sS8+kcyhdKNdVOFafm5b0WhalYhkzByfh8/tq29MpyJlDKxqtvpfGaiLl3gkRgu2t5erxIJcpGE47EQwFGsRNRdBsm3u3LG5vSw8FOzp/QhS+dnEXfpAYwb89lPBM1fR0yY8vnZ/C1y7ucvtUSAcIlUrF7XNwBUHwYBWyDvF/6vbHADwKAL7J7j5o9g2L+PxdWdcETkXQ/Pqrg0gX+sempDWdimReFzXVkSFNRc1opE5scB2KmnXEx2LYPTPaUHmUEKMYETWN5N/Vw3DBrlBQN6eakMo0FG3TIxqLYP9NuwEAly9cq02YKzfsNXSeAOSUIwbFTaDz8d3Id+L0tu71lY3G3HYa9LZEX19ab3qN2uOz6RzyW4y2MoLfL9QWDoAWz2NCXMKwz1g9Vp1jc+nSSk3cVI9thsX7amVzipvELu6eyOLfHkrg7gl3AojSJT++fnEXvnZxlyNRpE19p1IFUqq20HBv+ZnX52z/8B0Ehc0+wE1hU2HfsIg/OJbDZ2/d6kqBoSsbfnzrrQEKmjuQnSBqNnUum4gNbtJOfNhpoqbZbWGEqPGyqAl0V9gEoFsorhlWxhoviJtGtjlHqkVDlFyi7a5RezwxD0VN4lWG4lFMq3b5LJxPNH0eKIWHFNRV0QF53Guoit4Kn09eZI90Nz0H6W/2RYv4t4cS+NWpVFcKDF3JhfC1i7vwrcvjjm6Lp7DZHShs9gFeEDbVfPrGAn71fXl8+saCrSLnlQ0/nrkYwbfeHMC5FXec9LHJYUSHwozGcpFgKGB4UqfQS6Jm08ntThA1oxFUhqKuXKOwuSUXPuowj+7E1Agm9sjVPSVRwtoK01YQcxRyRWTSzfuTVjhfvrTS8ng1doiagAvCJmBJ3Mxl84YqBwPGvqOheBThqL0T+aH4QEMKgvhYDPHxwdoW0Ww6h3RyE5l0zvS46q9WSW+ZP480UCqWsXxppatpBwgxi9HFrlbjgKV7fXQIlUjY/PtI9wgFPDV3MMpn9yfx6ak07p7I2CpyXsmF8IPECL51eRzn0gO2tdsKCpvdgcJmH+A1YVPN4cky7p4p4rZdJRyeLOO2SePboF5YCuHKhh8vXAnVfnYTVhj1Fv0gahouFrITRE0v5A01IaCoMSwaEdIhWlHTTBSZ4fvT50Nl366W44wrwiZgSdw0U/DFjb4cDAVww6Gp2uJWqVhuGmGpXIve+KreXkq6D9OQEKdol6pCu7DaKvIyGosgPj6IYCgASZRq+Tm94hcTZzBbmM9r3D2RxUcnMrgtvoV90QIOx42lwEuX/HgzHcW59ADOpQfwwuoQruS6H2VMYbM7cG8KcZRzKwHd6Mq7Z5pPFF5Y8t62Bu1kh6KFu5SK5Za5xRT6QtT0+WSHxEuiZjJtStTMpnNILCa9LWoCstNnUtikqEmcZige7Y6o6bHFkzpiUVQAQ+KmUjlYGYPaFdtR40axoFKxXDtfn99XEzUlUapF5CrXEB+LoZArYW1lA5cvXKtFYIUHQrjh0BTHH5dgGhLiJO0KgK0mUgiG/A3jlp7Plcvm2xcJIn2HsJICtore8LU74IXVGF5YrQ8uigdF3NZE4Nwo+bsWjUm8A4VN4gpeFC+boZ4YloplLJxPeEYcI83pG1HTawnaszlgY7Ppnw1vrVeIRrzjaJms9kxRkzhNZCDUPVHTS+OMHh2Im7OHphAMBTwvbuarEZdKlKvW11i/nqmNq6O7hrC2slG7RsXOblVt3+lotwIzDQmxk7HJoVr1c0mUmkZuqsetcNUPe/d8opunSrxONgcBQGV82LuLmCZIl/wNYifZ2VDYJKQF2onh8qUVz4hjpDm9JGoWtoo9JWq2EhVMi5qhoHdETUkytQ29X0XNyEAIu2ZGmY/Pg+xoUVPBpLi5XBULFWEA6EzcVCoKG6VULCOxmOw4Mmo1ka57ZuW3ilhbyWBiT7yWZ1rZdq4nxC5dWmFUVhfQRmr2y3OAeIdsKre9qDE5jHyu1PQ5cH1pHZGBEMLVf1MHxg2n4SA7hGwOQrHk7R0ahHQIhU1CmrB7ZrQvhYt+x8uiJgDdvJN6VCZHvCU2OCFqesixEhJJwxGb/Sxqqm1IvIMjoiYgV7X10jhjBBPiZr46xqrFTWUrdzvUgqFZgqEAZg5Odjw26OXKLOS221ELm9pzVcRNVvN2Fr28t/3wHCDeQjuGKfecXt/WS8Ph9/uQ3zK3G4X0B7lMk7QDxRKERNJ78wxCLEJhkxAd4mMxjE4OA+gv4aLf8bqoOXVg3FAxncrkCBD1UMRcvtjfouZKaseLmtpJejad42TIIzSdnOhgStScHAEivZMWpg4L4uaumVGIomRI9EssJpHLFBAMG3eX/X6hlhPPzNZwSfUsiA5FGmweHx+s/ax3PyjnqvTjVgIIsYaVYl6EmCVf3dkzfXASgNy31Tl41YiihKVLK7WCZLF4FLF4t8+YeII98eZjkyJu9tKODULaQGGTEA3afEn9Ilz0O9pcqF4UNY2Irp6rXFgsQbi21vTPfSFqtiiEpKZfRc2xyWHsmhmtvV59L43VRMq9EyIdYVrU9NI40wkWxE0zol+ngpUibk4fnDSUmzu/VaxVRJ/YE4dU3hZfJ6biiMVle2V1xAztuarFzehQGKWi2NE1kEYU4VqBoibpBplqEUZ13y5dKOuO8YoPrB43yM6k5bNOkmRxc3y49/0BQkBhk5A6KGr2Jl7PhWpYdB0d8pZzUV3RhaT/XZoWNb1W4T2b2/Gipvq6AE7Se5X4WGxniZoKJsVNdYEeJyMary2t17a+B0OBllWK1SQWk7Xz2zUzWrfgAMi2XU2kW7ahFTc72UpPjMHxknQTdd9uFxGujHdkZ6Kez7YVN1dSqEgVYHiw8e+E9BAUNgmpot1adG1p3XXhIhgKYGJKLhZA9PH7fbXt3V4UnAyLrrEoKiNDXT67Fjghanppy0ubnKFqDIuaw4OAW/kpS6JhkRaQ+830wclakSCpun2NBUd6D1MLcl5bPLEDE+JmLptviHoCnBE3E4tJBEMBRGORWiGPdkJDLpvH8qWVmnChplQsY/nSiqHnW3oti8JWsS79CbGPwlYRq4m07lZgQpwkvZZFJBqsS3dx8c1lTy3mE/fRi95X/16LkEwD6SwQ6GC+GfCjEg7KKbQC/s5OmBAboFpCCICheNRz+ZJYyMMcXhQ1xyaHjQlisah3qoMD2xXC+1XULJYgJNsXDwEaUwgsXVrRLezhhSg4IegH1jNtj1MKmyiChxnBhHgLU6Km1xZP7MSEuKmd8O2eGUVhq+jI/a9UZQ8PhBCr+hntqhRn0jnk3swjFo/WcnsWckXTIlp+q4h3zyc6PnfS5/h8QGygu4txogRsbHbv87pxjVtFIF9wrn0d1BHh6shNiptEjVlxE2VR/tcBQhZAMi2nm4oPuu4Pk50JhU2y44lUIykUvCBqxsdi2D0zWhOOCltFOiwtKBXLuL607qnvKD4Wq20jbCk4RCPeEzVbVAhXFgGUe7Ntf/GiqNkiElXBX83Dp+Sn6oW8qJXhQQhthE2tKO3FIlvEGKZFTS+NM07QobhptsiPGZQqxbOHphAMBRAfi6FUFNvmsDVa3IiQTnHluZzNQejix1V2jzlfIG0Ech7yXHd3OygLJPGxGMLV5zqf5USLaXHTKsWS/AxOb6IyHu/dAoWkJ6GwSXY02km+V0RNtdDKQh69h2HBIRT0ltjQRtTspBJsZXzYO6KmJMkTEAOiphJlBfSGqAkA0IkkVaNdMEmvZT23IGAL0QgQ7vCe63ZEUYdQ1GyCR8VNJXLT5/dhYk8cpULZdV+DWCTg72zbpoIkNX3WOk4o2N3nsrILpJviXyjYNVGlMhSF0GVhE5B9sMhACOHqv+mDk7h84VrXz4N4Gz1x06ldCjWKJQiJVWB4UBY4CekCFDbJjsWLoubumVFW2+xx9MS/pqKmh6qDA7Bf1PSS6KeItm222fSsqClJco6kJmjtt76ygWtL6904s+5ih4g3EJYFcI9iStSMhL0lauaLzosNJsVNbb46J8RNpSr77KEpAPLEUhIl5mjsUWwb+w3uILCdsih/Zjf8j2JJHk873OLaMV28RsEtgRrA5QvXaj5LNBYxlO6i5wgFURkd6tiWQjrb9Yha24hGUIlrCsBJEoT0pqkUCFpx06lnXQMbmxDyRc/Nd0h/wjuM7Ej0cgS6LSBOHRiviZpKkRm3z4mYQy9Xq+7E1Yui5kqqf0VNtL4+hZ4VNdH6+qYOjDfYry9FTciRM5aJRqy34RDavthyYhIKorJ7VP9vLtG1LZuxqOEokWtL67XxTBE3nSjYl98q1gkOUwfGEWFhn94jFLRv7FcEm24jSYbzTFtCEW67LWoC21GiTlMsAWn3ovyVdBeF6nNA+4zoeZR0RtGIvCjWwT85JUHY7SsxTzSynU5B/S8akZ/tJqOu1fnwlWddV55Bbi3gmCFfrP/nxphFLMOITbLjMF34xGH0qhN7rQgOaY/hXK0+nyyKWRE1c3k5QkC5R9Srtsr2uIAfCPpRiYTbRkgJK6mmFbU9I2pK0vZWa59gyqEzsgWuq6JmWZRtuFWQf24luIaCsi3DQVSUrXXae2djU/f6tHlCJVFqLbbHB7e3VpbLckSAi5EoruFR59twNDjg3OJJyaKzr6SDiEXlNBVOLu7EBuRiBgZQ56vz+X2YqW7ptDtNg3b7uxLBaRduFAKrjMfl79qsLSUJyG61jDT3JIM2L3y4VUU4m4MQ9DtXUMwLYkYuDyGZdm4rrBeuEbK4mVhM1uY2RnP59gShoD3PiYFQ14s8WaZVSp2q4CtcuW7q/utWCpYGqn3F1aCOqr9dmz+Vy+0FzIBf9qcGwqz63gNQ2CQ7CmWi7yVRUyumtJys9jI+n7WcTh52SAynNbBSSKcsyoVhcvnWToymqqGAajGZaASVwYj8YFY5FXaLmhi2oRqiWrgtllpfryLkhgKohIPyqrzK8RBSmabXp9AVUVOS5OsyKxYWS/K/XH676EIoKEcmhoIQ8gXdSujaazJUwKrO2QyhEotCuHJtx61cC9e8F81qqi/aKWqqJwKFkn3RltkchGLJ0UmO2Yi0bhXjSK9lER0KIz4Wa3+wSYKhQPcmqoA83g8PdvZen09+b6HUdozuWySpbcE3R1nPyD6B3fk2PSL4AZAX/hRRwk6U9DZeuEZsp7vou1y+O3Fx1SiKuGnyPtxR4mZZhJDNAZv5zu6l6pxKyOXlhdJIWA4C8PDOnp0MhU2yY9BO9N0WNXdSdWJbIvjaFLZxC8dFTWXLmNWJXy4vP5h9PlnIGghB2Mw3FSo6EjVNbP9swKhwq/M+lEUgX9gW/gJ+WeBURMEWdEXUzOZkG9o1ASqWWkY5mRpb2uWkHIrqCqf9ipDKeG4RxVRfDPitTxqKJQiZnNwXnRS1lUnO9KT9bWdzHY2Z3RI3E4tJrF/PIBqLwBewZ4IXGQgiFo92daJaCdowjQju3AgYIylSunEOtvZBZQu4RwQ/oHqN+3bZKqYI19Y9dY1Ao7jpeAXsbiBJ8ljuodQ/nqJahNRsXnD1AlvXxc1r67Kf4iT5ojynsNufyxfkgIJIWE4jwqrvnoLCJtkReF3UzKZzSCwm+1LURCxqj0Pi86EyHper7HkEM7laK5Mj5kXNXN7+CULVSRRaTPo7FjU7KVJil3Crpiwaas9xUbMsyvbrolAWjUUwc3DS2Niyk6plG6Esek7ENdUXfT45H1enk3enJgKtKJZk0cHO+7AsWsofeH1pva7S8NSBcSxdWrHv/KrkHahKO3VgvG6i+u75BEpKCg8HEDbzqHQasbnDEZJpbxQ0KZZsFY6E9YzrYm0DVT/DrnHGiwtgCvmtIq4trXe3ArbDCOlNVChsNicakedHJtN6aFOwdE3czBcgpDLOpMFQFlacHlvzBQiJAqu+ewzvVK4gxCGabfd2i/hYDLOHpurEsKVLK/0pagL2RmP4hPbHdAnlvjKS1qAyOWJ624KQTMsrsF2OCNBWXDZUxKpTgSyXl/MDubAN0XFRs1iCsLzS1clPfCzWcE82HVsoajbgtVx/pkXNTtNcVKPhhcSqO5P1bM7WSYiwnrE0bmqLcThRSMgp1PeIkivU73fQ1c8X5EILxBy5vLxF2iPYth2+LHrquurI5uy5VyXJ1WJBRtD6o10rEuMUxRLHmXYMd7Y9WvvM6Nq9sp6x36bKnKKbC0Ybm7Kv77Ho7Z1K73hrxFPcMlLGoXgZewflbWp3TJRwPh1ApiQgUxTw8moIb6fcv72aiRdGuGOyhA9NyoPu3qiIoWAFb6fla3o7FcDLKyFkSuaENu1EdfW9tH5yb59PLqygyYdYS7avmbjdMlLGv7vd/a0m312M4LuLzuUdMet8O2FDoANR06Qo1irvpZq9URF3TJZs64dKtA9goohVdRuMWYRk2tAEyAkbOi5qmth6bpcNd8+MYnRyuPa6pQhmQdT84w9mcSjuXASYUf71T0bsbTBf7NgZtrsfAl0UNQ3mwnNqLFUQkmlU7MhZZTBaW4ueDS9ks/ANDeFqYQuhEZ8nfBojNNtOf2ys4IgNhfWM7dsK+9qnsVCt27F+qPQbi1FxVheHnBhL687PhnvValoZp8dSBbfyKDplQyGdRSUyZvfp9pVPU4nH5JRTJtFGbh5//wgmkpcdn+MLybR9aTCyOVPjqq39sBrIUNk9Zn++YmKK3vDSiCfYGxXxuzdt4eN7C9gbbcy7pQwQCpmSgB9dDeMvfxF1bUKwa2bUkHihcN+BPO7dW8DH9+pHrWh//3YqgL/8RRQ/uhpuOwCqRSOgw1yMSrJ9SarbMjkcrDR8/27w8qqDA3queT5INU7aEDCZ1mB0yHZR06l+2LGo2cEkod01OmlDPftdX1q3N1KzzcTHThv6/T7smhmts921pfXmItjokKXtP4fiZU+MNXYjZMyJYU4+D82mguhY1GwzEbDSD0uq/iQZ2Y1gl7CSNi6GGbNhFpgAHn6/zT6N0Uq/HUbQJhaT8Pt9+PWZHO7YncIdt+kXxLL6PKydY1m0tVpsP/s0ZiOKnfZpaueV2bK23bcsdrQ41NW5hRJh3GlePCXfo0m6ZUMt2jyK0wcnsXA+YfsOsb1REffN5nHfgbxzNlRyPttclbpffRqzCCvXcXLfGj45nsJkoADcUP93R+b4dqXBMChqfnxvAb9xIO9MPyyL2znDWTndNYRKpeL2ObiCIHhnS6tV/J+6/TEAjwKAb9J+J2woWMEffzCD+w50Htr9ykoI//6VIVzNda+zq4WadqLmx/cW8McfzOo+kI2QKQn46luD+Mtf6A/OWtEosZhEJq3jHBmNvMkX63JN3jFZwn/6mPuVfL/680F89S1Nvi2LQgoAOcJheaVlIQunbQg0imK5bL55BHAnUXEtHs5O9kNLoqbJfH5CKtM0j6HTNoxU8+UZEaU7zqnZYkuK3TY0VfkcHUYPa+z1Fx9LeWIScPt/2aX7+8rUhPlJqyRBWHzP0KFOPw9Ni5qdFrTSPEPU2NUP/6+1XZBESf9Zp0fAj8q+3R19poJw5Vrbgkd22fCLb8Q6mtCZslmH1aXtsOFf/iLa+DxvhoUocL1nQt/6NGVRvkcN0HUbAnL/63BSbnQXhoJr/TAS7jxqc2PTVFSqGzbUw8x8yAxdt6GFfIbNfE9P+zRmx5oWz/VmuP08tPzcNyBqdrUfNpkbNZ37lCqQUrWI4XvLz7w+19FJEgDMsUna8PG9BTzz6VVLAx4gr/Q88+kkPndrd/LSGH2IDwUrePKuNJ68K93xgKe088cfzOLbn1jDLSPbWxr8fh9uODTVIBpZEjV7jYL1JPLCxmbTyarTNlTQ27683KygRCeTvGoRDT2c7IfdFDWRy+s+2LthQ6XQk2OiJtAyJ6rdNvzvP7CF2UNTdffju+cTzUXN8TirijYju2XoMKefh10TNcuibgVVu/vh/+foZewVTBTxKYvWio6Uxbaipp02/PYn1sz7NKGgOZuFgkBswPDhdtrwc+/fbPo8bCCba/vdE2PpdFyzIcxFPDdgIlrT1X6YL3Q8zhiN7HfThnqonyVKegqruXddsWF2i7kMbcT15yHQcaS38t5WhQJd6Yct5nLEeShskqb88QezePKuNIaC9kX1fu79m/izD23Y2qYWrVDTrHjGLSNlfPuX15qGpHfCLSNl/MXH1nHHZElXCGsqPPSrqAkAkg22bpKo3WkbqjGc1iAa6SznZJMHoZP98H03jJgXNZV71ayo2SSvWDdsqFe93nZRM9W8EqwTNvyDmzN4cPoKBn1iLXK4ZfVjVi5uirDV/t7rxvNw98xo7W9tRU0LQrWwkmqYHHZzLG15biZTAtTRZtu2J3yaTirWGxQglO/bCRsaadO2AjT9ioH8r27bsONiHsWSYWH7c7duOtIPzbQpdFL8x+DCi+s2bML1pfVaQbRwdfdKp7hmQ0nqbmGYPsYL/VBB2OzMpnq+jIKr/dBjxeF2EsyxSXT5sw9tNF3ByeYkLCTKWHyvjGRaRLFUP4BNTQQwNeHHzfuCiEUbHfL7DuRxKF7Gb/2d/Umg9aLP9Cb7yuDUbPBdTJSx+F4JiVURmVz9oDkU9WFqwo8De4I4MNXYhYaCFfynj63ji1dvxNm8ASHMBVFTbcPEauP3MzURwIE9AcxOBXRt2FWyOd0HVzds+NCLcfzoatj4Np5OC+k0EcXa9cN3rsjXp7VhKChgPO5vacP7DuTxwakl/PFS3HlRE/oJ99vZ8MLlEhbeK2EtLTXYcDzux3jch5v2hTA10bh1TrHhn74xhjcG9jkqaqIsNhXfW9kwmRZx4UoJybSka8OpCT+mxgO4eX8QoWBj+pQTQ6vYH8jiX74xBFH0XnqVYqmCxUS5pQ2nJvy4aV8Q43EXcxK1mSgZsWFiVUQyXT+xV2w4Wx1n9GyoPA//9U9GUSqWER4ItRU1EfB3LlTn8g0CYKt+qLZhYrXxed/Ohko//MIrw8aKsOTyQKdbDVvsDmhlw8SqWHtWaG04FPVhLO4zbEM7in50QjsbvnO5hESyrGvDqYlAdSxtbsMn70q3t2E2J+eVdiG/WGJVxIUrRSTTUksb3rTfxcXjNuNMKxta9bsN21ARKM3a0KAg2qofWvHZADn6bPpj68b6YSfimAlRs50NO/G7DduwCWLVz1MCLmLxKKYOjDfPEd8Et20orGes5YK1gFW/2yu0sqEVvxsw2Q8VOumP2VzTxcx2/fDcpWLHfrfRfiisZ+SCiMy32VWYY7MPsDvH5u++L4c//mDjpKpYquClc3m8c9l49MXN+4M4dktYd4D/7mIEX3hlWOddnTE2OYxd1YiXVkLNULCCb//ymm5Y+oXLJbz6dqFhMG/GUNSHY7eEdZ3lTcmPx68ewuvvSU2Lk3QsanaYYzObk/Dq2wXbbKhFNx+VlXxGgJyzUONQ2m3DOw9HdB2tTEnAH78zi+TABIA2ombALyeNNiv6NcnL2KwfZnMSXjyXx2LC+Lakm/cHcefhiO5Dei4zgT/++4ihSpmV6cnOBHidvD+tbHjuYhGvvl1omLw1o5UNlX64UIy2FjXH4x2LRc2KITWzYTIt4qVzBd3JTTMO3xjCsVvCujY0MpZWbthr+LPUdJpj89W3Czh3sWjYhlMTARy7JdzUWdZiW47NNjmpmtkwsSri1beN2zAUFHD4xhAOHwx1bMMaFsZUbQ7KZv2wWKrg3KWibTbMlAT865+MGsrBVTmwp7PFk0RSd6Jjtw2P3RLW/bshG3Zgu1Z5iYHWNlT6oVGmJgK483BYV+A0YsNOctxaybG5mCjjpXN5w8/7UFDAsVvCOHyjsXO0M8emni+j0MqGZv3uA1MB3HU4ouuzGbJhJ7mYDeTXbNYPzdqwld8NGB9Lzd6rnfZDu/1uM2OpHn6/D7OHphAMye9vWQBTQzMb2jl3AtrbsLJ7DIiaE3et5Njs1IbN/G49upVj874DefzZhxq3b9vpdwPm5/im+2OTfNpDwQr+4mPrDVvG7fa7DfVD1fOeOTa7g/+xxx5z+xxc4fHHH3f7FGzD977dJwCcAABh0NrKwB2TJfz5RxoHvMVEGX/zfA7X183lqEim5dWtaNjX4CgfGikjUxLwxpp1MTY+FsOe/XIEaLvos//jl9INA16xVMGPzm7h9QvGJ3HK+xbfKyORFDE7FYDfvz34hYQKPhBO4S/nJeT1xlErkZplEYJKSJkelNrmSLlwuYS//emWrTbU8spqCK+saB5MgQAw1OHqarEkPww0NLPhMy9t4dwl8za8tFxCckPEvl31Ngz7gY+MbeG5zAQKZWD50krz7b6xKDBoPBeagrCeaYh2aNYPFRuupc3lGEqmJfx8oYSRmB8jQ/WO8mw4h/Wc1L4fRsLASMzU5yoIK6kGB0TPhtmchL95PocLV0owk9desWF2S8LURGM/PBLdwPcWI7i80GKivKdD8b0sQlhNNfy6mQ1ffbuAH7+yhazBCYDC9XURP18oYddoAEOayY6hsXS0s2IXQr5Yd3/edyCPvYPNx5BkWsSzL23h0rI5G2ZzEi5cKaFYrmBmV/sJ21d/3kSEHoqaWiEXsrmm0UbNbPjSuTyefz1vyoaiJAtpl5bLmJrwIxrpwIYKnY6p2RwETT7RP//IBm4fq5+sJdMivv98DouJsm02DPuBX9pTxHcXB1CU2kz0OoxyEFKZhtQnt4yU8dRdjcU+rNhw8b0ydo12aMMObKftg1r0bJhYFfG9v99EYtXc8z6bk3B+oQQIssipxpANTfY/QP/62vk0xVIFz7+Rx8tvGZ+IA7INl67LUXP7dulH4KrR9WkGwvLz0AxlEcJ681xwejbs1O9OZ5v7bEZsKPh8wKBJ0SjdPA86oN8PFb/bjJiivK+Z3w2YGEvNPivSm0CpuSiiZ0Mn/G5TY6kOlUoFW9kChkcHIfgERAZCkMQKtnKtt9c2s2Gnfvfie2Vdvxtob0OhUjGVexhoPo6282ms2LCZ362Hrk9jdqzRzA213DJSxld/KVX3Oyf8bsD8HF8I+o1fay7fNG3Nn39koyH9zbmLRfy3n9rrdxvqh2VRtmHA3/w5LgGVfO28vvE//u7nFkydJKmDW9FJHXqrOBcul/Dca7rFFVIA5gC8rvrdAQAnAYwovyiWKnjutS0kkmV87Gj9g+hzt27iR1fDlqqlqwsutBM17zuQb1iZK5Yq+Jvncw3bl6rMQ75G5WkehywiH1EflFgt4ztzm/jlDw/UOSF7wiV87tZN/PnrGkGoy9vPTdrwg5CvcUT5hWJDAF3dyqX34NKzYTIt4r/9dKvZavE8gO+qXuvacDFRxt/kcvjMR6N1k53JQAG/OXwFf/ZSuHVUYyeJ2CVJt3CJXj/8yWtbzVaLUwDOAFhU/U7Xhn/70xzuOTrQYEM7+mFTymJDFFUzG/7N87lmzvEcgOdUr3Vt+M5leVu3vg2X8OfoTJhtRbNiCyZtuAD5GrU2PKk+SB6rNrtvQ4N0YMOTAGbVB527WERiVWywoWO02b6sxaQN70F10VEhU51EfPLD0YbIRqdtKGTqx5r7DuQbckUlVkX87U8N2/AA5OubVR+kRHlqn/d7o6L+81B7nvkCKmYr2wO6woreRLzF834B8liqflODDZX7/DMfjTaIDt3uh3o2bPG8B+Tr0/psJ6Cx4avnC8jmpI5t6CQmfTagiQ3/69ymrg0docVWy4/vLZixYQoW/e62NnSgCNR/OF4/lnZgw/tg0O8GHOqHLfLF22BDU3631X6Yr+4+UnKP75oZhShKLVOgaG1owO+eQ5u5UzO/G2hjQzty9xvASb/bDfRs6JTfDZjshyYKzTYTNfX6YQd+9wlobNjM7zbSD4X1jKVdi8QcFDZJjfsO5Bu2UDR5MKcAPPzE6fTpJk098Mip+CnI2+NnlV++c7mEsWF/3RagoWAFn7t1s+Mt6doqskuXVlqKT9qKbS2cq9MAHn/idHpBr51HTsVnIV/fKeV3mZyEn7yWbxjcf/d9OfzlhYG6gb0yPuy2qLkA+fpON3ufng27Lm7qTAb0bNjEuToNkzZUT1jVNvynYyv434VxXIXNE6BcvmELul4/bLIFZgHGbPhlqB7Seja02g9boSf8aW2orBjrOFdPAniqhQ2PQLbhSeV3ig3vP1G/+q3XDy3TRJjWs2GT7YTzkG14Rq/5R07FRwA8BOBBaGwYq+arUnDShkZo4SA/DuDJJ06nUzpve/iRU/ETkG14Qt3Wc69t4ZMf7kIerSYTJD0bNnGQ5yDbcE6vHT0bKpMdrajiqA11Fhi0/TCZ1hU1UwCeQnMbQs+GyvekFVUc6YdN0LPhc69t6T3v52DMho8qv1N8h67aUAetDROrYjOfrZ0NT0K+viPK7965XEIoKODOw/XRe920oR5NfLYzkG04r/ee6vP+Qch2BLBtw988Meh4PrxWBcq0W3vt9rtj1W2/alrasE0RLrPcdyBftzujmd+dk/xnoj7x4SbP+8ea+d3/7adbuP/EYJ3P1u1+aMSGBcmXCvukVjY05Xdb7YeKuDl7aAqAXKMgEg1CFBufiZ8cSzXY8CevNaYPaGNDU3632z7NuYvFhue9CRu29bu7TbN+qPXZVkuhMxPBYisbHoFBv9uUDc2I1U0WirT9UM/vTouBVLkiPHz6L1dP67Vhxu8GDPTDfKHzomzENN7NbEu6jp7Y8OK5hsHjDIAbWg3qAFD9+1HI4lKNl87lG7ZG6U0+jKAVNROLSeSyzVfFm4kNGucqBeD+J06nH2g2qAPAE6fTC0+cTj8A4N7qewBsT8i1aL9bBLqzptDkfE4DONqpDZtMDO1Hp8pms4mqxrlKAbjXhA3vh8aGr77d6Ng32NAGBB0RXm+i+ur5hvM5/cTptNF+eAPkiXuNF881bsHstB+2ReOA6NswryemHH3idLqpcwUAT5xOzz9xOn0/gAfUv5dz6bQXxS2jI0zrfc5ioqyX5+7JJ06njzYTNQHgidPp1BOn049BtuG8+m96UXWO2dAAP2m04TxkGz7WTEwBgCdOp+eeOJ2+F8DD6t8vJsq6/dB2mkzitTbUm+RAFlLubSaIAXU2PAqVDZUFma7ZUCdqWv05Tc5nHuZsWJfj553LJd38jm37oYnIjVZoP+fVtwt6uYkftmLDn7zWOM50qx/q2fBvf9oQyTIP2WdrZ8MzT5xOH4W8mFTj3MWibj5nJ56HRtDx2QDggSdOp+9vJmoCtef9w5BtmFJ+L0fFdaHKcpPcmlob6vndW5JvHhb87lfPF3RTEnTLhnr9UG3DguRDshx84Kv/37X7O/G7MzlJ1+92qx/q+d1Xi+H5sE/q2IbN/G6rNsxvFevya45ODmNiT7zh3//zffWR79rzKUg+XMhHzdiwwe/W89nc8mkSq43nY9KGN0CeL9fQ87u7ifZe+VvN874g+fBSduSBb/zVSjsbqv3ulPJ7yzY0UJwLQFORUPs5en73pXx0/unr0zc0EzUB83430L4fNtvZReyHwiYBIIdvGxAbzlSdx5SRNquDwwPQPKB/ouOAaEPH2xGNRRpEzZZVZCGvqqhJrIraiWoKsiB2xuh5VCdDdU7WYqLcMBHQXl+zMHq7eemcriD2gFUb6rRrO3rfkdaGOt91CrIN54x+TtXedTZUtsOqMXuPGkIjNuj1Q53+crpqE0NUbXgvVE5Ws8mc7deoI05rbXjhckmbzDsF2YbzRj+m6kjeq/7duYvFBifS7usTNvW/Q63YoOPsPVydZBui2l/vhUZU0XMiHblP26CdqEI+T7M2fBIagVrPht1Az4Y6IusDVefXENWJQp0NM9XqnHqfbzfae1XbD89dKmoXiOYh23DB6GdUv486G+rlz2t7fTZsM9TaMJuT9ETWB6r3nSGq93OdDZsthHWjH2pt+NI53cWFe40+7wGgOi7VjU067boyzujZ8EI++kA7oUGNyoYp5XeJ1TIumCgK0hFNtndrbaj1u9fLwfn/97V9hm3opN/dCdp+mFgV62xYkHx4LTf8QCuhQYtRv1v5fKdp7If1n3m1GJ7/z8k9lm2o53fbcX1K8SCpSYLFOwbXMRnY/hztd63Y8Hv/v8Rpnbfroud3v3O5pCvAuzHWaPtLhza8Hwb87m5wx2Sprh9q/W7Fhs//9eJpo21Wx9371b87d7GIq6nG5/d9swauWydIQA+hyWK0Oieznn/8SnZ4/nvrk/eKz76RMvI5zfzuH57V74d6Fdhr5PIwlcCUdAyFTQIAuFfz4EimRa3YsADNhMUo1Qf0nPI6k5ManMh2hW/URAZCmDk4WXttRNTcGxUbCpXoTEYeNjMRV6i+p2Eyp2YoWKl/OGdzxlenOiSx2mDDeTOCmJrq++a32y6bLkpgGs2qnJ4NdYSdByzYsC7aqK0N7UAz2dH2wwuXS1qxYa5TG0K+RxeUF4nVckMEgJl+aAgDNtTphy0jb5pRnezUTcgdt6HOdhitDd9ptOEZM2KKgsrJSqnb1ou87SbFUqWZYJQy21bVUa71wyaCouNobahTGOG0GTFFofqd1EWq6FUdd8SGqueNth/q2DAFuR+mYJLq93K6rm2NeOvIWKpBa0MdgbVlGo9mVL+TBgG+KzZUMRSs1Nkwm5OaLdSmzLZdHZ/OKK8zjW13xYZatGPBhhh43IyYolB9vtRNyB0dZ1pUQlfbUOt3FyRfajRQMjwRV2PE7+6GDT+kKeKh/Z4LFd/jZsQUBSN+N9D9fqj1u9NiIPWfk3us2HB+u+1Gv7udDSvjcVSmJuRK977mU/70WhbvvHEF519bbPg3lblad6z2e75YiFqxYUufDei+T6P1u6+XQh3bEDp+98JK9wUuveehmtdyw53acA4aGz73hs5i7ZSN44yOQDgUrNTl7V9MlOtseLkQSf1DZtS0DfX87veuFfH2tcbPv2OyzXZznbRVxH4obBIAaKgg9mZjFElHE1X1+9UvFt6r/zyt2NGMyEColuwaMCZqAo3Xl81JWtFvrpNJjkJ19XFOeZ1Miw2ikfYahWTzCpl2cO5So3Brscm691+44mDOEElqmAxobZhMi3qC0ZlOP7I6mZtTXidWyw2ikdH71BA6ERzaa9T2E3S4uADoT8i1/fyWkXLrVUeTCIXWNtQ6H5AFo7lOP69qwwXl9TuXSw2Cg3aiZTeH4vX3yIUrDZ/XcT+s2rDu/VrRyG4btmMxUdYTjOYtNPkkVDZc0InCcZoGGzYKRlZsuAA53yEAWfjTika221CS6sabQ5pxTKefNM1ra5CHoZoI6EXDdbsfau6jBWi2XJtBuxBWLFUaosWc7ofaSZRO5O/DFn02zfO++zZUo9NPFr7+zeRjnbZXfc6cVl5ncpJuxJ8tNIlA1tpQ+zy+XIxYtWFLvxtw3oZ3TGxfk9bvTpUDVm14BioBvpnf3c1+qPWLr5dCD3coiClonveNAlFTG44OAcODQCQExKKoTE92lNtfbUPtd5wqBxZ+8K3lx0w3WqU675pTXjfzu7vp02j7yQuZkcc7taGe3315qfuLtWobav3uhcLAwkuZ+JOdtq31uzfXC0hqdmbbasNi4zjd7nn46uawVRvW9UM9G7YdSw1GpBJrUNgkANCw/VWzKrhgRWwAapO5M8prnclwg+ihRStqrr6XNiRqAsDewfrr05ksP6X9RQfURfwtvlf/GXdMaK4vX5AjNx1CY8N5G2w4B9XqsaOCg86DS2tD7fcLe2xY14b2GhtsaAUdYVO7/VUz0TpjUWxQbFhrQy/qVit6WEJzjVobJpINn/W49hcdUN8PNTbUCh52o42i0ky0Tttgw9Oo20bpsA3boDNZPm2lvaoTWSf8OR4drkEbRaUjvqcsfsSTUG+jbBzL7LVhsVF0U6P5/BQsiH5AzYanldeZxn7Q1X6YWBX1hNuUxY84rX6hJxo52Q+1NtT0kZSVhVqg5rPV2kimxQbBwWkbqtGO46lywHafTed55CitbFiQfKlOolHVGPG7u9kPtf5USgza7rM5PpZq0NpQfY1pMWCHDeeg8rvfWW4UR5rZsBKpLxiFgF8WN4cHdY9vhvoatd/vQmHAdhv+bNE9n0brd18uRFIXv3fhSSttav3uV97tnkirUPc81Ixz85tDT1kU3wHNWPqzhe7asJXffSEftcOGp9HGht18HpLmUNgkutGMmoncN2z6qO+qXyTT9Q/ooWDz1QytqJley2I1kTL8wVpBSjuwW4n0U7UxhxaCg971CckNR1ZxkumGiZxdNqy1UyxVulNEqMot8ZYTOcviO9B4H6xttLehXWgdZG3/gKb/WOCM8kMmJzVMdGy9Rk0uHK0NNdc4b1X0q3JG/SKzZXycsYobNtTrg05eo5a1dEOqhAUbmj2jftFNwaGNYATYMJZWRbW57c/QWchxsGBC41jasHshZcPH1N3r2u9Ru8hhJw02bLx/zlj9jOp9Pqe8Xmvs6121oWYcOGPTx7T02Zy0oZak5ll8Ph87Y7XNqg3na5+hY0MnUduwWKrU+d1lCGds+hjXbKjth1p/6szarjNWP8PIYm23+qHW706Wg2ds+pjaMyfskxq2Mpu1obI9vdXWdIU24jvmNsbOmPpwHbR+d7efh2q0/SMtBs7Y1HTNhsP+csNWZidp5ZeulEJYKAycseFj6trQ227fvX5Y/9nJcuiMTR8zp/wwGSzi5av1RYC7+TwkzaGwSRrI5BpWIuZsanpe/UK7+n94l1wUSO+fVtRUV/HrBM0u5zlLjdUz3+wPutuYJcmRvBs6KZ3mbWq6rh2H04TWMazZxqAR5BZs/Kg55QdtX7B1K7oG7fXpCFbzNn3Uc/Wf4+B2ew3aa9TmgLXjM6qizML2Z7ROCWEnDTbcaLDhnE0f9Xrd57RJe+EkmkWw55odZwatONrNAkIN40y5/rXFbfZqXm/1RyedZO01amh5XkbRLjRpv0cnJzna69PePzaJ74Dqfs/o3KPdsqHOs8IWG0IzXmnHs25WK9Y8pxae/+vFBZuanld+0BNUnKTehvX3T17y2TKWQvNc1d4r3eyHan8qVQ4siM++sWDTR9XaeXdNaPhjt/qh1h8WK4IjNnx3rX7q3pENIyFU9u0CtFGdGlr53VuSz04bzik/aK8P6J5opH1WbEoBu2w4p35xNWVTqwZo5XdvSn5bbFj1u+eV13qLRF17HmqeUxe2onbZsK6dbKb+edHN5yFpDoVN0jW0E0JtJFV8LIb9N+3W/WenqOkw88oPRp1kgXk3OkLjoNv14PIMDgoqKZvaaU2TKrAtWLTx0xdsbMs2bIqEA1xcYOgic8oPOott/cCC+kU3o9/V6EQ4LbhwGo6iuX/mXDoNx3BqIdPG8cpuFmxsy87njm2MB0oLdrSj9Ru0foVbjATKCzY2V/P/IpJ3HoY3RXILTrSbKTSKtx3h86EyNS7n4jSI+jmVlQIL9pxIPZmiTdfXyWdr5qUvZeILjnyOXTa0SKkiLNjYXEr5wU0bakmWgws2NVXXjldsSOqhsEm6xiOn4iNW3t8DoiYAzCo/hIIc9JxE8/0ecOs8uoXV/tN1zAubhKiZdfsEHGZW/SLs0vNiKNrwubMunEY3mXX7BAjpFj3nN3RG3/t/TlIZGWobuamg9rvHA94RkZ1iJtTdiuyEEGtQ2CRGmLWpnSPqF+PD/ro/pteyuHzhmu6/hfMJJ0XNESfaGo/7WxzWdUY81o5lNN/vrI1N29lWx2j7BzT9xwKzNrVjmaFo3SPoHhubPqL80EERUNsIBepFo0dOxY/Y1PQJ9Qsdccot7Jxgzio/TE14Zyy1USiIq1/Eou64YzqfG9c7zixeElQ098+sjU17QlDR6f8n7GhXO15px7NuohnHj9jYdO25U/F7Z5yBQ353XnDxgVjPrBNtpWFMoOsGyXJw1qamRtQvhsIORN0OhAwdpva7C5Iwa+MZ2NlWx2j97g8OZmZtatqudiyj9rsnA8VZG5s+ovxQkNyTl7TPqTuH0rM2NX1C/WJDDDQ5jLgJhU3SgM4k0i7B4T71i5jGGS8Vy8hl87r/8ltFm05BZjxed+sfeeRUfNZqm9WJ3AnltZtig85n22XDunY032NX0VzjCTsm0tX7YFZ57eb1afsHbJqsQmNDN0UjjahyxI42q5PxEeW1mwsMOp99wqamP6j8EAoKroliADA1UefcnbCjzUdOxU+qX7spqOgsMJy0qekTyg9DLtpP5/NP2NTsSfULne+xa+gsMJy0qekTyg+aftBVYlGfdgfDB5sda5IT6hceGktHbFwkqrWzd9S9ccZBv/uE+sXeUZta7QCNPzXrhN/toevDeKBkVz+suxf2jhh8V8SYWGkGtd89EijPOuF3z0661w+1fvdNkZwjNvSK3z3gk2b9n7p9xGqbWr97dpeLPpvmOXUgtGWXDWvtFCQfbtntjbQepB4Km0QXzcBw0qboi5PKD6Gg4KqTPDXeMAk5ZUOzJ9t8RteIRX3ayeopq21W74FaO0ONk6muovP9nrSh2VNtPqNrjMf92u/396y2WbXhSfVnuMmBPXXf78gjp+KnbGi27nvSfEZX0XFe7bDhLFQ2dDuaUWeyesKGZusWwWan+s6GR6ASVNy2oebzj9gkGtV9T25eo879c5/ecWao3uezyms3F8GAhu/3pB2iETQ2jA271w91xnE7+uEpqCbjwUH7hSAzOOR3176nguTre787NuReRGooKDT43TbZ8JTyw4YYcFeA74Lf7aYNdfzuk1bb1PrdK6UQDk24l6pJPZaGfRIemlo8aUOz9c8KF22o9TVGA6WTVtvU+t1LxYirNiTNobBJdLlpX92gNALgISvtPXIq/hDUK3IuTlQB4MBUQPvwetCKA1J976Paz3CTm/bX2/CRU/HHLDb5EFSTAE37XUfn+33UBhs+qLwOBQXXbajpJ7M2CH8PQW3Dfe7aUGcceFTvOKNUnY9TyuuhqLsTOQC4ub6fHLEhWqzuO5rd464Nde4hqzY8ApUNx+N+VyNSQ0GhISrVBvH2y+oXB1y2oc7nW7XhCWiiGd1cBIs1jgOnbBBv674j18dS+214Eirxfc/uEIZC7kWojMf9eqLRrMVm676jw7PuPisc8LtPQeV3H5gKuGrDbvjdhw+4bMP9ttvwMah8Nrf7odN+d0Hyud4Pdfzuhyw2+RA8ZEOn/e4NMYDjNzj4vDeQNkHtd0d80uyp3504ZfFTG+b3btqQNIfCJtHl5v1BrQPyaKeTueoEom5QOHaL+3lwDt9YNziOAHjaQnNfhsqB1Pn+us7NjROtBzudzOnZUKf9rhIKClrRaBYawcAkT0PlfGjuD1fQ6SdftmDDE1DZUOf76zqxqE/rKM8+cipumw3dFt8B4KZ9DffR051OBKpiwynl9VDU5/o1jsf9esLfQ520Vf1e6sbhwwc92Q+t2PAUNNvQ3V5AOTAV0IpGJztdRNGzoSee9433kRUbPgSNcOv2AspN+4N6wt/JTtrSs+Hx93lgLG0UjTr22arPmVnl9dhYEHtHXPbZ7Pe7656lN90Q6fjc7MJJv3twNIwbxtwVG3T84kct+t0Pqn93/H3uPiuc9rsDIwM4NO5uJJzO88qKDU9A5XcXJB+O3+SuDWNRX4MN7fS7B0fDrttQ63ePB0pftsvv3hADrvdD0hwKm0SXUFDQE3a+Y3Zwr67kNAhGbkbg1M7jYKhhy8Ejp+Kmnazqe04pr0NBwRMTuVjUh2OH6s5jBMCPO7DhEQA/Vv/u2KGwJ2x47Jaw1oanLNjwpPI6FBQ8IajEoj7diYDZSJWqDb+j/p3Od+cKdx1umGw91ImoUrXhCeX1UNTnCRtOTfi1wtUI5H44YqadqoPsOcEIaCrAnzLTRvX7+A5UUWLjcb/rwi0g21Aj3s6iMxuegsaGHzs6YPHs7EHnPJ7u0IY/Rl3hp4DrW+0BWRTTiI9HIPs0I2baqX4ndZNAD/fDp80KYyobjii/GxsLesKGhw+GGvLBdvi8PwVNJN1tN7vfD5v4jrb43YH4AG7ZbfEEbcApv7sg+TzRD3X8bsCa3z2i/E4cHvSEDZ3yuwuSD3e93/3nvZN+d2BkALfvkSyeoXV0+ootfveGGLBmQ8nAd1NqL5ra6HcfgcZnE4cGccfesplmSBdxX5kgnuXYLeGGhO2QB4aHjLy/usrxGlQT1aGoN5wPQHYi72mczJ165FT8x0YeYI+cio88cir+HWjyw9x1OOIJ0Q+QncgmNjxl5P3V4+qcq/G43zM2jEV9esLYqUdOxQ1NWB85FZ995FT8x9DY8J6jA54Q/QC5Hw41Ftl5zWg0TrW/1tlwaiLgiYhUoOlE4OlHTsUNRVRVbfgaNDb8mIdsqHM/HYFswxNG3l/djlZnwwNTAU+IfoDsROrcT08/cipuaJVcNYk7ofwuFBTwsaPuRxgp3HM0YocN6xzkm/d7QzACZBvqRHA/bTSFSfV7qHvey89Y79hQ5346AYOiQ/V5/2VoI4pvDHnGhjftDzabzD1m5P1NbXjMfdEPUMYEXZ/tNRM+29PQ2PCmGyKeEIwA5X7SteFDRt6v53dX/H780zu88axwyu/ePxv1jA1bzJ1OGXm/nt+d9wXxzz7sjXHGKb979/6YJ0Q/wBm/O+8L4p9+yBv9MBb14c5GG1r2u63aUFhJtRY3szn5nwGa+N3vmvDZHoI8lo4ov7teGcDv3OmNeQXRh7G0pCWf+WgUf/N8Dsl0bYVkBHI0zoMAHgcw98Tp9ILyx0e2kyT/HjTVGENBAb/8Ye+IDYAsDhw7FMar5wvqX5+APPidBvCNJ06n59R/rE6Cfg/ygD6i/tvN+4OeERsA+Tv/5IcH8F/nNlEs1bbojEB+gP0egG8AOPPE6XRK+aPKhg9CU6laac8UZWdXtm7aH0QiWcY7l0vqX5+EHM1xGrIN59V/rD7YFBvWcefhiOtbQ9Uo/eZvns9pbfidR07F56Bvw1nI9/GjUEVPAbIwbdqGDnPsljCyOUlrw1OQozlOQ9+GJyEXATmlbe+eowOeERsA2YbKWKqy4Szkyc4cgKcgj6Up5Y+PbCcrfxA6NtSZHLrKnYcjKJYqWhs+BHnC8xTke3Re/cdWNrzrcMT17b1qYlEf7jk6gL/9aZ1TPQvZhmcg90NTNtSZWLjKnYcjSKYl9fMekLfh/R7ke/SMzvP+BOSx9KS2vXuODnhmkQ/Y7jfPvbal/vURyBPW0wC++8Tp9Bn1H6vP+5OQbTii/tvN+4Oes+E9RwfwN7lcJzZ8EDo+22c+GsX4oMMnbYKpiaY2fLeNDZv6bB+73RuLfAqfrD7v7fK7P/PRiKds6ITf/bGj3hlnALTyux/Edj9MKX9sZ8Nfu9tbNrTb794zPYBfP+7QyXaA3X73SimE3/74APYOeUO4BeRFlLUN0Ta/uzw6jN/5kMXry+UhLL4HRHSCZ8ploGx8i3sTv3sEHfrdK6UQ/vnHQ56yIWnEO7N34knUA4PGUZ5FddX7kVNxAJiD5mGs146XJqoKx24JIxQQ8NK5vPZPpyBPygFgofq72WbtHL4x5LlJDiBPyD/z0Sh+8lpea8MT1X9PG7HheNyPjx3tIBrVxIOoU5TovHMXi+pfj0AWVh4yasM7D0c8E8moZjzu13tAAx3Y8DMfjXpqcUFBicTROFkjqLfhfPV3s83auefogKcWFxQM2BCPnIqnIF/jiXbt9JgNH4UsrgDy9c1CMzlVCAUF3HU44kkbHpgK4JMfjuK517a0NjxZ/afYcAGaRSE1UxMBfNJji3zA9nP6b3+6hcRq3YLULOTt1182asN7jg54aoFIQbmvXjyX19rwFLaf9ym0saEspnhrcQFo67OpbTgH+fpGWrXjRZ9NsaFG3AQafbYU+s+GWr/7CHrQhnb53QdmwvjY0S7tIDKyTbZKC7/7CGQbGvLZ8r4g7v9oCONxbz0rAPv87tGpQfz6h7x3j9rld+d9Qfz2xwdcz/+qh11+d3T3EP7FnTaeWL7Q/hgD2OV3e9mGpB5vLXERT6I4R20EnxPN/nBgKoDf/mTMk86VwuEbQ/jMRwe1Ww/UzKLJoC5HMUY9KWoqKIN7m2IxJ5r94eb9Qc86yAp3Ho7gkx9uKfjMookNh6I+fOajg54UNRXG43789idj7cSCE83+IN/j3hTEFD52dKBdGoAjaGHD+08MelIQUxiP+/GbJwa1Ww3VjKCFDY8dCuP+E4Oet+Gdhxu2bas5giYTcWWc8rIND0wFjNjwSLM/HjsU9nQ/VJ73Oukh1BxBExtOTcjfjyVRs5Mof4Pb0wBZGGvzPBtBExuGggLuPBzxpCCmEAoKuP/EYDsbnkAbG3byvBcyxu1Qw0DONC037Q/i/hNtfbYjen8IBQUcvS3qeRsa9LtH9P4wNhbEZ+4Z6txnyzUIjs2RpI6ECKt+963vj+GTxzsXNQUz5yxJQLHU/jgVVv3uwdEw/vnHBzq3Yb7Y/hiFLRPHqrDid1f8ftx4aBj/t0622OcLpoRmAB1do1W/OxAfwD+3IoiZHBtN3dNVrPjdig3/hYe3Z1v1u8XhQfzmiUGKmj2C95bTiSdRnPnDB0N49e2CdnVHlwNTARw+GPbUltBWTE34cf+JQbxzuYQ3LxWRybV+aCoViXWSoXsSJT/VTftCOHepgMVE+8ljr9nwwFQAvz0Rw7lLRVy4XDJkw9sOhjxRxd4IioieWBUN2/Dm/UEcu8UbxZ6MoOSJO3epiHMXi9pV1gaUvL1eFsPUKJEciVURr75d0EbGNRAKCpidCvSUDQ/fKPcp5VnRzobjcT8OHwzZYkMhnUUlMmbs4I3Njj5DseGFyyW8c6XUlzY8dksYN++TbbiQKLe14dREADfvsykVS1mEcG0NlXgMiLRZbJIkeftacsPUR4zH5ef9hcslnLtU1EZVNaBUA7ZcdK1Yks/ZZ+I+6FB06MSGx26x+LzP5iAE/ahEI0Cozb1QFiGYyJmmZTzux2c/GcOFyyW8+nah7fNeKYrZSz6bW363sJJCZXJE7n+t7tViSc6L1yGu+t3rGfnahtvs8bZwjW763UIyjcp4vPUYKkkQNjYtRch14nfvnwnj+PsCbYeIVgiJpHyPtmvE4jV24nfv2R2yJ3dvNgeEg0BsoP0zI5sD0p35NGq/26gNd+8dwPGbAhgKeV/wM+t3FySfnMe+ZkNuP+8VKGwSU8SivlpETmJVRHJDRDYnIZOrYCgqIBb1YXzYj6kJf084jlpqju+NISTTIhKrIorlChKr8qRnasKPUEDA1ITf09GLrZAr/EZRLFX61obHbgnj2C3hBhuGgvJkqJ9tOB73IRQU+sqGi+/JTki/2fAzE1FkcxISqyIyW3Juw2IJNRtOjdtYUbosAoEO2uogmgrYnpQrz4pEUhZWkmmpZsOhAR+mJvz2in25PIQr14BoBPDrt1uJhCFsbnUsbCrcVM2p3DUbdhnlef+xo+iuDQHZjmaixjqklQ0Vu9lqQ0mSJ+TxQSDQxgWXJDkC0oLo0MqGyvPedhuuZyCsZ+xpywCKDdXPe0dtWDAXuWcVV/xuSYJwbc2ettrgpt8tJNNAMm1rm3q44ncXSxASq/a01YZWfjfgkA2LJQjLK/a0ZQC3/O5u3aOd+d3eFzXV6PndWhv2ss9GKGySDgkFBRyYCngyh5ZdjMdVg/ct7p6LE9CGvQ9t2PvEoj7ctN/5KD7h2hoqu8fMiZsbmx1HU6mRJwRddBTLYkvRUoC9oku3bOgmXbdhl+mqDS1GuXVKv9uw7lnhJLm8HHlrMNzMLpGXz/vehzbsfWjD3mcn+Gw7lf7tlYQQ0k0yOWBkyPjxJvM1EWKJYkmOZCS9j9kclBxrCLEVYXlFv3KvFpOVfAkhhBDSGRQ2CSHOs7HZPo+RCiGddfBkHKIsbm8xbJcLp1jq6lY9WzCZqL3nro+QXqEsypG0sWj7YyWpN8dTQryOTZV7CSGEEGIdCpuEEMcRkmlgqyAnwW7HZr53I4zyhY6qEvYESsRfIAAMtEhGL8rFPHouSsVsQY9evUdJXyCspORCAQYWUUxXjyWEEEIIIaSHoLBJCOkOubz8j/QuZVH+14firZDckCtsGkGSGJFK3IfiOiGEEEIIIRQ2CSGEEGRzcrRtu0rFAPOmEUIIIYQQQohHoLBJiNuUOhBIuLWQEPtRIlIJIYQQQgghhPQErHVPiNtkc+a2FHIbLCGEEEIIIYQQQggjNvuOCgDB+Y85n/Tju2+HcX7Vj6sZH5YzPkwPSdg7JOHQhIg79pbw8dnezf+VKQr40btB/N1CCJmCgJevyl3ljr1lDIUruGNvCZ+YLWHvkD2Rk8LyChAJGzvYpmIQ/W5D5fpevhrA+VV/3d+mhyTcsbeMj99Q7ItrPL/qR6Yo4Pyqv69sqO2H55N+ZAqCY/3QDfrdhjulH/7o3VDtOZEpChgKVQCgL2zYrB8emhCxd0jq2344FK7g0LjYFzbcaf2wH22o9MOXrwaxnPH1bT/sZxuyH/a+DdkPe9+GXuqHFbHi+GfsJChs9gfztZ/KFSDonLL53bdD+MorA1jONAb7LlfFsZevBvDNN8IYClfwLz9QwB9+aMux87GbqxkfvvLKAM68rV/1WZm4/ujdIL74vCx0/ruP5nBo3Ibtq10qyNLvNnz5agBfeWWgZis9ljM+LL8dwpm3Q5gekvDvPprrqYd0v9vQ1X7YJfrdhjuhH/5oIYivvDLQ4BirUWw4PSThd2/P419+oHcKb7Xrh+dX/Ti/6u/pfvijhSC++HxUtx8qi5rsh96m322YKQr44vNR9sMetuH5pB9ffD5qqh/+4Ye2cN8txS6epTX63Ybsh71vQ0/2w/K2sCk++8accx+0M6Cw2R/MKz9UChKEYPNJVqdkigL+6JmY3mCwUP33HIAPApgFcASQB8GvvBLBjxaC+A/3bnp+cP/u2yH8Ly9EkSk0CMNzkK8xBfnajgAYAeRJwz/79jD+8EN5zw/uO8GGX3llAF95JaL99TxkG6ZVv7sHwAlAfoj90TMxfPyGEv6nezdrkVZeZCfYkP2w9224E/rhn/x4ED96N6j900L1n8IIqjZczvjwxeej+O7b4Z6wIfsh+2Ef9MOet+GPFoL4kx8P9nU/7HcbdtoP/+THg/i7hRD7oQdgP+x9G3q1H1ZKtTbnbW98B0Jhsw8Qn31jwf+p2xcAzFaKFdt3op9P+vHvfzyojkpJAXgKwGnx2TcWtMf7P3X7CIBTAB4FMHJ+1Y8HvjeEp38j49mBT2fAmwPwlPjsG2f0jvd/6vYTAB4EcFJ+fwRXMz78h3s3HT3PTtkJNvz3Px7UrqSeBvC43vUBtWt8CLIdR370bhAPZORr9KITmSkKeOB7Q31tw+++HcKf/HhQ/as59FE/3Ak23IH9EGhxjf5P3T4L2YYPokdsyH5YD/thT/TDFORrfKqNDR8EMNsLNmzSD78hPvvGab3jq/3w9yBfZ6/2w9PoIxuyH9bTizZkP6ynF23o2X5YrqgjNufsa3jnwuJB/cM3AABiBZW8fXk9MkVBK4jNATgqPvvGY80GBPHZN1Lis288CeAGyIMHMoXqwJm0P5rUKvKW0JqomQLwsPjsG/c2m8QBcri4+Owb9wO4t/oenHk7hH9f//DzBDvBhl98oW57SArAveKzbzzQ7PqA2jU+BuAoqitl51f9+KNnYk6eakfoOB7z6DMb6jiPfdcP+92GdvbDB7435OSpdkQTG97Q6hrFZ99YqF5fT9iQ/bAR9kNv0cKGDxuw4VH0gA1b9MPTzd5T7YcPoLf7Yd/YkP2wkV6zIfthI71mQy/3w8pWnV7zDVsb36FQ2OwfnkR1AK3kJLmIkA38Sb0gdro6oC8YeW91YHgAwOOAPPB5bWA/n/SrH1opyAPek0bfX82HcRTV7Ydn3g7hRwsNofyu4oQNM8UuVKgyiJLvpUoKsg3njL6/+l3ci+rDS8lJ5iV0bHi0Axs+DMg2fPCZmKdsqNMPj3bYD+cBuR9+82cGi3F1iX63od398Pyq3/P9EPI1Lhh5r8qGp4GeeR520g9vQP/3wwcA9kO36Hcbsh+2phdsyH7Yml6wIftha3rBhp7uh6W6QLQ58dk35u1peGdDYbNPEJ99IwV5K5UctZmxHg7+8tWAOt/GfHUA6+TcHkN1Mue1h/MXn4+qXz7QycBSHfjuR1VY/hMPCX9O2fCbbzTkKXENjThwb4c2TEG1uqpsHfECNtrwSVRtuJzxecqGNvbDB1Cz4UA/9sMn4VEb7rR+CDlyI2W2HbW42afPwxT6vx+exs7ohwuA9/thJ+142Yaafvhwv/dD9KEN2Q+N4WUbsh8aw8s29Gw/rABSvU7zuLUGiYI3RkhiC1XxaR6QiwhZFTc1E677LTUmD5gLAPDNn4U9MbAr1d2qnBZbbLVrR3WwrEU1emVg73cbfvftkLp63+NWVrxUDggA4Js/ow27AfuhaTxnwx3YDx/oRNRU4Tkbsh+axnM2dKAf1ia67IfdQdMPz7Ta8tqOHumHfWfDHy0E1f3wSTufh15ZCOt3G7IfmsZzNvRsP6wAUqoMiLWttU+aiSIlraGw2X/UVoYq+c7FzfNJv3aSs2DlpKqDQm1g16m81nW++3bdlgDLqyXVaKoFue1Qy2O7wdWMr+9t+HcLdd/zk1bbq07mFwB44vp2gg3ZD83hRRs61A/nAWgTvruCjg3nrbTnRRuyH5rDizZkPzSHF22o6YcdRVCp6YF+OG+lPS/a8Iz9Y+kcqv3w7zyQ6mon2JD90BxetKEn+6FYkUXN7YJB8+Kzb1i+v8g2FDb7jOrgVNvKV8lLkNbLQMlc0k3VgAcoW9ytc2a7ffcHPdXAdMbqJEfFGUAOx3d7y4hm4O1LG6oenmcsrjaqeQqQbeh2IuydYEP2w444o/zgBRs61A+/AchOMvuh87AfdsSZ7fbdn6xqIoxSNjW7Y/qhF2zodD/0mA2/YUeb6mg6L9iQ/bAjzmy3774NHeqH3wDYD7uF1/phZauqx6hETch6DbERCpt9iErcXAAAlOUVgkqqLCeqNaBxqiZaKbsS2lYHljkArg/q55N+ZAq1UPnnbGz6u+rPcJOdYEMVdtpwXvnh7VV3r/Ht1e0Fhn604dWMT90PX7exac/0w363IfthZ3jJhuyHnaG2odvCrYM+zbzyQ7/3Q7evrxv90O1r1Nhwzsam5+T2+9aGc8oPbl8j+2HHzCk/uH2N7IcdM6f8YOgaxYosaK6VUcmKav3lDOScnykbz40ACLQ/hPQi4rNvzPs/dftRAI8CeAgAKqUKUBLl7ekBAUK1z/98E3ggNVT3ftUkZN7mU5sHcOL8qh8PfK/+M6/m/Khslm3+OJn/5ScRDAW3w9I1+T/mbfyoWltffD6Kb74h1f2xknLm+mhD+65RfPaNOf+nbgcg51HRbGdwy4ZzNn/cPLxnwzkbP2pe+cFD/XDO5o+bh/dsOG/X57Af9n4/VNuwj/vhc/CeDeft+pwd0g+fA3BiOePzkg3n7Poc2rAvbDhPG/a8DdkPe9+GhvthpVzRCyRLQc5//aRd50TqobDZxyjJ3/2fuv0pyALnqdofy5Vaf9soAS/nunYrpJUfNNvdq5jbMm+U8yvdWT0Sn30jpQx6yxmfOnFxFWeujzZ0BtrQXtgPbaWvbaiGNrQX2tAZaEP7oA2dgTa0F9rQGWhD+6ANncGkDRcgb2N/klGazkJhcwdQzQ/ygP9Ttz8M4ASAIwDuMfj2eZtPZwH2rxBZJWVze3M2t2eVeZvbW4D3rjFlc3tzNrdnlXmb21uA964xZXN7cza3Z5V5m9tbgPeuMWVze3M2t2eVeZvbW4D3rjFlc3tzNrdnlXmb21uA964xZXN7cza3Z5V5m9tbgPeuMWVze3M2t2eVeZvbW4D3rjFlc3tzNrdnlXmb21uA964xZXN7cza3Z5V5m9tbgPeuMWVze3MmPvd1AHOset49hErFGfWcEEIIIYQQQgghhBBCnILFgwghhBBCCCGEEEIIIT0HhU1CCCGEEEIIIYQQQkjPQWGTEEIIIYQQQgghhBDSc1DYJIQQQgghhBBCCCGE9BwUNgkhhBBCCCGEEEIIIT0HhU1CCCGEEEIIIYQQQkjPQWGTEEIIIYQQQgghhBDSc1DYJIQQQgghhBBCCCGE9BwUNgkhhBBCCCGEEEIIIT0HhU1CCCGEEEIIIYQQQkjPQWGTEEIIIYQQQgghhBDSc1DYJIQQQgghhBBCCCGE9BwUNgkhhBBCCCGEEEIIIT0HhU1CCCGEEEIIIYQQQkjPQWGTEEIIIYQQQgghhBDSc1DYJIQQQgghhBBCCCGE9BwUNgkhhBBCCCGEEEIIIT0HhU1CCCGEEEIIIYQQQkjPQWGTEEIIIYQQQgghhBDSc1DYJIQQQgghhBBCCCGE9BwUNgkhhBBCCCGEEEIIIT0HhU1CCCGEEEIIIYQQQkjPQWGTEEIIIYQQQgghhBDSc1DYJIQQQgghhBBCCCGE9BwUNgkhhBBCCCGEEEIIIT0HhU1CCCGEEEIIIYQQQkjPQWGTEEIIIYQQQgghhBDSc1DYJIQQQgghhBBCCCGE9BwUNgkhhBBCCCGEEEIIIT0HhU1CCCGEEEIIIYQQQkjPQWGTEEIIIYQQQgghhBDSc1DYJIQQQgghhBBCCCGE9BwUNgkhhBBCCCGEEEIIIT0HhU1CCCGEEEIIIYQQQkjPQWGTEEIIIYQQQgghhBDSc1DYJIQQQgghhBBCCCGE9BwUNgkhhBBCCCGEEEIIIT0HhU1CCCGEEEIIIYQQQkjPQWGTEEIIIYQQQgghhBDSc1DYJIQQQgghhBBCCCGE9BwUNgkhhBBCCCGEEEIIIT0HhU1CCCGEEEIIIYQQQkjPQWGTEEIIIYQQQgghhBDSc1DYJIQQQgghhBBCCCGE9BwUNgkhhBBCCCGEEEIIIT0HhU1CCCGEEEIIIYQQQkjPQWGTEEIIIYQQQgghhBDSc1DYJIQQQgghhBBCCCGE9BwUNgkhhBBCCCGEEEIIIT0HhU1CCCGEEEIIIYQQQkjPQWGTEEIIIYQQQgghhBDSc1DYJIQQQgghhBBCCCGE9BwUNgkhhBBCCCGEEEIIIT0HhU1CCCGEEEIIIYQQQkjPQWGTEEIIIYQQQgghhBDSc1DYJIQQQgghhBBCCCGE9BwUNgkhhBBCCCGEEEIIIT0HhU1CCCGEEEIIIYQQQkjPQWGTEEIIIYQQQgghhBDSc1DYJIQQQgghhBBCCCGE9BwUNgkhhBBCCCGEEEIIIT0HhU1CCCGEEEIIIYQQQkjPQWGTEEIIIYQQQgghhBDSc1DYJIQQQgghhBBCCCGE9BwUNgkhhBBCCCGEEEIIIT0HhU1CCCGEEEIIIYQQQkjPQWGTEEIIIYQQQgghhBDSc1DYJIQQQgghhBBCCCGE9BwUNgkhhBBCCCGEEEIIIT0HhU1CCCGEEEIIIYQQQkjPQWGTEEIIIYQQQgghhBDSc1DYJIQQQgghhBBCCCGE9BwUNgkhhBBCCCGEEEIIIT0HhU1CCCGEEEIIIYQQQkjPQWGTEEIIIYQQQgghhBDSc1DYJIQQQgghhBBCCCGE9BwUNgkhhBBCCCGEEEIIIT0HhU1CCCGEEEIIIYQQQkjPQWGTEEIIIYQQQgghhBDSc1DYJIQQQgghhBBCCCGE9Bz/f9Nc2iVE1oRDAAAAAElFTkSuQmCC;rotation=90;" vertex="1" parent="UG6f5bHq-V13YJxruOO--49">
          <mxGeometry x="-69.88" y="100" width="254" height="114.24" as="geometry" />
        </mxCell>
        <mxCell id="UG6f5bHq-V13YJxruOO--41" value="RaspBerry" style="text;html=1;align=center;verticalAlign=middle;whiteSpace=wrap;rounded=0;container=1;" vertex="1" parent="UG6f5bHq-V13YJxruOO--49">
          <mxGeometry x="27.120000000000005" width="60" height="30" as="geometry">
            <mxRectangle x="27.120000000000005" width="100" height="30" as="alternateBounds" />
          </mxGeometry>
        </mxCell>
        <mxCell id="UG6f5bHq-V13YJxruOO--50" style="edgeStyle=orthogonalEdgeStyle;rounded=0;orthogonalLoop=1;jettySize=auto;html=1;exitX=0.75;exitY=1;exitDx=0;exitDy=0;entryX=0.92;entryY=0.269;entryDx=0;entryDy=0;entryPerimeter=0;" edge="1" parent="1" source="UG6f5bHq-V13YJxruOO--2" target="UG6f5bHq-V13YJxruOO--5">
          <mxGeometry relative="1" as="geometry" />
        </mxCell>
        <mxCell id="UG6f5bHq-V13YJxruOO--53" style="edgeStyle=orthogonalEdgeStyle;rounded=0;orthogonalLoop=1;jettySize=auto;html=1;exitX=0.5;exitY=1;exitDx=0;exitDy=0;entryX=1;entryY=0.5;entryDx=0;entryDy=0;" edge="1" parent="1" source="UG6f5bHq-V13YJxruOO--2" target="UG6f5bHq-V13YJxruOO--15">
          <mxGeometry relative="1" as="geometry">
            <mxPoint x="230" y="510" as="targetPoint" />
          </mxGeometry>
        </mxCell>
        <mxCell id="UG6f5bHq-V13YJxruOO--54" style="edgeStyle=orthogonalEdgeStyle;rounded=0;orthogonalLoop=1;jettySize=auto;html=1;exitX=0.25;exitY=1;exitDx=0;exitDy=0;entryX=1;entryY=0.5;entryDx=0;entryDy=0;" edge="1" parent="1" source="UG6f5bHq-V13YJxruOO--2" target="UG6f5bHq-V13YJxruOO--13">
          <mxGeometry relative="1" as="geometry" />
        </mxCell>
        <mxCell id="UG6f5bHq-V13YJxruOO--105" value="" style="group" vertex="1" connectable="0" parent="1">
          <mxGeometry x="354" y="80" width="120" height="150" as="geometry" />
        </mxCell>
        <mxCell id="UG6f5bHq-V13YJxruOO--101" value="" style="group" vertex="1" connectable="0" parent="UG6f5bHq-V13YJxruOO--105">
          <mxGeometry y="30" width="120" height="120" as="geometry" />
        </mxCell>
        <mxCell id="UG6f5bHq-V13YJxruOO--57" value="" style="whiteSpace=wrap;html=1;aspect=fixed;" vertex="1" parent="UG6f5bHq-V13YJxruOO--101">
          <mxGeometry width="120" height="120" as="geometry" />
        </mxCell>
        <mxCell id="UG6f5bHq-V13YJxruOO--58" value="" style="whiteSpace=wrap;html=1;aspect=fixed;" vertex="1" parent="UG6f5bHq-V13YJxruOO--101">
          <mxGeometry x="10" y="10" width="20" height="20" as="geometry" />
        </mxCell>
        <mxCell id="UG6f5bHq-V13YJxruOO--59" value="" style="whiteSpace=wrap;html=1;aspect=fixed;" vertex="1" parent="UG6f5bHq-V13YJxruOO--101">
          <mxGeometry x="30" y="10" width="20" height="20" as="geometry" />
        </mxCell>
        <mxCell id="UG6f5bHq-V13YJxruOO--60" value="" style="whiteSpace=wrap;html=1;aspect=fixed;" vertex="1" parent="UG6f5bHq-V13YJxruOO--101">
          <mxGeometry x="70" y="10" width="20" height="20" as="geometry" />
        </mxCell>
        <mxCell id="UG6f5bHq-V13YJxruOO--61" value="" style="whiteSpace=wrap;html=1;aspect=fixed;fillColor=light-dark(#FF31F8,var(--ge-dark-color, #121212));" vertex="1" parent="UG6f5bHq-V13YJxruOO--101">
          <mxGeometry x="50" y="10" width="20" height="20" as="geometry" />
        </mxCell>
        <mxCell id="UG6f5bHq-V13YJxruOO--62" value="" style="whiteSpace=wrap;html=1;aspect=fixed;" vertex="1" parent="UG6f5bHq-V13YJxruOO--101">
          <mxGeometry x="90" y="10" width="20" height="20" as="geometry" />
        </mxCell>
        <mxCell id="UG6f5bHq-V13YJxruOO--69" value="" style="group" vertex="1" connectable="0" parent="UG6f5bHq-V13YJxruOO--101">
          <mxGeometry x="10" y="90" width="100" height="20" as="geometry" />
        </mxCell>
        <mxCell id="UG6f5bHq-V13YJxruOO--64" value="" style="whiteSpace=wrap;html=1;aspect=fixed;" vertex="1" parent="UG6f5bHq-V13YJxruOO--69">
          <mxGeometry width="20" height="20" as="geometry" />
        </mxCell>
        <mxCell id="UG6f5bHq-V13YJxruOO--65" value="" style="whiteSpace=wrap;html=1;aspect=fixed;fillColor=light-dark(#FF31F8,var(--ge-dark-color, #121212));" vertex="1" parent="UG6f5bHq-V13YJxruOO--69">
          <mxGeometry x="20" width="20" height="20" as="geometry" />
        </mxCell>
        <mxCell id="UG6f5bHq-V13YJxruOO--66" value="" style="whiteSpace=wrap;html=1;aspect=fixed;fillColor=light-dark(#FF31F8,var(--ge-dark-color, #121212));" vertex="1" parent="UG6f5bHq-V13YJxruOO--69">
          <mxGeometry x="60" width="20" height="20" as="geometry" />
        </mxCell>
        <mxCell id="UG6f5bHq-V13YJxruOO--67" value="" style="whiteSpace=wrap;html=1;aspect=fixed;fillColor=light-dark(#FF31F8,var(--ge-dark-color, #121212));" vertex="1" parent="UG6f5bHq-V13YJxruOO--69">
          <mxGeometry x="40" width="20" height="20" as="geometry" />
        </mxCell>
        <mxCell id="UG6f5bHq-V13YJxruOO--68" value="" style="whiteSpace=wrap;html=1;aspect=fixed;" vertex="1" parent="UG6f5bHq-V13YJxruOO--69">
          <mxGeometry x="80" width="20" height="20" as="geometry" />
        </mxCell>
        <mxCell id="UG6f5bHq-V13YJxruOO--83" value="" style="group" vertex="1" connectable="0" parent="UG6f5bHq-V13YJxruOO--101">
          <mxGeometry x="10" y="70" width="100" height="20" as="geometry" />
        </mxCell>
        <mxCell id="UG6f5bHq-V13YJxruOO--84" value="" style="whiteSpace=wrap;html=1;aspect=fixed;" vertex="1" parent="UG6f5bHq-V13YJxruOO--83">
          <mxGeometry width="20" height="20" as="geometry" />
        </mxCell>
        <mxCell id="UG6f5bHq-V13YJxruOO--85" value="" style="whiteSpace=wrap;html=1;aspect=fixed;" vertex="1" parent="UG6f5bHq-V13YJxruOO--83">
          <mxGeometry x="20" width="20" height="20" as="geometry" />
        </mxCell>
        <mxCell id="UG6f5bHq-V13YJxruOO--86" value="" style="whiteSpace=wrap;html=1;aspect=fixed;" vertex="1" parent="UG6f5bHq-V13YJxruOO--83">
          <mxGeometry x="60" width="20" height="20" as="geometry" />
        </mxCell>
        <mxCell id="UG6f5bHq-V13YJxruOO--87" value="" style="whiteSpace=wrap;html=1;aspect=fixed;fillColor=light-dark(#FF31F8,var(--ge-dark-color, #121212));" vertex="1" parent="UG6f5bHq-V13YJxruOO--83">
          <mxGeometry x="40" width="20" height="20" as="geometry" />
        </mxCell>
        <mxCell id="UG6f5bHq-V13YJxruOO--88" value="" style="whiteSpace=wrap;html=1;aspect=fixed;" vertex="1" parent="UG6f5bHq-V13YJxruOO--83">
          <mxGeometry x="80" width="20" height="20" as="geometry" />
        </mxCell>
        <mxCell id="UG6f5bHq-V13YJxruOO--89" value="" style="group" vertex="1" connectable="0" parent="UG6f5bHq-V13YJxruOO--101">
          <mxGeometry x="10" y="50" width="100" height="20" as="geometry" />
        </mxCell>
        <mxCell id="UG6f5bHq-V13YJxruOO--90" value="" style="whiteSpace=wrap;html=1;aspect=fixed;" vertex="1" parent="UG6f5bHq-V13YJxruOO--89">
          <mxGeometry width="20" height="20" as="geometry" />
        </mxCell>
        <mxCell id="UG6f5bHq-V13YJxruOO--91" value="" style="whiteSpace=wrap;html=1;aspect=fixed;" vertex="1" parent="UG6f5bHq-V13YJxruOO--89">
          <mxGeometry x="20" width="20" height="20" as="geometry" />
        </mxCell>
        <mxCell id="UG6f5bHq-V13YJxruOO--92" value="" style="whiteSpace=wrap;html=1;aspect=fixed;" vertex="1" parent="UG6f5bHq-V13YJxruOO--89">
          <mxGeometry x="60" width="20" height="20" as="geometry" />
        </mxCell>
        <mxCell id="UG6f5bHq-V13YJxruOO--93" value="" style="whiteSpace=wrap;html=1;aspect=fixed;fillColor=light-dark(#FF31F8,var(--ge-dark-color, #121212));" vertex="1" parent="UG6f5bHq-V13YJxruOO--89">
          <mxGeometry x="40" width="20" height="20" as="geometry" />
        </mxCell>
        <mxCell id="UG6f5bHq-V13YJxruOO--94" value="" style="whiteSpace=wrap;html=1;aspect=fixed;" vertex="1" parent="UG6f5bHq-V13YJxruOO--89">
          <mxGeometry x="80" width="20" height="20" as="geometry" />
        </mxCell>
        <mxCell id="UG6f5bHq-V13YJxruOO--95" value="" style="group" vertex="1" connectable="0" parent="UG6f5bHq-V13YJxruOO--101">
          <mxGeometry x="10" y="30" width="100" height="20" as="geometry" />
        </mxCell>
        <mxCell id="UG6f5bHq-V13YJxruOO--96" value="" style="whiteSpace=wrap;html=1;aspect=fixed;" vertex="1" parent="UG6f5bHq-V13YJxruOO--95">
          <mxGeometry width="20" height="20" as="geometry" />
        </mxCell>
        <mxCell id="UG6f5bHq-V13YJxruOO--97" value="" style="whiteSpace=wrap;html=1;aspect=fixed;fillColor=light-dark(#FF31F8,var(--ge-dark-color, #121212));" vertex="1" parent="UG6f5bHq-V13YJxruOO--95">
          <mxGeometry x="20" width="20" height="20" as="geometry" />
        </mxCell>
        <mxCell id="UG6f5bHq-V13YJxruOO--98" value="" style="whiteSpace=wrap;html=1;aspect=fixed;" vertex="1" parent="UG6f5bHq-V13YJxruOO--95">
          <mxGeometry x="60" width="20" height="20" as="geometry" />
        </mxCell>
        <mxCell id="UG6f5bHq-V13YJxruOO--99" value="" style="whiteSpace=wrap;html=1;aspect=fixed;fillColor=light-dark(#FF31F8,var(--ge-dark-color, #121212));" vertex="1" parent="UG6f5bHq-V13YJxruOO--95">
          <mxGeometry x="40" width="20" height="20" as="geometry" />
        </mxCell>
        <mxCell id="UG6f5bHq-V13YJxruOO--100" value="" style="whiteSpace=wrap;html=1;aspect=fixed;" vertex="1" parent="UG6f5bHq-V13YJxruOO--95">
          <mxGeometry x="80" width="20" height="20" as="geometry" />
        </mxCell>
        <mxCell id="UG6f5bHq-V13YJxruOO--104" value="Matriz" style="text;html=1;align=center;verticalAlign=middle;whiteSpace=wrap;rounded=0;" vertex="1" parent="UG6f5bHq-V13YJxruOO--105">
          <mxGeometry x="24" width="60" height="30" as="geometry" />
        </mxCell>
        <mxCell id="UG6f5bHq-V13YJxruOO--110" value="" style="group" vertex="1" connectable="0" parent="1">
          <mxGeometry x="378.5" y="260" width="70" height="30" as="geometry" />
        </mxCell>
        <mxCell id="UG6f5bHq-V13YJxruOO--108" value="" style="rounded=0;whiteSpace=wrap;html=1;" vertex="1" parent="UG6f5bHq-V13YJxruOO--110">
          <mxGeometry width="70" height="30" as="geometry" />
        </mxCell>
        <mxCell id="UG6f5bHq-V13YJxruOO--109" value="&lt;b&gt;Power&lt;/b&gt;" style="text;html=1;align=center;verticalAlign=middle;whiteSpace=wrap;rounded=0;" vertex="1" parent="UG6f5bHq-V13YJxruOO--110">
          <mxGeometry x="17.5" y="7.5" width="35" height="15" as="geometry" />
        </mxCell>
        <mxCell id="UG6f5bHq-V13YJxruOO--112" style="edgeStyle=orthogonalEdgeStyle;rounded=0;orthogonalLoop=1;jettySize=auto;html=1;" edge="1" parent="1" source="UG6f5bHq-V13YJxruOO--109">
          <mxGeometry relative="1" as="geometry">
            <mxPoint x="414" y="340" as="targetPoint" />
          </mxGeometry>
        </mxCell>
        <mxCell id="UG6f5bHq-V13YJxruOO--116" style="edgeStyle=orthogonalEdgeStyle;rounded=0;orthogonalLoop=1;jettySize=auto;html=1;entryX=0;entryY=0.5;entryDx=0;entryDy=0;" edge="1" parent="1" source="UG6f5bHq-V13YJxruOO--115" target="UG6f5bHq-V13YJxruOO--10">
          <mxGeometry relative="1" as="geometry" />
        </mxCell>
        <mxCell id="UG6f5bHq-V13YJxruOO--115" value="X e Y" style="text;html=1;align=center;verticalAlign=middle;whiteSpace=wrap;rounded=0;" vertex="1" parent="1">
          <mxGeometry x="388.5" y="630.0013793103449" width="60" height="30" as="geometry" />
        </mxCell>
        <mxCell id="UG6f5bHq-V13YJxruOO--114" style="edgeStyle=orthogonalEdgeStyle;rounded=0;orthogonalLoop=1;jettySize=auto;html=1;exitX=1;exitY=0.5;exitDx=0;exitDy=0;" edge="1" parent="1" source="UG6f5bHq-V13YJxruOO--5" target="UG6f5bHq-V13YJxruOO--115">
          <mxGeometry relative="1" as="geometry">
            <mxPoint x="370" y="645.2413793103449" as="targetPoint" />
          </mxGeometry>
        </mxCell>
        <mxCell id="UG6f5bHq-V13YJxruOO--118" value="PWM" style="text;html=1;align=center;verticalAlign=middle;whiteSpace=wrap;rounded=0;" vertex="1" parent="1">
          <mxGeometry x="216" y="717.5" width="60" height="30" as="geometry" />
        </mxCell>
        <mxCell id="UG6f5bHq-V13YJxruOO--119" style="edgeStyle=orthogonalEdgeStyle;rounded=0;orthogonalLoop=1;jettySize=auto;html=1;entryX=0.5;entryY=0;entryDx=0;entryDy=0;" edge="1" parent="1" source="UG6f5bHq-V13YJxruOO--5" target="UG6f5bHq-V13YJxruOO--118">
          <mxGeometry relative="1" as="geometry" />
        </mxCell>
        <mxCell id="UG6f5bHq-V13YJxruOO--120" style="edgeStyle=orthogonalEdgeStyle;rounded=0;orthogonalLoop=1;jettySize=auto;html=1;exitX=1;exitY=0.5;exitDx=0;exitDy=0;entryX=0;entryY=0.5;entryDx=0;entryDy=0;entryPerimeter=0;" edge="1" parent="1" source="UG6f5bHq-V13YJxruOO--118" target="UG6f5bHq-V13YJxruOO--16">
          <mxGeometry relative="1" as="geometry" />
        </mxCell>
        <mxCell id="UG6f5bHq-V13YJxruOO--125" value="" style="group" vertex="1" connectable="0" parent="1">
          <mxGeometry x="286" y="660" width="60" height="55" as="geometry" />
        </mxCell>
        <mxCell id="UG6f5bHq-V13YJxruOO--123" value="" style="group" vertex="1" connectable="0" parent="UG6f5bHq-V13YJxruOO--125">
          <mxGeometry x="17.5" y="30" width="25" height="25" as="geometry" />
        </mxCell>
        <mxCell id="UG6f5bHq-V13YJxruOO--121" value="" style="ellipse;whiteSpace=wrap;html=1;aspect=fixed;" vertex="1" parent="UG6f5bHq-V13YJxruOO--123">
          <mxGeometry width="25" height="25" as="geometry" />
        </mxCell>
        <mxCell id="UG6f5bHq-V13YJxruOO--122" value="" style="ellipse;whiteSpace=wrap;html=1;aspect=fixed;" vertex="1" parent="UG6f5bHq-V13YJxruOO--123">
          <mxGeometry x="5" y="5" width="15" height="15" as="geometry" />
        </mxCell>
        <mxCell id="UG6f5bHq-V13YJxruOO--124" value="Button JoyStick" style="text;html=1;align=center;verticalAlign=middle;whiteSpace=wrap;rounded=0;" vertex="1" parent="UG6f5bHq-V13YJxruOO--125">
          <mxGeometry width="60" height="30" as="geometry" />
        </mxCell>
        <mxCell id="UG6f5bHq-V13YJxruOO--126" style="edgeStyle=orthogonalEdgeStyle;rounded=0;orthogonalLoop=1;jettySize=auto;html=1;exitX=1;exitY=1;exitDx=0;exitDy=0;entryX=0;entryY=0.5;entryDx=0;entryDy=0;" edge="1" parent="1" source="UG6f5bHq-V13YJxruOO--5" target="UG6f5bHq-V13YJxruOO--121">
          <mxGeometry relative="1" as="geometry">
            <Array as="points">
              <mxPoint x="274" y="702" />
            </Array>
          </mxGeometry>
        </mxCell>
        <mxCell id="UG6f5bHq-V13YJxruOO--129" style="edgeStyle=orthogonalEdgeStyle;rounded=0;orthogonalLoop=1;jettySize=auto;html=1;entryX=0;entryY=0.75;entryDx=0;entryDy=0;" edge="1" parent="1" source="UG6f5bHq-V13YJxruOO--128" target="UG6f5bHq-V13YJxruOO--10">
          <mxGeometry relative="1" as="geometry" />
        </mxCell>
        <mxCell id="UG6f5bHq-V13YJxruOO--131" style="edgeStyle=orthogonalEdgeStyle;rounded=0;orthogonalLoop=1;jettySize=auto;html=1;exitX=1;exitY=1;exitDx=0;exitDy=0;entryX=0.75;entryY=1;entryDx=0;entryDy=0;" edge="1" parent="1" source="UG6f5bHq-V13YJxruOO--128" target="UG6f5bHq-V13YJxruOO--140">
          <mxGeometry relative="1" as="geometry">
            <mxPoint x="300" y="310" as="targetPoint" />
            <Array as="points">
              <mxPoint x="743" y="700" />
              <mxPoint x="743" y="480" />
            </Array>
          </mxGeometry>
        </mxCell>
        <mxCell id="UG6f5bHq-V13YJxruOO--128" value="Password" style="text;html=1;align=center;verticalAlign=middle;whiteSpace=wrap;rounded=0;" vertex="1" parent="1">
          <mxGeometry x="384" y="670" width="60" height="30" as="geometry" />
        </mxCell>
        <mxCell id="UG6f5bHq-V13YJxruOO--127" style="edgeStyle=orthogonalEdgeStyle;rounded=0;orthogonalLoop=1;jettySize=auto;html=1;exitX=1;exitY=0.5;exitDx=0;exitDy=0;" edge="1" parent="1" source="UG6f5bHq-V13YJxruOO--121" target="UG6f5bHq-V13YJxruOO--128">
          <mxGeometry relative="1" as="geometry">
            <mxPoint x="370" y="690" as="targetPoint" />
          </mxGeometry>
        </mxCell>
        <mxCell id="UG6f5bHq-V13YJxruOO--130" style="edgeStyle=orthogonalEdgeStyle;rounded=0;orthogonalLoop=1;jettySize=auto;html=1;" edge="1" parent="1" target="UG6f5bHq-V13YJxruOO--140">
          <mxGeometry relative="1" as="geometry">
            <mxPoint x="440" y="690" as="sourcePoint" />
            <Array as="points">
              <mxPoint x="440" y="700" />
              <mxPoint x="690" y="700" />
            </Array>
          </mxGeometry>
        </mxCell>
        <mxCell id="UG6f5bHq-V13YJxruOO--134" value="Number +" style="text;html=1;align=center;verticalAlign=middle;whiteSpace=wrap;rounded=0;" vertex="1" parent="1">
          <mxGeometry x="120" y="275" width="60" height="30" as="geometry" />
        </mxCell>
        <mxCell id="UG6f5bHq-V13YJxruOO--133" style="edgeStyle=orthogonalEdgeStyle;rounded=0;orthogonalLoop=1;jettySize=auto;html=1;" edge="1" parent="1" source="UG6f5bHq-V13YJxruOO--13" target="UG6f5bHq-V13YJxruOO--134">
          <mxGeometry relative="1" as="geometry">
            <mxPoint x="150" y="290" as="targetPoint" />
          </mxGeometry>
        </mxCell>
        <mxCell id="UG6f5bHq-V13YJxruOO--135" style="edgeStyle=orthogonalEdgeStyle;rounded=0;orthogonalLoop=1;jettySize=auto;html=1;exitX=0.5;exitY=0;exitDx=0;exitDy=0;entryX=0;entryY=0.5;entryDx=0;entryDy=0;" edge="1" parent="1" source="UG6f5bHq-V13YJxruOO--134" target="UG6f5bHq-V13YJxruOO--145">
          <mxGeometry relative="1" as="geometry">
            <mxPoint x="355" y="190" as="targetPoint" />
            <Array as="points">
              <mxPoint x="150" y="195" />
            </Array>
          </mxGeometry>
        </mxCell>
        <mxCell id="UG6f5bHq-V13YJxruOO--137" value="Number -" style="text;html=1;align=center;verticalAlign=middle;whiteSpace=wrap;rounded=0;" vertex="1" parent="1">
          <mxGeometry x="30" y="275" width="60" height="30" as="geometry" />
        </mxCell>
        <mxCell id="UG6f5bHq-V13YJxruOO--136" style="edgeStyle=orthogonalEdgeStyle;rounded=0;orthogonalLoop=1;jettySize=auto;html=1;" edge="1" parent="1" source="UG6f5bHq-V13YJxruOO--15" target="UG6f5bHq-V13YJxruOO--137">
          <mxGeometry relative="1" as="geometry">
            <mxPoint x="60" y="310" as="targetPoint" />
          </mxGeometry>
        </mxCell>
        <mxCell id="UG6f5bHq-V13YJxruOO--138" style="edgeStyle=orthogonalEdgeStyle;rounded=0;orthogonalLoop=1;jettySize=auto;html=1;" edge="1" parent="1" source="UG6f5bHq-V13YJxruOO--137" target="UG6f5bHq-V13YJxruOO--145">
          <mxGeometry relative="1" as="geometry">
            <Array as="points">
              <mxPoint x="60" y="195" />
            </Array>
          </mxGeometry>
        </mxCell>
        <mxCell id="UG6f5bHq-V13YJxruOO--140" value="Correct password" style="text;html=1;align=center;verticalAlign=middle;whiteSpace=wrap;rounded=0;" vertex="1" parent="1">
          <mxGeometry x="660" y="440" width="110" height="30" as="geometry" />
        </mxCell>
        <mxCell id="UG6f5bHq-V13YJxruOO--143" style="edgeStyle=orthogonalEdgeStyle;rounded=0;orthogonalLoop=1;jettySize=auto;html=1;entryX=1;entryY=0.5;entryDx=0;entryDy=0;entryPerimeter=0;" edge="1" parent="1" source="UG6f5bHq-V13YJxruOO--140" target="UG6f5bHq-V13YJxruOO--32">
          <mxGeometry relative="1" as="geometry">
            <Array as="points">
              <mxPoint x="710" y="325" />
            </Array>
          </mxGeometry>
        </mxCell>
        <mxCell id="UG6f5bHq-V13YJxruOO--144" style="edgeStyle=orthogonalEdgeStyle;rounded=0;orthogonalLoop=1;jettySize=auto;html=1;entryX=1;entryY=0.5;entryDx=0;entryDy=0;entryPerimeter=0;" edge="1" parent="1" source="UG6f5bHq-V13YJxruOO--140" target="UG6f5bHq-V13YJxruOO--33">
          <mxGeometry relative="1" as="geometry">
            <Array as="points">
              <mxPoint x="710" y="250" />
              <mxPoint x="280" y="250" />
              <mxPoint x="280" y="325" />
            </Array>
          </mxGeometry>
        </mxCell>
        <mxCell id="UG6f5bHq-V13YJxruOO--146" style="edgeStyle=orthogonalEdgeStyle;rounded=0;orthogonalLoop=1;jettySize=auto;html=1;entryX=0;entryY=0.5;entryDx=0;entryDy=0;" edge="1" parent="1" source="UG6f5bHq-V13YJxruOO--145" target="UG6f5bHq-V13YJxruOO--57">
          <mxGeometry relative="1" as="geometry" />
        </mxCell>
        <mxCell id="UG6f5bHq-V13YJxruOO--145" value="0 to 9" style="text;html=1;align=center;verticalAlign=middle;whiteSpace=wrap;rounded=0;" vertex="1" parent="1">
          <mxGeometry x="216" y="180" width="60" height="30" as="geometry" />
        </mxCell>
      </root>
    </mxGraphModel>
  </diagram>
</mxfile>
